<?xml version="1.0" encoding="utf-8"?>
<!-- Generator: Adobe Illustrator 25.0.1, SVG Export Plug-In . SVG Version: 6.00 Build 0)  -->
<svg version="1.0" id="katman_1" xmlns="http://www.w3.org/2000/svg" xmlns:xlink="http://www.w3.org/1999/xlink" x="0px" y="0px"
	 viewBox="0 0 560 400" style="enable-background:new 0 0 560 400;" xml:space="preserve">
<style type="text/css">
	.st0{fill:#008C62;}
	.st1{fill:#00E6A0;}
</style>
<g transform="matrix(1.91221 0 0 1.91221 155.988 65.0026)">
	<path class="st0" d="M87.7,79.3L123.1,44c2.7-2.6,4.1-6.2,4.1-10l0.1-28.5c0-1.5-0.6-2.9-1.6-3.9L57.7,69.3
		c-2.7,2.6-4.2,6.2-4.2,10s1.5,7.4,4.2,10l47.9,47.8c2.6,2.6,6.2,4.1,9.9,4.1c7.7,0,14.1-6.4,14.1-14.1c0-3.8-1.5-7.4-4.2-10
		L87.7,79.3z"/>
	<path class="st1" d="M121.7,0H15C6.4,0,0,6.5,0,15.4v111.3c0,0.1,0,0.1,0,0.2c0,7.8,6.4,14.2,14.2,14.2c0.1,0,0.1,0,0.2,0
		c0.1,0,0.2,0,0.2,0c7.7,0,14.1-6.4,14.1-14.1c0-0.1,0-0.2,0-0.2V27.5h71l26-25.9C124.7,0.5,123.2,0,121.7,0L121.7,0z"/>
</g>
</svg>
