<svg id="visual" viewBox="0 0 675 900" width="675" height="900" xmlns="http://www.w3.org/2000/svg" xmlns:xlink="http://www.w3.org/1999/xlink" version="1.1"><rect x="0" y="0" width="675" height="900" fill="#ffffff"></rect><defs><linearGradient id="grad1_0" x1="0%" y1="0%" x2="100%" y2="100%"><stop offset="30%" stop-color="#ffffff" stop-opacity="1"></stop><stop offset="70%" stop-color="#ffffff" stop-opacity="1"></stop></linearGradient></defs><defs><linearGradient id="grad2_0" x1="0%" y1="0%" x2="100%" y2="100%"><stop offset="30%" stop-color="#ffffff" stop-opacity="1"></stop><stop offset="70%" stop-color="#ffffff" stop-opacity="1"></stop></linearGradient></defs><g transform="translate(675, 0)"><path d="M0 309.4C-35.1 293.7 -70.2 278 -110.2 266.1C-150.2 254.1 -195.2 245.9 -218.8 218.8C-242.3 191.6 -244.4 145.6 -255.9 106C-267.4 66.4 -288.4 33.2 -309.4 0L0 0Z" fill="#d8d8d8"></path></g><g transform="translate(0, 900)"><path d="M0 -309.4C25 -259.5 50.1 -209.7 79.2 -191.2C108.3 -172.8 141.6 -185.6 180.3 -180.3C219.1 -175 263.4 -151.5 285.8 -118.4C308.3 -85.3 308.8 -42.7 309.4 0L0 0Z" fill="#d8d8d8"></path></g></svg>