<?xml version="1.0" standalone="no"?>
<!DOCTYPE svg PUBLIC "-//W3C//DTD SVG 20010904//EN"
 "http://www.w3.org/TR/2001/REC-SVG-20010904/DTD/svg10.dtd">
<svg version="1.0" xmlns="http://www.w3.org/2000/svg"
 width="128.000000pt" height="128.000000pt" viewBox="0 0 128.000000 128.000000"
 preserveAspectRatio="xMidYMid meet">

<g transform="translate(0.000000,128.000000) scale(0.100000,-0.100000)"
fill="#000000" stroke="none">
<path d="M620 1261 c-18 -35 -60 -225 -60 -273 l0 -48 80 0 80 0 0 48 c0 48
-42 238 -60 273 -13 24 -27 24 -40 0z"/>
<path d="M557 894 c-4 -4 -7 -29 -7 -56 0 -27 -7 -62 -15 -78 l-16 -30 121 0
121 0 -13 23 c-7 12 -15 49 -18 82 l-5 60 -80 3 c-45 1 -84 0 -88 -4z"/>
<path d="M510 445 l0 -235 130 0 130 0 0 235 0 235 -130 0 -130 0 0 -235z"/>
<path d="M522 138 c0 -18 -3 -45 -7 -60 -5 -19 -2 -36 9 -53 16 -24 21 -25
116 -25 95 0 100 1 116 25 11 17 14 34 9 53 -4 15 -7 42 -7 60 l1 32 -119 0
-119 0 1 -32z"/>
</g>
</svg>
