<?xml version="1.0" standalone="no"?>
<!DOCTYPE svg PUBLIC "-//W3C//DTD SVG 20010904//EN"
 "http://www.w3.org/TR/2001/REC-SVG-20010904/DTD/svg10.dtd">
<svg version="1.0" xmlns="http://www.w3.org/2000/svg"
 width="256.000000pt" height="256.000000pt" viewBox="0 0 256.000000 256.000000"
 preserveAspectRatio="xMidYMid meet">

<g transform="translate(0.000000,256.000000) scale(0.100000,-0.100000)"
fill="#000000" stroke="none">
<path d="M1223 2180 c-65 -39 -63 -22 -63 -630 0 -302 -2 -550 -5 -550 -3 0
-17 12 -32 28 -16 15 -92 89 -169 164 -131 128 -144 138 -179 138 -51 0 -115
-61 -115 -111 0 -30 24 -58 258 -292 141 -143 275 -272 296 -288 67 -50 93
-43 194 53 206 195 478 463 489 482 21 36 15 73 -17 110 -35 40 -74 52 -115
36 -16 -6 -101 -82 -189 -168 l-161 -157 -5 560 c-6 626 -3 600 -75 631 -46
19 -74 18 -112 -6z"/>
<path d="M322 828 c3 -210 3 -214 32 -275 31 -68 98 -138 162 -171 79 -40 122
-42 777 -42 539 0 642 2 692 15 114 30 206 110 247 214 19 50 22 80 26 264 l4
207 -96 0 -96 0 0 -195 c0 -212 -3 -227 -57 -276 -15 -15 -43 -31 -62 -38 -24
-8 -222 -11 -669 -11 -627 0 -636 0 -680 21 -26 13 -54 38 -70 62 -27 40 -27
43 -30 239 l-4 198 -89 0 -90 0 3 -212z"/>
</g>
</svg>
