<?xml version="1.0" standalone="no"?>
<!DOCTYPE svg PUBLIC "-//W3C//DTD SVG 20010904//EN"
 "http://www.w3.org/TR/2001/REC-SVG-20010904/DTD/svg10.dtd">
<svg version="1.0" xmlns="http://www.w3.org/2000/svg"
 width="474.000000pt" height="474.000000pt" viewBox="0 0 474.000000 474.000000"
 preserveAspectRatio="xMidYMid meet">

<g transform="translate(0.000000,474.000000) scale(0.100000,-0.100000)"
fill="#000000" stroke="none">
<path d="M1105 4069 c-264 -28 -502 -308 -698 -824 -153 -402 -298 -1002 -367
-1520 -12 -88 -26 -168 -31 -177 -13 -25 -12 -468 1 -468 6 0 10 -8 10 -18 0
-34 31 -137 59 -197 34 -74 106 -150 168 -177 91 -40 232 -23 378 47 162 77
305 196 635 530 257 260 318 299 530 334 403 67 1094 47 1323 -39 90 -34 166
-97 427 -354 340 -336 416 -398 584 -477 102 -47 149 -58 252 -59 70 0 89 4
135 28 96 50 172 174 201 327 7 36 16 65 20 65 5 0 8 104 8 230 0 147 -4 230
-10 230 -5 0 -10 11 -10 25 0 33 -54 387 -81 525 -169 895 -411 1526 -689
1801 -148 146 -308 194 -529 158 -35 -5 -144 -43 -245 -83 -306 -125 -445
-151 -801 -151 -363 0 -536 32 -805 150 -132 58 -216 84 -304 95 -44 5 -81 9
-81 9 0 -1 -36 -5 -80 -10z m473 -613 c292 -79 491 -339 492 -642 0 -289 -180
-540 -455 -635 -61 -21 -88 -24 -210 -24 -126 0 -147 3 -213 27 -105 38 -175
83 -258 165 -59 58 -83 92 -119 166 -131 270 -84 560 124 768 107 107 213 161
369 189 61 12 203 4 270 -14z m1817 5 c47 -22 99 -74 114 -114 45 -119 -46
-256 -177 -265 -48 -3 -66 1 -112 25 -46 23 -60 37 -82 82 -32 63 -35 110 -9
166 48 104 168 152 266 106z m-428 -457 c15 -11 40 -37 57 -58 26 -31 31 -47
34 -104 5 -88 -23 -144 -92 -187 -131 -81 -296 14 -296 169 1 84 41 151 115
191 42 22 145 16 182 -11z m912 -8 c86 -60 110 -184 54 -275 -101 -162 -345
-105 -361 85 -8 91 32 166 113 209 48 26 143 16 194 -19z m-479 -438 c63 -23
120 -109 120 -180 -1 -146 -152 -240 -286 -179 -50 23 -81 53 -105 106 -36 78
-14 165 57 223 58 48 136 59 214 30z"/>
<path d="M1268 3261 c-74 -24 -122 -53 -186 -115 -104 -99 -147 -211 -140
-361 3 -83 8 -101 43 -171 148 -302 536 -364 761 -122 244 264 131 669 -215
772 -72 21 -191 20 -263 -3z"/>
</g>
</svg>
