<?xml version="1.0" encoding="UTF-8"?>
<!DOCTYPE svg PUBLIC "-//W3C//DTD SVG 1.1//EN" "http://www.w3.org/Graphics/SVG/1.1/DTD/svg11.dtd">
<svg xmlns="http://www.w3.org/2000/svg" version="1.1" width="512px" height="512px" style="shape-rendering:geometricPrecision; text-rendering:geometricPrecision; image-rendering:optimizeQuality; fill-rule:evenodd; clip-rule:evenodd" xmlns:xlink="http://www.w3.org/1999/xlink">
<g><path style="opacity:0.981" fill="#ffa856" d="M 247.5,-0.5 C 252.833,-0.5 258.167,-0.5 263.5,-0.5C 283.184,7.53957 290.018,21.8729 284,42.5C 280.255,50.4129 274.422,56.0795 266.5,59.5C 259.167,60.8333 251.833,60.8333 244.5,59.5C 226.901,50.5617 221.068,36.5617 227,17.5C 231.256,8.40155 238.089,2.40155 247.5,-0.5 Z M 251.5,15.5 C 260.967,14.4749 267.134,18.4749 270,27.5C 270.641,35.544 267.141,41.044 259.5,44C 250.113,45.3883 243.947,41.555 241,32.5C 240.676,24.351 244.176,18.6843 251.5,15.5 Z"/></g>
<g><path style="opacity:0.978" fill="#ffc666" d="M 244.5,59.5 C 251.833,60.8333 259.167,60.8333 266.5,59.5C 268.167,59.5 269.833,59.5 271.5,59.5C 284.501,63.507 288.335,71.8403 283,84.5C 280.886,87.1208 278.386,89.1208 275.5,90.5C 253.327,90.1693 231.327,90.5026 209.5,91.5C 197.754,89.3547 192.92,82.3547 195,70.5C 197.487,64.34 201.987,60.84 208.5,60C 220.495,59.5001 232.495,59.3335 244.5,59.5 Z"/></g>
<g><path style="opacity:0.991" fill="#ffa857" d="M 271.5,59.5 C 281.839,59.3335 292.172,59.5002 302.5,60C 313.924,62.661 318.424,69.8277 316,81.5C 313.183,87.6656 308.349,90.9989 301.5,91.5C 293.016,90.507 284.349,90.1736 275.5,90.5C 278.386,89.1208 280.886,87.1208 283,84.5C 288.335,71.8403 284.501,63.507 271.5,59.5 Z"/></g>
<g><path style="opacity:0.995" fill="#e0373f" d="M 275.5,90.5 C 284.349,90.1736 293.016,90.507 301.5,91.5C 291.167,91.5 280.833,91.5 270.5,91.5C 270.5,102.833 270.5,114.167 270.5,125.5C 249.478,127.951 229.145,125.618 209.5,118.5C 209.5,109.5 209.5,100.5 209.5,91.5C 231.327,90.5026 253.327,90.1693 275.5,90.5 Z"/></g>
<g><path style="opacity:1" fill="#b53a4b" d="M 301.5,91.5 C 301.5,100.5 301.5,109.5 301.5,118.5C 291.508,122.232 281.174,124.566 270.5,125.5C 270.5,114.167 270.5,102.833 270.5,91.5C 280.833,91.5 291.167,91.5 301.5,91.5 Z"/></g>
<g><path style="opacity:0.997" fill="#fe4040" d="M 209.5,118.5 C 229.145,125.618 249.478,127.951 270.5,125.5C 281.174,124.566 291.508,122.232 301.5,118.5C 302.492,118.328 303.158,118.662 303.5,119.5C 344.988,134.807 376.155,162.14 397,201.5C 423.549,253.581 430.549,308.247 418,365.5C 405.44,419.189 376.273,461.022 330.5,491C 313.077,500.427 294.744,506.927 275.5,510.5C 275.5,510.833 275.5,511.167 275.5,511.5C 262.167,511.5 248.833,511.5 235.5,511.5C 159.386,500.868 104.886,460.868 72,391.5C 44.9429,321.342 52.6096,255.342 95,193.5C 124.248,155.121 162.414,130.121 209.5,118.5 Z"/></g>
<g><path style="opacity:0.988" fill="#e0343e" d="M 303.5,119.5 C 376.19,139.021 424.023,184.687 447,256.5C 466.537,335.206 447.703,403.039 390.5,460C 357.787,489.35 319.454,506.184 275.5,510.5C 294.744,506.927 313.077,500.427 330.5,491C 376.273,461.022 405.44,419.189 418,365.5C 430.549,308.247 423.549,253.581 397,201.5C 376.155,162.14 344.988,134.807 303.5,119.5 Z"/></g>
<g><path style="opacity:1" fill="#f7f3f4" d="M 271.5,255.5 C 270.504,269.323 270.171,283.323 270.5,297.5C 272.167,297.5 273.833,297.5 275.5,297.5C 285.816,302.893 288.316,310.893 283,321.5C 280.886,324.121 278.386,326.121 275.5,327.5C 273.833,327.5 272.167,327.5 270.5,327.5C 270.171,341.677 270.504,355.677 271.5,369.5C 282.604,376.559 293.937,383.392 305.5,390C 313.423,400.907 311.423,409.573 299.5,416C 296.5,416.667 293.5,416.667 290.5,416C 284.591,412.574 278.591,409.408 272.5,406.5C 272.44,405.957 272.107,405.624 271.5,405.5C 270.501,416.146 270.168,426.813 270.5,437.5C 266.497,449.787 258.497,453.287 246.5,448C 243.071,445.308 241.071,441.808 240.5,437.5C 240.832,426.813 240.499,416.146 239.5,405.5C 238.893,405.624 238.56,405.957 238.5,406.5C 233.062,409.053 227.729,411.887 222.5,415C 210.052,418.44 202.718,413.773 200.5,401C 201.079,396.841 202.746,393.175 205.5,390C 217.063,383.392 228.396,376.559 239.5,369.5C 240.496,355.677 240.829,341.677 240.5,327.5C 226.323,327.171 212.323,327.504 198.5,328.5C 191.522,339.107 185.022,350.107 179,361.5C 170.293,369.785 161.96,369.452 154,360.5C 151.66,356.445 150.993,352.111 152,347.5C 155.5,341.167 159,334.833 162.5,328.5C 150.848,327.667 139.181,327.167 127.5,327C 121.025,323.887 117.691,318.72 117.5,311.5C 118.273,305.126 121.607,300.626 127.5,298C 139.181,297.833 150.848,297.333 162.5,296.5C 159.333,290.833 156.167,285.167 153,279.5C 149.73,269.537 152.897,262.37 162.5,258C 168.368,257.067 173.535,258.567 178,262.5C 184.608,274.063 191.441,285.396 198.5,296.5C 212.323,297.496 226.323,297.829 240.5,297.5C 240.829,283.323 240.496,269.323 239.5,255.5C 228.67,248.863 217.67,242.363 206.5,236C 198.197,227.26 198.53,218.927 207.5,211C 212.314,208.107 217.314,207.774 222.5,210C 228.167,213.167 233.833,216.333 239.5,219.5C 240.333,207.848 240.833,196.181 241,184.5C 246.875,173.99 255.042,171.824 265.5,178C 267.123,180.08 268.623,182.246 270,184.5C 270.167,196.181 270.667,207.848 271.5,219.5C 278.724,215.138 286.224,211.471 294,208.5C 305.061,209.554 310.394,215.554 310,226.5C 309.064,230.207 307.231,233.374 304.5,236C 293.33,242.363 282.33,248.863 271.5,255.5 Z"/></g>
<g><path style="opacity:1" fill="#ebe0e6" d="M 312.5,328.5 C 300.345,327.505 288.011,327.171 275.5,327.5C 278.386,326.121 280.886,324.121 283,321.5C 288.316,310.893 285.816,302.893 275.5,297.5C 288.011,297.829 300.345,297.495 312.5,296.5C 319.559,285.396 326.392,274.063 333,262.5C 341.619,255.445 349.619,256.111 357,264.5C 359.893,269.314 360.226,274.314 358,279.5C 354.833,285.167 351.667,290.833 348.5,296.5C 360.875,297.081 373.208,297.914 385.5,299C 393.074,304.058 395.241,310.891 392,319.5C 390.5,322.333 388.333,324.5 385.5,326C 373.222,327.108 360.889,327.941 348.5,328.5C 352,334.833 355.5,341.167 359,347.5C 360.697,357.274 356.864,363.774 347.5,367C 341.268,368.145 336.101,366.312 332,361.5C 325.978,350.107 319.478,339.107 312.5,328.5 Z"/></g>
<g><path style="opacity:1" fill="#fd5e5d" d="M 239.5,255.5 C 240.496,269.323 240.829,283.323 240.5,297.5C 226.323,297.829 212.323,297.496 198.5,296.5C 212.167,296.5 225.833,296.5 239.5,296.5C 239.5,282.833 239.5,269.167 239.5,255.5 Z"/></g>
<g><path style="opacity:1" fill="#fc5c5c" d="M 271.5,255.5 C 271.5,269.167 271.5,282.833 271.5,296.5C 285.167,296.5 298.833,296.5 312.5,296.5C 300.345,297.495 288.011,297.829 275.5,297.5C 273.833,297.5 272.167,297.5 270.5,297.5C 270.171,283.323 270.504,269.323 271.5,255.5 Z"/></g>
<g><path style="opacity:1" fill="#fc6f6f" d="M 198.5,328.5 C 212.323,327.504 226.323,327.171 240.5,327.5C 240.829,341.677 240.496,355.677 239.5,369.5C 239.5,355.833 239.5,342.167 239.5,328.5C 225.833,328.5 212.167,328.5 198.5,328.5 Z"/></g>
<g><path style="opacity:1" fill="#fb6e6e" d="M 275.5,327.5 C 288.011,327.171 300.345,327.505 312.5,328.5C 298.833,328.5 285.167,328.5 271.5,328.5C 271.5,342.167 271.5,355.833 271.5,369.5C 270.504,355.677 270.171,341.677 270.5,327.5C 272.167,327.5 273.833,327.5 275.5,327.5 Z"/></g>
<g><path style="opacity:1" fill="#fd6868" d="M 238.5,406.5 C 238.56,405.957 238.893,405.624 239.5,405.5C 240.499,416.146 240.832,426.813 240.5,437.5C 239.833,427.167 239.167,416.833 238.5,406.5 Z"/></g>
<g><path style="opacity:1" fill="#fd6868" d="M 272.5,406.5 C 271.833,416.833 271.167,427.167 270.5,437.5C 270.168,426.813 270.501,416.146 271.5,405.5C 272.107,405.624 272.44,405.957 272.5,406.5 Z"/></g>
</svg>
