<?xml version="1.0" standalone="no"?>
<!DOCTYPE svg PUBLIC "-//W3C//DTD SVG 20010904//EN"
 "http://www.w3.org/TR/2001/REC-SVG-20010904/DTD/svg10.dtd">
<svg version="1.0" xmlns="http://www.w3.org/2000/svg"
 width="74.000000pt" height="74.000000pt" viewBox="0 0 74.000000 74.000000"
 preserveAspectRatio="xMidYMid meet">

<g transform="translate(0.000000,74.000000) scale(0.100000,-0.100000)"
fill="#000000" stroke="none">
<path d="M276 529 l-26 -20 0 -149 0 -149 26 -20 c25 -19 40 -21 191 -21 161
0 164 0 188 25 24 23 25 29 25 165 0 136 -1 142 -25 165 -24 25 -27 25 -188
25 -151 0 -166 -2 -191 -21z"/>
<path d="M51 496 c-8 -9 -11 -56 -9 -141 4 -161 8 -166 103 -115 l65 35 0 85
0 85 -59 33 c-66 35 -83 39 -100 18z"/>
</g>
</svg>
