<?xml version="1.0" standalone="no"?>
<!DOCTYPE svg PUBLIC "-//W3C//DTD SVG 20010904//EN"
 "http://www.w3.org/TR/2001/REC-SVG-20010904/DTD/svg10.dtd">
<svg version="1.0" xmlns="http://www.w3.org/2000/svg"
 width="74.000000pt" height="74.000000pt" viewBox="0 0 74.000000 74.000000"
 preserveAspectRatio="xMidYMid meet">

<g transform="translate(0.000000,74.000000) scale(0.100000,-0.100000)"
fill="#000000" stroke="none">
<path d="M297 670 c-189 -48 -291 -260 -209 -435 55 -114 153 -177 282 -179
63 -1 84 4 131 27 67 32 132 100 162 165 46 106 17 250 -69 336 -73 73 -201
110 -297 86z m208 -305 l0 -130 -132 -3 -133 -3 0 136 0 136 133 -3 132 -3 0
-130z"/>
</g>
</svg>
