<?xml version="1.0" encoding="UTF-8"?>
<!DOCTYPE svg PUBLIC "-//W3C//DTD SVG 1.1//EN" "http://www.w3.org/Graphics/SVG/1.1/DTD/svg11.dtd">
<svg xmlns="http://www.w3.org/2000/svg" version="1.1" width="120px" height="177px" style="shape-rendering:geometricPrecision; text-rendering:geometricPrecision; image-rendering:optimizeQuality; fill-rule:evenodd; clip-rule:evenodd" xmlns:xlink="http://www.w3.org/1999/xlink">
<g><path style="opacity:0.027" fill="#b88965" d="M 64.5,5.5 C 69.8333,8.83333 74.1667,13.1667 77.5,18.5C 76.5,17.8333 75.5,17.1667 74.5,16.5C 71.1667,12.8333 67.8333,9.16667 64.5,5.5 Z"/></g>
<g><path style="opacity:0.365" fill="#aa805b" d="M 64.5,5.5 C 61.0411,4.35372 57.5411,3.35372 54,2.5C 51.7473,2.63126 49.5806,3.13126 47.5,4C 42.9715,7.36354 38.9715,11.1969 35.5,15.5C 37.8762,10.2848 41.5428,6.11811 46.5,3C 50.4065,1.566 54.4065,1.23266 58.5,2C 61.0254,2.42381 63.0254,3.59047 64.5,5.5 Z"/></g>
<g><path style="opacity:0.976" fill="#441a09" d="M 64.5,5.5 C 67.8333,9.16667 71.1667,12.8333 74.5,16.5C 71.7628,16.5987 69.0961,16.2653 66.5,15.5C 62.5809,5.90454 55.5809,3.07121 45.5,7C 41.8474,12.0722 38.3474,17.2389 35,22.5C 34.3292,23.2524 33.4959,23.5858 32.5,23.5C 33.5515,20.8069 34.5515,18.1402 35.5,15.5C 38.9715,11.1969 42.9715,7.36354 47.5,4C 49.5806,3.13126 51.7473,2.63126 54,2.5C 57.5411,3.35372 61.0411,4.35372 64.5,5.5 Z"/></g>
<g><path style="opacity:1" fill="#791c0d" d="M 57.5,9.5 C 54.3926,9.35123 51.3926,9.85123 48.5,11C 46.8588,12.129 45.8588,13.629 45.5,15.5C 44.1667,16.5 42.8333,17.5 41.5,18.5C 43.6351,12.6942 47.6351,9.02757 53.5,7.5C 55.3328,7.58544 56.6661,8.2521 57.5,9.5 Z"/></g>
<g><path style="opacity:1" fill="#bb2c1a" d="M 57.5,9.5 C 58.4916,9.32842 59.1583,9.66175 59.5,10.5C 63.8678,14.8666 67.8678,19.5333 71.5,24.5C 69.5,22.8333 67.5,21.1667 65.5,19.5C 64.2921,16.9558 62.2921,15.6225 59.5,15.5C 59.6399,13.8762 58.9733,12.7096 57.5,12C 51.9239,10.7459 48.5905,12.9126 47.5,18.5C 52.2189,17.5801 55.5522,19.2468 57.5,23.5C 57.7899,27.9362 57.2899,32.2695 56,36.5C 52.6659,40.0053 49.1659,40.3386 45.5,37.5C 54.6299,37.1703 57.7965,32.5037 55,23.5C 54.3292,22.7476 53.4959,22.4142 52.5,22.5C 52.1667,22.5 51.8333,22.5 51.5,22.5C 48.4045,21.0343 45.4045,21.3676 42.5,23.5C 41.4173,22.635 41.2506,21.635 42,20.5C 43.8022,19.2107 44.9688,17.5441 45.5,15.5C 45.8588,13.629 46.8588,12.129 48.5,11C 51.3926,9.85123 54.3926,9.35123 57.5,9.5 Z"/></g>
<g><path style="opacity:1" fill="#cb2813" d="M 65.5,19.5 C 65.5394,20.5832 65.8728,21.5832 66.5,22.5C 63.3796,23.7153 60.3796,24.0486 57.5,23.5C 55.5522,19.2468 52.2189,17.5801 47.5,18.5C 48.5905,12.9126 51.9239,10.7459 57.5,12C 58.9733,12.7096 59.6399,13.8762 59.5,15.5C 62.2921,15.6225 64.2921,16.9558 65.5,19.5 Z"/></g>
<g><path style="opacity:1" fill="#ca2915" d="M 65.5,19.5 C 67.5,21.1667 69.5,22.8333 71.5,24.5C 75.2333,28.8898 78.8999,33.2231 82.5,37.5C 82.9528,38.4584 83.6195,39.2917 84.5,40C 80.6131,40.2389 76.9464,41.0723 73.5,42.5C 72.0072,41.5549 70.5072,40.5549 69,39.5C 66.7486,40.0635 65.7486,41.3968 66,43.5C 67.4866,44.1552 68.6533,45.1552 69.5,46.5C 68.7643,48.5405 67.9309,50.5405 67,52.5C 65.5382,50.0119 64.5382,47.3452 64,44.5C 63.6667,44.8333 63.3333,45.1667 63,45.5C 62.1841,44.1772 61.0174,43.5106 59.5,43.5C 53.0506,42.2774 49.384,44.9441 48.5,51.5C 49.0953,53.7615 50.4286,55.4281 52.5,56.5C 52.5,56.8333 52.5,57.1667 52.5,57.5C 51.5655,58.5676 51.2322,59.901 51.5,61.5C 50.5,61.5 49.5,61.5 48.5,61.5C 46.8042,61.3146 45.4709,60.4813 44.5,59C 41.1119,58.3412 37.7786,58.5078 34.5,59.5C 35.7298,57.7028 36.3964,55.7028 36.5,53.5C 38.4846,53.1414 39.1513,52.308 38.5,51C 39.2529,49.513 40.0862,49.3463 41,50.5C 41.4828,49.552 41.6495,48.552 41.5,47.5C 43.4835,47.6168 45.1502,46.9501 46.5,45.5C 46.0264,41.6712 44.6931,38.3378 42.5,35.5C 43.5,36.1667 44.5,36.8333 45.5,37.5C 49.1659,40.3386 52.6659,40.0053 56,36.5C 57.2899,32.2695 57.7899,27.9362 57.5,23.5C 60.3796,24.0486 63.3796,23.7153 66.5,22.5C 65.8728,21.5832 65.5394,20.5832 65.5,19.5 Z"/></g>
<g><path style="opacity:1" fill="#ab3320" d="M 45.5,15.5 C 44.9688,17.5441 43.8022,19.2107 42,20.5C 41.2506,21.635 41.4173,22.635 42.5,23.5C 45.4045,21.3676 48.4045,21.0343 51.5,22.5C 47.406,21.7046 44.2393,23.038 42,26.5C 41.2204,28.3869 41.3871,30.0536 42.5,31.5C 43.9616,32.4577 45.2949,33.6244 46.5,35C 48.9894,35.9411 50.9894,35.4411 52.5,33.5C 53.1174,33.3893 53.6174,33.056 54,32.5C 54.963,28.8513 54.463,25.518 52.5,22.5C 53.4959,22.4142 54.3292,22.7476 55,23.5C 57.7965,32.5037 54.6299,37.1703 45.5,37.5C 44.5,36.8333 43.5,36.1667 42.5,35.5C 42.1667,35.5 41.8333,35.5 41.5,35.5C 39.2718,25.0332 37.1051,25.0332 35,35.5C 32.1024,39.7211 30.1024,44.3878 29,49.5C 27.9609,50.7101 26.7942,51.7101 25.5,52.5C 28.6348,40.9835 33.1348,29.9835 39,19.5C 39.6708,18.7476 40.5041,18.4142 41.5,18.5C 42.8333,17.5 44.1667,16.5 45.5,15.5 Z"/></g>
<g><path style="opacity:1" fill="#f5ab98" d="M 51.5,22.5 C 51.8333,22.5 52.1667,22.5 52.5,22.5C 54.463,25.518 54.963,28.8513 54,32.5C 53.6174,33.056 53.1174,33.3893 52.5,33.5C 55.5908,25.9752 53.2575,23.1418 45.5,25C 43.0807,26.5088 42.0807,28.6755 42.5,31.5C 41.3871,30.0536 41.2204,28.3869 42,26.5C 44.2393,23.038 47.406,21.7046 51.5,22.5 Z"/></g>
<g><path style="opacity:0.722" fill="#a27652" d="M 35.5,15.5 C 34.5515,18.1402 33.5515,20.8069 32.5,23.5C 30.5987,28.3023 27.932,32.6357 24.5,36.5C 27.4056,29.019 31.0723,22.019 35.5,15.5 Z"/></g>
<g><path style="opacity:1" fill="#fce1d0" d="M 52.5,33.5 C 50.9894,35.4411 48.9894,35.9411 46.5,35C 45.2949,33.6244 43.9616,32.4577 42.5,31.5C 42.0807,28.6755 43.0807,26.5088 45.5,25C 53.2575,23.1418 55.5908,25.9752 52.5,33.5 Z"/></g>
<g><path style="opacity:1" fill="#4a1706" d="M 66.5,15.5 C 69.0961,16.2653 71.7628,16.5987 74.5,16.5C 75.5,17.1667 76.5,17.8333 77.5,18.5C 84.9266,28.2627 93.5933,36.596 103.5,43.5C 105.316,46.7897 107.816,49.4564 111,51.5C 111.667,54.1667 111.667,56.8333 111,59.5C 110.617,60.056 110.117,60.3893 109.5,60.5C 109.808,58.076 109.474,55.7427 108.5,53.5C 101.921,46.8904 94.5878,41.5571 86.5,37.5C 79.664,30.4098 72.9974,23.0765 66.5,15.5 Z"/></g>
<g><path style="opacity:1" fill="#4f1706" d="M 66.5,15.5 C 64.4268,13.4202 62.0934,11.7536 59.5,10.5C 59.1583,9.66175 58.4916,9.32842 57.5,9.5C 56.6661,8.2521 55.3328,7.58544 53.5,7.5C 47.6351,9.02757 43.6351,12.6942 41.5,18.5C 40.5041,18.4142 39.6708,18.7476 39,19.5C 33.1348,29.9835 28.6348,40.9835 25.5,52.5C 21.9261,55.4627 18.9261,58.9627 16.5,63C 11.8383,64.1558 9.17159,66.9891 8.5,71.5C 8.58544,73.3328 9.2521,74.6661 10.5,75.5C 10.9528,76.4584 11.6195,77.2917 12.5,78C 20.1128,79.2616 27.7795,79.7616 35.5,79.5C 27.2884,80.844 18.9551,80.6774 10.5,79C 9.42138,78.044 8.25471,77.2106 7,76.5C 6.24009,72.7745 6.40676,69.1078 7.5,65.5C 7.04311,64.7025 6.37644,64.3691 5.5,64.5C 5.5,64.1667 5.5,63.8333 5.5,63.5C 7.74876,62.9202 9.41543,61.5869 10.5,59.5C 10.5,58.8333 10.8333,58.5 11.5,58.5C 16.1111,54.8851 19.1111,50.2184 20.5,44.5C 22.873,42.4208 24.2064,39.7541 24.5,36.5C 27.932,32.6357 30.5987,28.3023 32.5,23.5C 33.4959,23.5858 34.3292,23.2524 35,22.5C 38.3474,17.2389 41.8474,12.0722 45.5,7C 55.5809,3.07121 62.5809,5.90454 66.5,15.5 Z"/></g>
<g><path style="opacity:1" fill="#9b2a17" d="M 59.5,10.5 C 62.0934,11.7536 64.4268,13.4202 66.5,15.5C 72.9974,23.0765 79.664,30.4098 86.5,37.5C 85.1667,37.5 83.8333,37.5 82.5,37.5C 78.8999,33.2231 75.2333,28.8898 71.5,24.5C 67.8678,19.5333 63.8678,14.8666 59.5,10.5 Z"/></g>
<g><path style="opacity:1" fill="#b73121" d="M 82.5,37.5 C 83.8333,37.5 85.1667,37.5 86.5,37.5C 87.2485,39.3325 88.2485,40.9991 89.5,42.5C 88.9569,42.56 88.6236,42.8933 88.5,43.5C 91.9481,49.3233 90.9481,54.1567 85.5,58C 80.7366,59.0339 76.4033,58.2006 72.5,55.5C 72.1667,55.5 71.8333,55.5 71.5,55.5C 69.9369,50.7711 70.6036,46.4378 73.5,42.5C 76.9464,41.0723 80.6131,40.2389 84.5,40C 83.6195,39.2917 82.9528,38.4584 82.5,37.5 Z"/></g>
<g><path style="opacity:1" fill="#cc2812" d="M 41.5,35.5 C 41.8333,35.5 42.1667,35.5 42.5,35.5C 44.6931,38.3378 46.0264,41.6712 46.5,45.5C 45.1502,46.9501 43.4835,47.6168 41.5,47.5C 41.6495,48.552 41.4828,49.552 41,50.5C 40.0862,49.3463 39.2529,49.513 38.5,51C 39.1513,52.308 38.4846,53.1414 36.5,53.5C 33.8872,52.6081 33.2205,50.9414 34.5,48.5C 30.8772,46.6529 31.2105,44.9862 35.5,43.5C 37.4251,43.5904 38.5917,44.5904 39,46.5C 41.3954,44.919 41.8954,42.919 40.5,40.5C 36.0677,38.8209 35.5677,36.4876 39,33.5C 39.4169,34.756 40.2502,35.4226 41.5,35.5 Z"/></g>
<g><path style="opacity:0.165" fill="#c89772" d="M 24.5,36.5 C 24.2064,39.7541 22.873,42.4208 20.5,44.5C 21.3257,41.5152 22.659,38.8485 24.5,36.5 Z"/></g>
<g><path style="opacity:1" fill="#f4b1a0" d="M 85.5,53.5 C 86.6489,50.9592 86.6489,48.4592 85.5,46C 82.1064,45.2483 78.773,45.4149 75.5,46.5C 74.4877,52.4991 77.1543,55.4991 83.5,55.5C 81.7116,56.6225 79.7116,56.7891 77.5,56C 70.0171,49.3642 71.0171,44.8642 80.5,42.5C 82.6152,43.0787 84.6152,43.9121 86.5,45C 87.1078,46.231 87.4411,47.5643 87.5,49C 87.6932,51.0081 87.0265,52.5081 85.5,53.5 Z"/></g>
<g><path style="opacity:1" fill="#a02b19" d="M 86.5,37.5 C 94.5878,41.5571 101.921,46.8904 108.5,53.5C 109.474,55.7427 109.808,58.076 109.5,60.5C 105.204,63.3145 100.538,65.6479 95.5,67.5C 90.0869,68.0824 84.7536,69.0824 79.5,70.5C 79.5,70.1667 79.5,69.8333 79.5,69.5C 84.6288,67.7988 89.9622,66.2988 95.5,65C 99.1128,62.3608 103.113,60.5275 107.5,59.5C 108.041,56.3484 107.041,53.8484 104.5,52C 99.4437,48.8118 94.4437,45.6452 89.5,42.5C 88.2485,40.9991 87.2485,39.3325 86.5,37.5 Z"/></g>
<g><path style="opacity:0.094" fill="#aa7b58" d="M 77.5,18.5 C 86.3484,28.5853 96.6817,36.752 108.5,43C 113.671,46.6533 117.004,51.4867 118.5,57.5C 118.343,61.1541 116.676,63.8207 113.5,65.5C 115.179,63.3045 116.179,60.8045 116.5,58C 115.152,50.4859 110.819,45.6526 103.5,43.5C 93.5933,36.596 84.9266,28.2627 77.5,18.5 Z"/></g>
<g><path style="opacity:0.243" fill="#ab7d5b" d="M 20.5,44.5 C 19.1111,50.2184 16.1111,54.8851 11.5,58.5C 14.5076,53.8283 17.5076,49.1616 20.5,44.5 Z"/></g>
<g><path style="opacity:1" fill="#fbcab9" d="M 61.5,47.5 C 61.5,49.1667 61.5,50.8333 61.5,52.5C 58.8375,54.2681 55.8375,54.9347 52.5,54.5C 51.2082,46.7661 54.2082,44.4327 61.5,47.5 Z"/></g>
<g><path style="opacity:1" fill="#c52916" d="M 73.5,42.5 C 70.6036,46.4378 69.9369,50.7711 71.5,55.5C 69.9826,55.4894 68.8159,54.8228 68,53.5C 65.6222,54.9107 63.1222,56.0774 60.5,57C 58.8659,57.4935 57.1992,57.6602 55.5,57.5C 55.9492,59.9775 55.2825,61.9775 53.5,63.5C 52.5344,61.604 52.2011,59.604 52.5,57.5C 52.5,57.1667 52.5,56.8333 52.5,56.5C 54.8568,56.6633 57.1902,56.4966 59.5,56C 60.8228,55.1841 61.4894,54.0174 61.5,52.5C 61.5,50.8333 61.5,49.1667 61.5,47.5C 61.2671,45.9382 60.6005,44.6049 59.5,43.5C 61.0174,43.5106 62.1841,44.1772 63,45.5C 63.3333,45.1667 63.6667,44.8333 64,44.5C 64.5382,47.3452 65.5382,50.0119 67,52.5C 67.9309,50.5405 68.7643,48.5405 69.5,46.5C 68.6533,45.1552 67.4866,44.1552 66,43.5C 65.7486,41.3968 66.7486,40.0635 69,39.5C 70.5072,40.5549 72.0072,41.5549 73.5,42.5 Z"/></g>
<g><path style="opacity:1" fill="#c82812" d="M 41.5,35.5 C 40.2502,35.4226 39.4169,34.756 39,33.5C 35.5677,36.4876 36.0677,38.8209 40.5,40.5C 41.8954,42.919 41.3954,44.919 39,46.5C 38.5917,44.5904 37.4251,43.5904 35.5,43.5C 31.2105,44.9862 30.8772,46.6529 34.5,48.5C 33.2205,50.9414 33.8872,52.6081 36.5,53.5C 36.3964,55.7028 35.7298,57.7028 34.5,59.5C 33.8333,60.1667 33.1667,60.8333 32.5,61.5C 29.083,63.8913 27.7497,67.2246 28.5,71.5C 27.6938,68.7435 26.0272,66.5768 23.5,65C 24.4566,62.7191 23.7899,60.8857 21.5,59.5C 24.0926,57.9921 25.4259,55.6587 25.5,52.5C 26.7942,51.7101 27.9609,50.7101 29,49.5C 30.1024,44.3878 32.1024,39.7211 35,35.5C 37.1051,25.0332 39.2718,25.0332 41.5,35.5 Z"/></g>
<g><path style="opacity:1" fill="#b93625" d="M 59.5,43.5 C 60.6005,44.6049 61.2671,45.9382 61.5,47.5C 54.2082,44.4327 51.2082,46.7661 52.5,54.5C 55.8375,54.9347 58.8375,54.2681 61.5,52.5C 61.4894,54.0174 60.8228,55.1841 59.5,56C 57.1902,56.4966 54.8568,56.6633 52.5,56.5C 50.4286,55.4281 49.0953,53.7615 48.5,51.5C 49.384,44.9441 53.0506,42.2774 59.5,43.5 Z"/></g>
<g><path style="opacity:1" fill="#fbe3d3" d="M 85.5,53.5 C 85.1667,54.5 84.5,55.1667 83.5,55.5C 77.1543,55.4991 74.4877,52.4991 75.5,46.5C 78.773,45.4149 82.1064,45.2483 85.5,46C 86.6489,48.4592 86.6489,50.9592 85.5,53.5 Z"/></g>
<g><path style="opacity:1" fill="#441908" d="M 103.5,43.5 C 110.819,45.6526 115.152,50.4859 116.5,58C 116.179,60.8045 115.179,63.3045 113.5,65.5C 110.669,66.0787 108.336,67.412 106.5,69.5C 105.07,70.5375 103.403,71.2041 101.5,71.5C 99.7085,71.366 98.0418,71.6993 96.5,72.5C 95.7387,71.6091 94.7387,70.9424 93.5,70.5C 90.8189,72.3071 88.1522,72.9738 85.5,72.5C 89.2444,71.2947 92.5778,69.6281 95.5,67.5C 100.538,65.6479 105.204,63.3145 109.5,60.5C 110.117,60.3893 110.617,60.056 111,59.5C 111.667,56.8333 111.667,54.1667 111,51.5C 107.816,49.4564 105.316,46.7897 103.5,43.5 Z"/></g>
<g><path style="opacity:1" fill="#cb2813" d="M 71.5,55.5 C 71.8333,55.5 72.1667,55.5 72.5,55.5C 72.5191,57.0603 72.8524,58.5603 73.5,60C 72.9777,60.9503 72.311,61.7836 71.5,62.5C 74.0353,62.6314 76.5353,62.6314 79,62.5C 79.7805,63.9437 79.6139,65.277 78.5,66.5C 69.1123,70.0457 59.4456,71.879 49.5,72C 50.056,71.6174 50.3893,71.1174 50.5,70.5C 51.1239,70.0831 51.4573,69.4164 51.5,68.5C 50.2326,66.2967 49.2326,63.9633 48.5,61.5C 49.5,61.5 50.5,61.5 51.5,61.5C 51.2322,59.901 51.5655,58.5676 52.5,57.5C 52.2011,59.604 52.5344,61.604 53.5,63.5C 55.2825,61.9775 55.9492,59.9775 55.5,57.5C 57.1992,57.6602 58.8659,57.4935 60.5,57C 63.1222,56.0774 65.6222,54.9107 68,53.5C 68.8159,54.8228 69.9826,55.4894 71.5,55.5 Z"/></g>
<g><path style="opacity:1" fill="#c72914" d="M 89.5,42.5 C 94.4437,45.6452 99.4437,48.8118 104.5,52C 107.041,53.8484 108.041,56.3484 107.5,59.5C 103.113,60.5275 99.1128,62.3608 95.5,65C 89.9622,66.2988 84.6288,67.7988 79.5,69.5C 69.0888,70.8915 58.7554,72.5581 48.5,74.5C 48.1568,72.5168 48.8235,71.1834 50.5,70.5C 50.3893,71.1174 50.056,71.6174 49.5,72C 59.4456,71.879 69.1123,70.0457 78.5,66.5C 79.6139,65.277 79.7805,63.9437 79,62.5C 76.5353,62.6314 74.0353,62.6314 71.5,62.5C 72.311,61.7836 72.9777,60.9503 73.5,60C 72.8524,58.5603 72.5191,57.0603 72.5,55.5C 76.4033,58.2006 80.7366,59.0339 85.5,58C 90.9481,54.1567 91.9481,49.3233 88.5,43.5C 88.6236,42.8933 88.9569,42.56 89.5,42.5 Z"/></g>
<g><path style="opacity:0.369" fill="#ac7a56" d="M 10.5,59.5 C 9.41543,61.5869 7.74876,62.9202 5.5,63.5C 6.58457,61.4131 8.25124,60.0798 10.5,59.5 Z"/></g>
<g><path style="opacity:1" fill="#cc2813" d="M 21.5,59.5 C 23.7899,60.8857 24.4566,62.7191 23.5,65C 26.0272,66.5768 27.6938,68.7435 28.5,71.5C 28.67,72.8221 28.3366,73.9887 27.5,75C 22.3277,75.8019 17.3277,75.3019 12.5,73.5C 12.1667,69.1667 14.1667,67.1667 18.5,67.5C 18.6031,64.3642 19.6031,61.6975 21.5,59.5 Z"/></g>
<g><path style="opacity:0.129" fill="#b28363" d="M 113.5,65.5 C 111.664,67.588 109.331,68.9213 106.5,69.5C 108.336,67.412 110.669,66.0787 113.5,65.5 Z"/></g>
<g><path style="opacity:0.373" fill="#a1714c" d="M 5.5,63.5 C 5.5,63.8333 5.5,64.1667 5.5,64.5C 0.166667,69.5 0.166667,74.5 5.5,79.5C 2.4675,78.4676 0.467496,76.4676 -0.5,73.5C -0.5,72.5 -0.5,71.5 -0.5,70.5C 0.776524,67.5561 2.77652,65.2227 5.5,63.5 Z"/></g>
<g><path style="opacity:1" fill="#ae3423" d="M 48.5,61.5 C 49.2326,63.9633 50.2326,66.2967 51.5,68.5C 51.4573,69.4164 51.1239,70.0831 50.5,70.5C 48.8235,71.1834 48.1568,72.5168 48.5,74.5C 58.7554,72.5581 69.0888,70.8915 79.5,69.5C 79.5,69.8333 79.5,70.1667 79.5,70.5C 66.1921,73.3841 52.8588,76.0507 39.5,78.5C 37.901,78.2322 36.5676,78.5655 35.5,79.5C 27.7795,79.7616 20.1128,79.2616 12.5,78C 11.6195,77.2917 10.9528,76.4584 10.5,75.5C 18.2965,77.4817 26.2965,77.9817 34.5,77C 34.8333,76.6667 35.1667,76.3333 35.5,76C 33.6243,75.0816 32.6243,73.5816 32.5,71.5C 31.761,68.3485 31.761,65.0151 32.5,61.5C 33.1667,60.8333 33.8333,60.1667 34.5,59.5C 37.7786,58.5078 41.1119,58.3412 44.5,59C 45.4709,60.4813 46.8042,61.3146 48.5,61.5 Z"/></g>
<g><path style="opacity:1" fill="#fcd5c2" d="M 42.5,63.5 C 36.0951,62.4062 33.7618,65.0729 35.5,71.5C 38.1667,71.5 40.8333,71.5 43.5,71.5C 43.5,68.8333 43.5,66.1667 43.5,63.5C 44.7498,63.5774 45.5831,64.244 46,65.5C 47.4056,71.317 45.0723,74.317 39,74.5C 36.2884,74.6088 34.1217,73.6088 32.5,71.5C 32.0067,65.2337 34.6733,61.7337 40.5,61C 41.3805,61.7083 42.0472,62.5416 42.5,63.5 Z"/></g>
<g><path style="opacity:1" fill="#f8ecdb" d="M 42.5,63.5 C 42.8333,63.5 43.1667,63.5 43.5,63.5C 43.5,66.1667 43.5,68.8333 43.5,71.5C 40.8333,71.5 38.1667,71.5 35.5,71.5C 33.7618,65.0729 36.0951,62.4062 42.5,63.5 Z"/></g>
<g><path style="opacity:1" fill="#551405" d="M 95.5,67.5 C 92.5778,69.6281 89.2444,71.2947 85.5,72.5C 79.4838,72.7618 73.8171,74.2618 68.5,77C 65.1832,77.4983 61.8499,77.665 58.5,77.5C 52.1846,78.1095 45.8513,78.4428 39.5,78.5C 52.8588,76.0507 66.1921,73.3841 79.5,70.5C 84.7536,69.0824 90.0869,68.0824 95.5,67.5 Z"/></g>
<g><path style="opacity:1" fill="#bd2c1b" d="M 25.5,52.5 C 25.4259,55.6587 24.0926,57.9921 21.5,59.5C 19.6031,61.6975 18.6031,64.3642 18.5,67.5C 14.1667,67.1667 12.1667,69.1667 12.5,73.5C 17.3277,75.3019 22.3277,75.8019 27.5,75C 28.3366,73.9887 28.67,72.8221 28.5,71.5C 27.7497,67.2246 29.083,63.8913 32.5,61.5C 31.761,65.0151 31.761,68.3485 32.5,71.5C 32.6243,73.5816 33.6243,75.0816 35.5,76C 35.1667,76.3333 34.8333,76.6667 34.5,77C 26.2965,77.9817 18.2965,77.4817 10.5,75.5C 9.2521,74.6661 8.58544,73.3328 8.5,71.5C 9.17159,66.9891 11.8383,64.1558 16.5,63C 18.9261,58.9627 21.9261,55.4627 25.5,52.5 Z"/></g>
<g><path style="opacity:0.953" fill="#451504" d="M 5.5,64.5 C 6.37644,64.3691 7.04311,64.7025 7.5,65.5C 6.40676,69.1078 6.24009,72.7745 7,76.5C 8.25471,77.2106 9.42138,78.044 10.5,79C 18.9551,80.6774 27.2884,80.844 35.5,79.5C 36.5676,78.5655 37.901,78.2322 39.5,78.5C 45.8513,78.4428 52.1846,78.1095 58.5,77.5C 53.0965,79.1181 47.4298,79.9515 41.5,80C 38.2258,83.2162 34.2258,84.3829 29.5,83.5C 25.8333,83.5 22.1667,83.5 18.5,83.5C 14.4163,81.6736 10.083,80.3403 5.5,79.5C 0.166667,74.5 0.166667,69.5 5.5,64.5 Z"/></g>
<g><path style="opacity:0.982" fill="#421e11" d="M 96.5,72.5 C 94.1944,72.9926 91.861,73.3259 89.5,73.5C 89.9919,75.8409 91.1585,77.8409 93,79.5C 93.6667,81.8333 93.6667,84.1667 93,86.5C 89.2156,87.6356 86.0489,89.6356 83.5,92.5C 82.4168,92.5394 81.4168,92.8728 80.5,93.5C 79.3166,97.1747 79.3166,100.841 80.5,104.5C 80.6567,105.873 80.49,107.207 80,108.5C 79.7216,107.584 79.2216,106.918 78.5,106.5C 78.5988,103.327 77.9322,100.327 76.5,97.5C 77.5639,93.6043 79.8973,90.771 83.5,89C 82.552,88.5172 81.552,88.3505 80.5,88.5C 92.744,83.2495 92.0774,79.5829 78.5,77.5C 73.492,78.1688 68.492,78.8355 63.5,79.5C 58.7847,79.506 54.118,80.006 49.5,81C 48.944,81.3826 48.6107,81.8826 48.5,82.5C 43.9509,82.2689 40.9509,84.2689 39.5,88.5C 41.2887,93.4041 44.6221,94.7374 49.5,92.5C 50.0768,94.6516 51.2435,94.985 53,93.5C 53.4828,94.448 53.6495,95.448 53.5,96.5C 50.911,96.461 48.911,97.461 47.5,99.5C 45.3718,100.629 43.0385,100.796 40.5,100C 38.1019,98.4758 35.7686,96.9758 33.5,95.5C 33.0183,94.5837 32.685,93.5837 32.5,92.5C 33.1869,90.8228 33.8535,89.1561 34.5,87.5C 34.8039,86.8501 35.1373,86.1835 35.5,85.5C 33.3691,84.8313 31.3691,84.1646 29.5,83.5C 34.2258,84.3829 38.2258,83.2162 41.5,80C 47.4298,79.9515 53.0965,79.1181 58.5,77.5C 61.8499,77.665 65.1832,77.4983 68.5,77C 73.8171,74.2618 79.4838,72.7618 85.5,72.5C 88.1522,72.9738 90.8189,72.3071 93.5,70.5C 94.7387,70.9424 95.7387,71.6091 96.5,72.5 Z"/></g>
<g><path style="opacity:0.549" fill="#7a4e30" d="M 5.5,79.5 C 10.083,80.3403 14.4163,81.6736 18.5,83.5C 13.7112,83.3462 9.37785,82.0129 5.5,79.5 Z"/></g>
<g><path style="opacity:1" fill="#927b70" d="M 63.5,79.5 C 58.6691,80.7679 53.6691,81.7679 48.5,82.5C 48.6107,81.8826 48.944,81.3826 49.5,81C 54.118,80.006 58.7847,79.506 63.5,79.5 Z"/></g>
<g><path style="opacity:1" fill="#f1e1d4" d="M 80.5,88.5 C 76.774,88.1774 73.1073,88.5108 69.5,89.5C 67.4566,91.0454 65.29,92.3787 63,93.5C 60.5232,92.0307 57.8565,91.0307 55,90.5C 52.7794,90.3932 50.9461,91.0598 49.5,92.5C 44.6221,94.7374 41.2887,93.4041 39.5,88.5C 40.9509,84.2689 43.9509,82.2689 48.5,82.5C 53.6691,81.7679 58.6691,80.7679 63.5,79.5C 68.492,78.8355 73.492,78.1688 78.5,77.5C 92.0774,79.5829 92.744,83.2495 80.5,88.5 Z"/></g>
<g><path style="opacity:0.067" fill="#af8568" d="M 18.5,83.5 C 22.1667,83.5 25.8333,83.5 29.5,83.5C 31.3691,84.1646 33.3691,84.8313 35.5,85.5C 35.1373,86.1835 34.8039,86.8501 34.5,87.5C 33.5,88.1667 32.5,88.8333 31.5,89.5C 31.5106,87.9826 32.1772,86.8159 33.5,86C 28.3572,85.1617 23.3572,84.3284 18.5,83.5 Z"/></g>
<g><path style="opacity:0.463" fill="#95664c" d="M 101.5,71.5 C 98.2972,72.5546 95.2972,74.0546 92.5,76C 95.0955,79.0692 95.9289,82.5692 95,86.5C 91.5066,89.1632 87.6733,91.1632 83.5,92.5C 86.0489,89.6356 89.2156,87.6356 93,86.5C 93.6667,84.1667 93.6667,81.8333 93,79.5C 91.1585,77.8409 89.9919,75.8409 89.5,73.5C 91.861,73.3259 94.1944,72.9926 96.5,72.5C 98.0418,71.6993 99.7085,71.366 101.5,71.5 Z"/></g>
<g><path style="opacity:0.459" fill="#744730" d="M 34.5,87.5 C 33.8535,89.1561 33.1869,90.8228 32.5,92.5C 32.685,93.5837 33.0183,94.5837 33.5,95.5C 32.5041,95.5858 31.6708,95.2524 31,94.5C 30.2204,92.6131 30.3871,90.9464 31.5,89.5C 32.5,88.8333 33.5,88.1667 34.5,87.5 Z"/></g>
<g><path style="opacity:0.282" fill="#9c7051" d="M 83.5,92.5 C 80.5268,96.0948 79.8601,100.095 81.5,104.5C 81.1667,104.5 80.8333,104.5 80.5,104.5C 79.3166,100.841 79.3166,97.1747 80.5,93.5C 81.4168,92.8728 82.4168,92.5394 83.5,92.5 Z"/></g>
<g><path style="opacity:1" fill="#765f56" d="M 66.5,98.5 C 64.3926,99.4682 62.0593,99.8016 59.5,99.5C 59.5,100.5 59.5,101.5 59.5,102.5C 59.5,103.5 59.5,104.5 59.5,105.5C 59.5,106.833 59.5,108.167 59.5,109.5C 58.5184,106.038 58.185,102.371 58.5,98.5C 61.1667,98.5 63.8333,98.5 66.5,98.5 Z"/></g>
<g><path style="opacity:1" fill="#f7e7d8" d="M 74.5,98.5 C 74.59,100.696 74.9233,102.863 75.5,105C 75.1382,106.434 74.4715,107.601 73.5,108.5C 72.5,108.5 71.5,108.5 70.5,108.5C 70.7678,110.099 70.4345,111.432 69.5,112.5C 66.9493,110.422 65.116,107.756 64,104.5C 62.7769,113.522 61.7769,113.189 61,103.5C 60.6174,102.944 60.1174,102.611 59.5,102.5C 59.5,101.5 59.5,100.5 59.5,99.5C 62.0593,99.8016 64.3926,99.4682 66.5,98.5C 68.4788,97.1879 70.1455,95.5212 71.5,93.5C 72.9524,94.9397 73.9524,96.6064 74.5,98.5 Z"/></g>
<g><path style="opacity:1" fill="#402015" d="M 80.5,88.5 C 81.552,88.3505 82.552,88.5172 83.5,89C 79.8973,90.771 77.5639,93.6043 76.5,97.5C 77.9322,100.327 78.5988,103.327 78.5,106.5C 78.1667,106.5 77.8333,106.5 77.5,106.5C 76.7949,103.646 75.7949,100.979 74.5,98.5C 73.9524,96.6064 72.9524,94.9397 71.5,93.5C 70.1455,95.5212 68.4788,97.1879 66.5,98.5C 63.8333,98.5 61.1667,98.5 58.5,98.5C 58.185,102.371 58.5184,106.038 59.5,109.5C 59.5,109.833 59.5,110.167 59.5,110.5C 58.0118,118.933 58.3451,127.433 60.5,136C 59.9221,137.811 59.4221,139.645 59,141.5C 58.1698,129.518 57.6698,129.518 57.5,141.5C 56.1689,126.636 54.8356,111.636 53.5,96.5C 53.6495,95.448 53.4828,94.448 53,93.5C 51.2435,94.985 50.0768,94.6516 49.5,92.5C 50.9461,91.0598 52.7794,90.3932 55,90.5C 57.8565,91.0307 60.5232,92.0307 63,93.5C 65.29,92.3787 67.4566,91.0454 69.5,89.5C 73.1073,88.5108 76.774,88.1774 80.5,88.5 Z"/></g>
<g><path style="opacity:0.498" fill="#916347" d="M 81.5,104.5 C 83.7282,109.983 85.7282,115.65 87.5,121.5C 85.4409,118.389 83.6076,115.056 82,111.5C 81.5034,109.19 81.3367,106.857 81.5,104.5 Z"/></g>
<g><path style="opacity:1" fill="#fae9dd" d="M 59.5,102.5 C 60.1174,102.611 60.6174,102.944 61,103.5C 61.7769,113.189 62.7769,113.522 64,104.5C 65.116,107.756 66.9493,110.422 69.5,112.5C 68.5401,113.283 67.8735,114.45 67.5,116C 67.5944,118.954 68.0944,119.121 69,116.5C 69.4333,118.664 68.9333,120.664 67.5,122.5C 67.8783,124.717 68.545,126.717 69.5,128.5C 69.3601,130.124 70.0267,131.29 71.5,132C 70.7476,132.671 70.4142,133.504 70.5,134.5C 69.5,134.167 68.8333,133.5 68.5,132.5C 66.3926,131.532 64.0593,131.198 61.5,131.5C 61.8033,122.611 61.1367,113.944 59.5,105.5C 59.5,104.5 59.5,103.5 59.5,102.5 Z"/></g>
<g><path style="opacity:1" fill="#432214" d="M 80.5,104.5 C 80.8333,104.5 81.1667,104.5 81.5,104.5C 81.3367,106.857 81.5034,109.19 82,111.5C 83.6076,115.056 85.4409,118.389 87.5,121.5C 90.3093,126.805 92.3093,132.472 93.5,138.5C 92.6252,136.432 91.4585,134.432 90,132.5C 90.3052,134.443 90.3052,136.443 90,138.5C 89.4462,135.492 87.9462,134.492 85.5,135.5C 83.9213,125.517 81.2546,115.85 77.5,106.5C 77.8333,106.5 78.1667,106.5 78.5,106.5C 79.2216,106.918 79.7216,107.584 80,108.5C 80.49,107.207 80.6567,105.873 80.5,104.5 Z"/></g>
<g><path style="opacity:1" fill="#c7b2a8" d="M 59.5,105.5 C 61.1367,113.944 61.8033,122.611 61.5,131.5C 64.0593,131.198 66.3926,131.532 68.5,132.5C 65.8333,132.5 63.1667,132.5 60.5,132.5C 60.3709,125.155 60.0375,117.822 59.5,110.5C 59.5,110.167 59.5,109.833 59.5,109.5C 59.5,108.167 59.5,106.833 59.5,105.5 Z"/></g>
<g><path style="opacity:1" fill="#faeddd" d="M 73.5,108.5 C 74.1481,110.086 74.6481,111.753 75,113.5C 75.9978,110.972 76.8311,110.972 77.5,113.5C 77.0603,115.765 76.3936,117.932 75.5,120C 76.0219,120.561 76.3552,121.228 76.5,122C 74.5805,124.593 73.0805,127.426 72,130.5C 71.2917,129.619 70.4584,128.953 69.5,128.5C 68.545,126.717 67.8783,124.717 67.5,122.5C 68.9333,120.664 69.4333,118.664 69,116.5C 68.0944,119.121 67.5944,118.954 67.5,116C 67.8735,114.45 68.5401,113.283 69.5,112.5C 70.4345,111.432 70.7678,110.099 70.5,108.5C 71.5,108.5 72.5,108.5 73.5,108.5 Z"/></g>
<g><path style="opacity:1" fill="#f0e1d2" d="M 74.5,98.5 C 75.7949,100.979 76.7949,103.646 77.5,106.5C 81.2546,115.85 83.9213,125.517 85.5,135.5C 78.5311,134.981 73.8645,137.981 71.5,144.5C 70.513,141.232 70.1796,137.898 70.5,134.5C 70.4142,133.504 70.7476,132.671 71.5,132C 70.0267,131.29 69.3601,130.124 69.5,128.5C 70.4584,128.953 71.2917,129.619 72,130.5C 73.0805,127.426 74.5805,124.593 76.5,122C 76.3552,121.228 76.0219,120.561 75.5,120C 76.3936,117.932 77.0603,115.765 77.5,113.5C 76.8311,110.972 75.9978,110.972 75,113.5C 74.6481,111.753 74.1481,110.086 73.5,108.5C 74.4715,107.601 75.1382,106.434 75.5,105C 74.9233,102.863 74.59,100.696 74.5,98.5 Z"/></g>
<g><path style="opacity:1" fill="#351d14" d="M 59.5,110.5 C 60.0375,117.822 60.3709,125.155 60.5,132.5C 63.1667,132.5 65.8333,132.5 68.5,132.5C 68.8333,133.5 69.5,134.167 70.5,134.5C 70.1796,137.898 70.513,141.232 71.5,144.5C 73.8645,137.981 78.5311,134.981 85.5,135.5C 85.3287,138.797 85.9954,139.131 87.5,136.5C 88.7112,137.274 88.7112,138.107 87.5,139C 88.4158,139.278 89.0825,139.778 89.5,140.5C 86.8127,140.336 84.146,140.503 81.5,141C 80.244,141.417 79.5774,142.25 79.5,143.5C 78.5,143.833 77.8333,144.5 77.5,145.5C 75.7655,147.235 73.7655,148.568 71.5,149.5C 69.9271,149.248 68.5938,148.582 67.5,147.5C 67.3215,144.784 66.8215,142.117 66,139.5C 65.2904,138.027 64.1238,137.36 62.5,137.5C 61.7321,138.263 61.2321,139.263 61,140.5C 60.501,144.821 60.3343,149.154 60.5,153.5C 60.631,154.239 60.4643,154.906 60,155.5C 59.7216,154.584 59.2216,153.918 58.5,153.5C 58.1667,149.5 57.8333,145.5 57.5,141.5C 57.6698,129.518 58.1698,129.518 59,141.5C 59.4221,139.645 59.9221,137.811 60.5,136C 58.3451,127.433 58.0118,118.933 59.5,110.5 Z"/></g>
<g><path style="opacity:1" fill="#3f1b10" d="M 93.5,138.5 C 94.5079,145.472 94.6745,152.472 94,159.5C 92.4086,161.927 91.5752,164.593 91.5,167.5C 91.1667,168.167 90.8333,168.833 90.5,169.5C 87.8024,169.908 85.469,171.074 83.5,173C 77.0199,173.848 70.6865,173.348 64.5,171.5C 61.5964,167.285 60.4298,162.619 61,157.5C 61.2321,158.737 61.7321,159.737 62.5,160.5C 64.9051,164.068 67.9051,167.235 71.5,170C 75.5411,170.827 79.5411,170.66 83.5,169.5C 84.1925,168.482 84.8592,167.482 85.5,166.5C 91.2987,160.087 92.9654,152.754 90.5,144.5C 90.7678,142.901 90.4345,141.568 89.5,140.5C 89.0825,139.778 88.4158,139.278 87.5,139C 88.7112,138.107 88.7112,137.274 87.5,136.5C 85.9954,139.131 85.3287,138.797 85.5,135.5C 87.9462,134.492 89.4462,135.492 90,138.5C 90.3052,136.443 90.3052,134.443 90,132.5C 91.4585,134.432 92.6252,136.432 93.5,138.5 Z"/></g>
<g><path style="opacity:0.086" fill="#af8162" d="M 53.5,96.5 C 54.8356,111.636 56.1689,126.636 57.5,141.5C 57.8333,145.5 58.1667,149.5 58.5,153.5C 58.5,154.833 58.5,156.167 58.5,157.5C 55.6736,137.716 53.5069,117.716 52,97.5C 50.6703,98.5822 49.1703,99.2488 47.5,99.5C 48.911,97.461 50.911,96.461 53.5,96.5 Z"/></g>
<g><path style="opacity:1" fill="#b19a8d" d="M 89.5,140.5 C 90.4345,141.568 90.7678,142.901 90.5,144.5C 89.596,143.791 89.2627,142.791 89.5,141.5C 85.963,141.311 82.6297,141.977 79.5,143.5C 79.5774,142.25 80.244,141.417 81.5,141C 84.146,140.503 86.8127,140.336 89.5,140.5 Z"/></g>
<g><path style="opacity:1" fill="#9a847b" d="M 62.5,137.5 C 61.7255,142.797 61.3921,148.13 61.5,153.5C 61.1667,153.5 60.8333,153.5 60.5,153.5C 60.3343,149.154 60.501,144.821 61,140.5C 61.2321,139.263 61.7321,138.263 62.5,137.5 Z"/></g>
<g><path style="opacity:1" fill="#b3a193" d="M 77.5,145.5 C 76.925,147.411 75.925,149.078 74.5,150.5C 72.4727,150.662 70.4727,150.495 68.5,150C 67.7476,149.329 67.4142,148.496 67.5,147.5C 68.5938,148.582 69.9271,149.248 71.5,149.5C 73.7655,148.568 75.7655,147.235 77.5,145.5 Z"/></g>
<g><path style="opacity:0.469" fill="#8b5d40" d="M 93.5,138.5 C 97.7832,148.481 97.1166,158.148 91.5,167.5C 91.5752,164.593 92.4086,161.927 94,159.5C 94.6745,152.472 94.5079,145.472 93.5,138.5 Z"/></g>
<g><path style="opacity:1" fill="#f9ebdb" d="M 67.5,147.5 C 67.4142,148.496 67.7476,149.329 68.5,150C 70.4727,150.495 72.4727,150.662 74.5,150.5C 75.7927,151.645 76.9593,151.311 78,149.5C 78.658,151.108 78.158,152.275 76.5,153C 78.3289,153.273 79.8289,154.107 81,155.5C 80.9942,153.702 80.6609,152.035 80,150.5C 81.7165,149.448 82.7165,150.114 83,152.5C 83.3333,151.833 83.6667,151.167 84,150.5C 85.1554,155.817 85.6554,161.15 85.5,166.5C 82.8559,166.84 80.5225,166.173 78.5,164.5C 77.3914,165.59 76.3914,165.59 75.5,164.5C 78.7275,162.422 78.2275,160.422 74,158.5C 73.0546,158.905 72.3879,159.572 72,160.5C 71.3109,159.643 70.4776,158.977 69.5,158.5C 67.5841,159.248 65.5841,159.248 63.5,158.5C 62.8857,154.865 62.5524,151.198 62.5,147.5C 64.1667,147.5 65.8333,147.5 67.5,147.5 Z"/></g>
<g><path style="opacity:1" fill="#f3e3d4" d="M 90.5,144.5 C 92.9654,152.754 91.2987,160.087 85.5,166.5C 85.6554,161.15 85.1554,155.817 84,150.5C 83.6667,151.167 83.3333,151.833 83,152.5C 82.7165,150.114 81.7165,149.448 80,150.5C 80.6609,152.035 80.9942,153.702 81,155.5C 79.8289,154.107 78.3289,153.273 76.5,153C 78.158,152.275 78.658,151.108 78,149.5C 76.9593,151.311 75.7927,151.645 74.5,150.5C 75.925,149.078 76.925,147.411 77.5,145.5C 77.8333,144.5 78.5,143.833 79.5,143.5C 82.6297,141.977 85.963,141.311 89.5,141.5C 89.2627,142.791 89.596,143.791 90.5,144.5 Z"/></g>
<g><path style="opacity:0.902" fill="#6e4733" d="M 58.5,153.5 C 59.2216,153.918 59.7216,154.584 60,155.5C 60.4643,154.906 60.631,154.239 60.5,153.5C 60.8333,153.5 61.1667,153.5 61.5,153.5C 61.9926,155.806 62.3259,158.139 62.5,160.5C 61.7321,159.737 61.2321,158.737 61,157.5C 60.4298,162.619 61.5964,167.285 64.5,171.5C 60.3824,167.835 58.3824,163.168 58.5,157.5C 58.5,156.167 58.5,154.833 58.5,153.5 Z"/></g>
<g><path style="opacity:1" fill="#f0ded1" d="M 62.5,137.5 C 64.1238,137.36 65.2904,138.027 66,139.5C 66.8215,142.117 67.3215,144.784 67.5,147.5C 65.8333,147.5 64.1667,147.5 62.5,147.5C 62.5524,151.198 62.8857,154.865 63.5,158.5C 65.5841,159.248 67.5841,159.248 69.5,158.5C 70.4776,158.977 71.3109,159.643 72,160.5C 72.3879,159.572 73.0546,158.905 74,158.5C 78.2275,160.422 78.7275,162.422 75.5,164.5C 76.3914,165.59 77.3914,165.59 78.5,164.5C 80.5225,166.173 82.8559,166.84 85.5,166.5C 84.8592,167.482 84.1925,168.482 83.5,169.5C 79.5411,170.66 75.5411,170.827 71.5,170C 67.9051,167.235 64.9051,164.068 62.5,160.5C 62.3259,158.139 61.9926,155.806 61.5,153.5C 61.3921,148.13 61.7255,142.797 62.5,137.5 Z"/></g>
<g><path style="opacity:0.827" fill="#794c32" d="M 90.5,169.5 C 84.9203,174.732 78.2536,176.565 70.5,175C 68.2726,174.059 66.2726,172.892 64.5,171.5C 70.6865,173.348 77.0199,173.848 83.5,173C 85.469,171.074 87.8024,169.908 90.5,169.5 Z"/></g>
</svg>
