<?xml version="1.0" encoding="UTF-8"?>
<!DOCTYPE svg PUBLIC "-//W3C//DTD SVG 1.1//EN" "http://www.w3.org/Graphics/SVG/1.1/DTD/svg11.dtd">
<svg xmlns="http://www.w3.org/2000/svg" version="1.1" width="199px" height="194px" style="shape-rendering:geometricPrecision; text-rendering:geometricPrecision; image-rendering:optimizeQuality; fill-rule:evenodd; clip-rule:evenodd" xmlns:xlink="http://www.w3.org/1999/xlink">
<g><path style="opacity:0.325" fill="#a77455" d="M 103.5,6.5 C 91.4757,2.91509 79.1424,1.58176 66.5,2.5C 67.6085,1.71003 68.9419,1.21003 70.5,1C 82.2702,-0.916621 93.2702,0.916712 103.5,6.5 Z"/></g>
<g><path style="opacity:0.322" fill="#b68763" d="M 161.5,3.5 C 153.493,3.33362 145.493,3.50029 137.5,4C 131.144,5.85001 124.811,7.68334 118.5,9.5C 128.214,4.25071 138.714,1.58404 150,1.5C 154.022,1.89183 157.855,2.5585 161.5,3.5 Z"/></g>
<g><path style="opacity:0.416" fill="#9e6f4d" d="M 161.5,3.5 C 166.212,3.54475 168.545,5.87809 168.5,10.5C 166.916,7.51733 164.583,5.184 161.5,3.5 Z"/></g>
<g><path style="opacity:0.541" fill="#a27559" d="M 65.5,2.5 C 58.923,4.81934 52.2564,7.15267 45.5,9.5C 51.495,5.61083 58.1616,3.2775 65.5,2.5 Z"/></g>
<g><path style="opacity:0.298" fill="#b28664" d="M 45.5,9.5 C 43.4042,11.4333 41.9042,13.7666 41,16.5C 40.501,20.8206 40.3343,25.1539 40.5,29.5C 40.5,30.5 40.5,31.5 40.5,32.5C 39.1074,25.9298 39.274,19.2631 41,12.5C 42.129,10.8588 43.629,9.85883 45.5,9.5 Z"/></g>
<g><path style="opacity:1" fill="#fca82f" d="M 101.5,113.5 C 102.164,118.473 102.497,123.473 102.5,128.5C 101.167,128.5 99.8333,128.5 98.5,128.5C 98.5,129.5 98.5,130.5 98.5,131.5C 97.5,131.5 96.5,131.5 95.5,131.5C 95.5,132.833 95.5,134.167 95.5,135.5C 94.325,135.281 93.325,135.614 92.5,136.5C 90.9802,138.662 89.9802,140.995 89.5,143.5C 89.1667,144.167 88.8333,144.833 88.5,145.5C 79.1603,144.721 70.1603,146.054 61.5,149.5C 58.5326,151.299 55.6992,153.299 53,155.5C 48.7184,156.289 44.5517,157.456 40.5,159C 31.8169,163.699 22.4835,164.866 12.5,162.5C 9.66615,158.337 7.99948,153.671 7.5,148.5C 7.83333,147.167 8.16667,145.833 8.5,144.5C 9.28763,145.77 10.2876,146.77 11.5,147.5C 11.9825,149.87 13.1492,150.537 15,149.5C 16.7989,141.423 20.1323,134.09 25,127.5C 25.6838,126.216 25.5171,125.049 24.5,124C 27.0386,121.63 29.3719,119.13 31.5,116.5C 34.125,114.525 36.7916,112.525 39.5,110.5C 42.8847,106.432 46.7181,102.766 51,99.5C 51.499,95.1794 51.6657,90.8461 51.5,86.5C 52.3909,85.7387 53.0576,84.7387 53.5,83.5C 55.2914,82.8302 56.9581,82.1635 58.5,81.5C 59.2216,81.0825 59.7216,80.4158 60,79.5C 60.6667,75.5 60.6667,71.5 60,67.5C 57.831,52.4588 55.6644,37.4588 53.5,22.5C 61.84,22.6664 70.1733,22.4997 78.5,22C 81.0356,21.8138 83.369,21.3138 85.5,20.5C 89.7426,19.3187 94.076,18.652 98.5,18.5C 98.6355,21.5514 98.3022,24.5514 97.5,27.5C 98.3088,46.4755 98.8088,65.4755 99,84.5C 99.378,94.2212 100.211,103.888 101.5,113.5 Z"/></g>
<g><path style="opacity:1" fill="#fda82e" d="M 168.5,57.5 C 168.334,63.5092 168.501,69.5092 169,75.5C 169.703,79.7688 171.036,83.7688 173,87.5C 173.481,97.5546 175.481,107.221 179,116.5C 179.671,117.252 180.504,117.586 181.5,117.5C 181.336,120.187 181.503,122.854 182,125.5C 183.08,130.033 184.58,134.366 186.5,138.5C 186.122,142.371 184.122,144.871 180.5,146C 178.21,147.777 176.543,149.944 175.5,152.5C 175.167,152.5 174.833,152.5 174.5,152.5C 167.979,154.588 161.313,156.421 154.5,158C 148.933,162.182 143.267,166.182 137.5,170C 130.922,170.955 125.589,173.955 121.5,179C 117.342,180.806 113.009,182.139 108.5,183C 107.944,183.383 107.611,183.883 107.5,184.5C 103.486,184.666 99.4862,184.499 95.5,184C 93.2177,181.603 91.8844,178.769 91.5,175.5C 93.1439,175.714 94.6439,175.38 96,174.5C 97.3774,166.59 99.3774,158.923 102,151.5C 104.31,149.863 105.81,147.696 106.5,145C 103.793,143.136 102.959,140.636 104,137.5C 107.999,135.632 111.832,133.632 115.5,131.5C 116.799,126.598 118.465,121.931 120.5,117.5C 121.482,116.859 122.482,116.193 123.5,115.5C 124.331,108.189 124.831,100.856 125,93.5C 126.494,94.7472 127.994,94.7472 129.5,93.5C 131.013,91.4645 131.679,89.1312 131.5,86.5C 130.034,80.9248 128.867,75.2582 128,69.5C 124.382,65.9883 122.715,61.655 123,56.5C 121.517,53.3092 120.017,50.3092 118.5,47.5C 118.162,41.7802 117.495,36.1135 116.5,30.5C 119.306,29.8324 121.972,29.1657 124.5,28.5C 131.485,27.558 138.485,26.3913 145.5,25C 149.112,23.8605 152.446,22.1939 155.5,20C 157.5,19.3333 159.5,19.3333 161.5,20C 163.005,31.5549 164.505,43.0549 166,54.5C 166.236,56.1193 167.069,57.1193 168.5,57.5 Z"/></g>
<g><path style="opacity:0.655" fill="#805434" d="M 40.5,29.5 C 42.4069,37.6027 43.7403,45.9361 44.5,54.5C 44.1667,54.5 43.8333,54.5 43.5,54.5C 42.0677,47.2377 41.0677,39.9043 40.5,32.5C 40.5,31.5 40.5,30.5 40.5,29.5 Z"/></g>
<g><path style="opacity:0.733" fill="#916445" d="M 169.5,20.5 C 170.707,27.6386 171.374,34.972 171.5,42.5C 170.732,41.7375 170.232,40.7375 170,39.5C 169.5,33.1754 169.334,26.8421 169.5,20.5 Z"/></g>
<g><path style="opacity:0.361" fill="#9c6d4c" d="M 171.5,42.5 C 172.737,47.9601 173.404,53.6268 173.5,59.5C 171.988,54.0709 171.321,48.4042 171.5,42.5 Z"/></g>
<g><path style="opacity:0.957" fill="#4c1c09" d="M 65.5,2.5 C 65.8333,2.5 66.1667,2.5 66.5,2.5C 79.1424,1.58176 91.4757,2.91509 103.5,6.5C 104.5,6.83333 105.167,7.5 105.5,8.5C 105.187,11.2469 105.52,13.9135 106.5,16.5C 110.653,14.1464 114.653,11.813 118.5,9.5C 124.811,7.68334 131.144,5.85001 137.5,4C 145.493,3.50029 153.493,3.33362 161.5,3.5C 164.583,5.184 166.916,7.51733 168.5,10.5C 169.479,13.6248 169.813,16.9581 169.5,20.5C 169.334,26.8421 169.5,33.1754 170,39.5C 170.232,40.7375 170.732,41.7375 171.5,42.5C 171.321,48.4042 171.988,54.0709 173.5,59.5C 173.838,64.1859 174.005,68.8525 174,73.5C 173.667,74.1667 173.333,74.8333 173,75.5C 172.61,72.8958 171.776,70.5625 170.5,68.5C 170.354,64.6125 169.687,60.9458 168.5,57.5C 167.483,43.7492 165.816,30.0825 163.5,16.5C 160.478,16.804 157.478,17.304 154.5,18C 147.305,21.2309 139.972,23.7309 132.5,25.5C 122.861,26.3599 113.194,26.6932 103.5,26.5C 103.338,28.5273 103.505,30.5273 104,32.5C 104.383,33.056 104.883,33.3893 105.5,33.5C 106.646,37.3935 107.479,41.3935 108,45.5C 108.377,46.9423 109.21,47.9423 110.5,48.5C 111.167,51.5 111.833,54.5 112.5,57.5C 116.906,69.99 120.239,82.6567 122.5,95.5C 122.698,102.924 122.032,110.257 120.5,117.5C 114.896,124.442 108.896,131.108 102.5,137.5C 98.7881,140.211 95.7881,143.544 93.5,147.5C 91.7376,148.262 90.7376,149.596 90.5,151.5C 89.5416,151.953 88.7083,152.619 88,153.5C 84.3765,161.188 83.5432,169.188 85.5,177.5C 85.6309,178.376 85.2975,179.043 84.5,179.5C 83.4793,178.099 82.4793,176.765 81.5,175.5C 80.8464,167.236 81.8464,159.236 84.5,151.5C 83.5,151.5 82.5,151.5 81.5,151.5C 81.1961,150.85 80.8627,150.183 80.5,149.5C 82.6309,148.831 84.6309,148.165 86.5,147.5C 87.1667,146.833 87.8333,146.167 88.5,145.5C 88.8333,144.833 89.1667,144.167 89.5,143.5C 91.1667,142.167 92.8333,140.833 94.5,139.5C 98.1309,136.371 101.631,133.037 105,129.5C 105.801,126.633 105.634,123.966 104.5,121.5C 102.352,109.607 101.185,97.6067 101,85.5C 100.5,62.5024 100.333,39.5024 100.5,16.5C 96.7657,16.3227 93.0991,16.6561 89.5,17.5C 88.1266,17.6567 86.7932,17.49 85.5,17C 90.2316,15.5338 94.8982,13.8671 99.5,12C 100.833,10.6667 100.833,9.33333 99.5,8C 90.1455,5.53553 80.8122,5.03553 71.5,6.5C 65.3591,6.65818 59.3591,7.65818 53.5,9.5C 52.5,11.1667 51.1667,12.5 49.5,13.5C 52.8878,15.5181 56.5545,16.5181 60.5,16.5C 66.6534,17.3279 72.9867,17.8279 79.5,18C 77.9419,18.21 76.6085,18.71 75.5,19.5C 66.825,19.3438 58.1583,19.0105 49.5,18.5C 47.8333,18.5 46.1667,18.5 44.5,18.5C 44.5311,31.1915 46.1977,43.5248 49.5,55.5C 50.4756,67.4857 50.6423,79.4857 50,91.5C 49.6271,93.6982 49.1271,95.8649 48.5,98C 45.1111,101.968 42.1111,106.135 39.5,110.5C 36.7916,112.525 34.125,114.525 31.5,116.5C 26.7824,118.959 22.449,121.959 18.5,125.5C 12.9091,129.091 9.24242,134.091 7.5,140.5C 6.88258,140.611 6.38258,140.944 6,141.5C 5.18806,145.689 5.35472,149.689 6.5,153.5C 6.5,154.5 6.5,155.5 6.5,156.5C 6.64945,157.552 6.48278,158.552 6,159.5C 4.81111,157.767 3.64444,156.1 2.5,154.5C 2.5,154.167 2.5,153.833 2.5,153.5C 2.33449,149.486 2.50115,145.486 3,141.5C 4.74948,137.399 6.58281,133.399 8.5,129.5C 16.5398,122.823 24.5398,116.156 32.5,109.5C 37.8683,107.465 41.535,103.798 43.5,98.5C 45.5233,91.6702 46.5233,84.6702 46.5,77.5C 46.6476,69.7507 45.9809,62.084 44.5,54.5C 43.7403,45.9361 42.4069,37.6027 40.5,29.5C 40.3343,25.1539 40.501,20.8206 41,16.5C 41.9042,13.7666 43.4042,11.4333 45.5,9.5C 52.2564,7.15267 58.923,4.81934 65.5,2.5 Z"/></g>
<g><path style="opacity:1" fill="#fbbd72" d="M 58.5,81.5 C 56.9581,82.1635 55.2914,82.8302 53.5,83.5C 53.0576,84.7387 52.3909,85.7387 51.5,86.5C 51.6664,78.4931 51.4997,70.4931 51,62.5C 50.8138,59.9644 50.3138,57.631 49.5,55.5C 49.4091,47.1099 48.7424,38.7765 47.5,30.5C 48.9892,28.8839 49.9892,26.8839 50.5,24.5C 51.1924,25.0253 51.6924,25.6919 52,26.5C 54.9088,44.7695 57.0755,63.1028 58.5,81.5 Z"/></g>
<g><path style="opacity:1" fill="#d39651" d="M 49.5,18.5 C 49.5,18.8333 49.5,19.1667 49.5,19.5C 48.1667,19.5 46.8333,19.5 45.5,19.5C 45.4299,23.4248 46.0966,27.0915 47.5,30.5C 48.7424,38.7765 49.4091,47.1099 49.5,55.5C 46.1977,43.5248 44.5311,31.1915 44.5,18.5C 46.1667,18.5 47.8333,18.5 49.5,18.5 Z"/></g>
<g><path style="opacity:1" fill="#f5af4f" d="M 49.5,19.5 C 50.1667,19.5 50.8333,19.5 51.5,19.5C 51.9175,20.2216 52.5842,20.7216 53.5,21C 61.0118,21.8218 68.3451,21.6552 75.5,20.5C 78.8333,20.5 82.1667,20.5 85.5,20.5C 83.369,21.3138 81.0356,21.8138 78.5,22C 70.1733,22.4997 61.84,22.6664 53.5,22.5C 55.6644,37.4588 57.831,52.4588 60,67.5C 60.6667,71.5 60.6667,75.5 60,79.5C 59.7216,80.4158 59.2216,81.0825 58.5,81.5C 57.0755,63.1028 54.9088,44.7695 52,26.5C 51.6924,25.6919 51.1924,25.0253 50.5,24.5C 49.9892,26.8839 48.9892,28.8839 47.5,30.5C 46.0966,27.0915 45.4299,23.4248 45.5,19.5C 46.8333,19.5 48.1667,19.5 49.5,19.5 Z"/></g>
<g><path style="opacity:1" fill="#dd9a4a" d="M 168.5,57.5 C 167.069,57.1193 166.236,56.1193 166,54.5C 164.505,43.0549 163.005,31.5549 161.5,20C 159.5,19.3333 157.5,19.3333 155.5,20C 152.446,22.1939 149.112,23.8605 145.5,25C 138.485,26.3913 131.485,27.558 124.5,28.5C 118.824,28.3339 113.157,28.5006 107.5,29C 106.905,32.5116 107.405,36.0116 109,39.5C 109.77,40.5981 110.603,40.5981 111.5,39.5C 111.037,42.4824 110.704,45.4824 110.5,48.5C 109.21,47.9423 108.377,46.9423 108,45.5C 107.479,41.3935 106.646,37.3935 105.5,33.5C 105.643,31.7376 105.309,30.0709 104.5,28.5C 112.479,27.6684 120.479,27.1684 128.5,27C 130.058,26.79 131.391,26.29 132.5,25.5C 139.972,23.7309 147.305,21.2309 154.5,18C 157.478,17.304 160.478,16.804 163.5,16.5C 165.816,30.0825 167.483,43.7492 168.5,57.5 Z"/></g>
<g><path style="opacity:1" fill="#f4ab45" d="M 124.5,28.5 C 121.972,29.1657 119.306,29.8324 116.5,30.5C 117.495,36.1135 118.162,41.7802 118.5,47.5C 117.378,42.65 115.545,37.9833 113,33.5C 111.681,35.2495 111.181,37.2495 111.5,39.5C 110.603,40.5981 109.77,40.5981 109,39.5C 107.405,36.0116 106.905,32.5116 107.5,29C 113.157,28.5006 118.824,28.3339 124.5,28.5 Z"/></g>
<g><path style="opacity:1" fill="#ae7035" d="M 132.5,25.5 C 131.391,26.29 130.058,26.79 128.5,27C 120.479,27.1684 112.479,27.6684 104.5,28.5C 105.309,30.0709 105.643,31.7376 105.5,33.5C 104.883,33.3893 104.383,33.056 104,32.5C 103.505,30.5273 103.338,28.5273 103.5,26.5C 113.194,26.6932 122.861,26.3599 132.5,25.5 Z"/></g>
<g><path style="opacity:1" fill="#773f14" d="M 147.5,16.5 C 145.04,17.8908 142.374,19.0575 139.5,20C 130.803,21.44 122.136,22.94 113.5,24.5C 111.5,24.3333 109.5,24.1667 107.5,24C 108.227,22.6012 108.727,21.1012 109,19.5C 109.671,18.7476 110.504,18.4142 111.5,18.5C 110.766,19.7079 110.433,21.0413 110.5,22.5C 121.161,22.027 131.495,20.3604 141.5,17.5C 143.435,16.8505 145.435,16.5172 147.5,16.5 Z"/></g>
<g><path style="opacity:1" fill="#ce8a4c" d="M 51.5,19.5 C 59.4659,20.3649 67.4659,20.6982 75.5,20.5C 68.3451,21.6552 61.0118,21.8218 53.5,21C 52.5842,20.7216 51.9175,20.2216 51.5,19.5 Z"/></g>
<g><path style="opacity:1" fill="#692c06" d="M 49.5,19.5 C 49.5,19.1667 49.5,18.8333 49.5,18.5C 58.1583,19.0105 66.825,19.3438 75.5,19.5C 75.5,19.8333 75.5,20.1667 75.5,20.5C 67.4659,20.6982 59.4659,20.3649 51.5,19.5C 50.8333,19.5 50.1667,19.5 49.5,19.5 Z"/></g>
<g><path style="opacity:1" fill="#612a0a" d="M 71.5,6.5 C 80.8122,5.03553 90.1455,5.53553 99.5,8C 100.833,9.33333 100.833,10.6667 99.5,12C 94.8982,13.8671 90.2316,15.5338 85.5,17C 86.7932,17.49 88.1266,17.6567 89.5,17.5C 85.1004,19.1042 80.4338,19.7709 75.5,19.5C 76.6085,18.71 77.9419,18.21 79.5,18C 72.9867,17.8279 66.6534,17.3279 60.5,16.5C 73.3262,17.6799 85.6595,15.8466 97.5,11C 97.8333,10.6667 98.1667,10.3333 98.5,10C 97.1667,9.33333 95.8333,8.66667 94.5,8C 86.8806,6.79462 79.214,6.29462 71.5,6.5 Z"/></g>
<g><path style="opacity:1" fill="#c07e2e" d="M 149.5,15.5 C 151.429,13.8518 153.429,12.1851 155.5,10.5C 143.454,9.50706 131.787,11.3404 120.5,16C 119.167,17.3333 117.833,18.6667 116.5,20C 124.714,18.6754 133.048,17.8421 141.5,17.5C 131.495,20.3604 121.161,22.027 110.5,22.5C 110.433,21.0413 110.766,19.7079 111.5,18.5C 119.507,12.844 128.507,9.34399 138.5,8C 145.608,7.07608 152.608,7.40942 159.5,9C 160.833,9.66667 160.833,10.3333 159.5,11C 156.294,12.7694 152.961,14.2694 149.5,15.5 Z"/></g>
<g><path style="opacity:1" fill="#ba7b33" d="M 71.5,6.5 C 79.214,6.29462 86.8806,6.79462 94.5,8C 95.8333,8.66667 97.1667,9.33333 98.5,10C 98.1667,10.3333 97.8333,10.6667 97.5,11C 85.6595,15.8466 73.3262,17.6799 60.5,16.5C 56.5545,16.5181 52.8878,15.5181 49.5,13.5C 51.1667,12.5 52.5,11.1667 53.5,9.5C 59.3591,7.65818 65.3591,6.65818 71.5,6.5 Z"/></g>
<g><path style="opacity:1" fill="#cd8521" d="M 149.5,15.5 C 148.508,15.3284 147.842,15.6618 147.5,16.5C 145.435,16.5172 143.435,16.8505 141.5,17.5C 133.048,17.8421 124.714,18.6754 116.5,20C 117.833,18.6667 119.167,17.3333 120.5,16C 131.787,11.3404 143.454,9.50706 155.5,10.5C 153.429,12.1851 151.429,13.8518 149.5,15.5 Z"/></g>
<g><path style="opacity:0.624" fill="#9b6b50" d="M 105.5,8.5 C 106.451,9.91866 106.784,11.5853 106.5,13.5C 110.562,12.3682 114.562,11.0349 118.5,9.5C 114.653,11.813 110.653,14.1464 106.5,16.5C 105.52,13.9135 105.187,11.2469 105.5,8.5 Z"/></g>
<g><path style="opacity:1" fill="#cf8321" d="M 71.5,8.5 C 76.8437,8.33398 82.1771,8.50065 87.5,9C 88.3081,9.30762 88.9747,9.80762 89.5,10.5C 78.2244,14.5568 66.5577,15.5568 54.5,13.5C 55.3805,12.0295 56.7139,11.1962 58.5,11C 63.1007,10.8513 67.4341,10.018 71.5,8.5 Z"/></g>
<g><path style="opacity:1" fill="#c2833f" d="M 104.5,121.5 C 104.802,124.059 104.468,126.393 103.5,128.5C 103.904,123.217 103.238,118.217 101.5,113.5C 100.211,103.888 99.378,94.2212 99,84.5C 98.8088,65.4755 98.3088,46.4755 97.5,27.5C 98.3022,24.5514 98.6355,21.5514 98.5,18.5C 94.076,18.652 89.7426,19.3187 85.5,20.5C 82.1667,20.5 78.8333,20.5 75.5,20.5C 75.5,20.1667 75.5,19.8333 75.5,19.5C 80.4338,19.7709 85.1004,19.1042 89.5,17.5C 93.0991,16.6561 96.7657,16.3227 100.5,16.5C 100.333,39.5024 100.5,62.5024 101,85.5C 101.185,97.6067 102.352,109.607 104.5,121.5 Z"/></g>
<g><path style="opacity:0.212" fill="#bd8a6b" d="M 43.5,54.5 C 43.8333,54.5 44.1667,54.5 44.5,54.5C 45.9809,62.084 46.6476,69.7507 46.5,77.5C 45.4278,69.9827 44.4278,62.3161 43.5,54.5 Z"/></g>
<g><path style="opacity:1" fill="#b88a6a" d="M 106.5,55.5 C 105.778,55.0825 105.278,54.4158 105,53.5C 104.5,63.1609 104.334,72.8276 104.5,82.5C 103.341,71.6745 103.174,60.6745 104,49.5C 106.039,50.9783 106.872,52.9783 106.5,55.5 Z"/></g>
<g><path style="opacity:0.957" fill="#7e4c29" d="M 173.5,59.5 C 174.857,65.3103 175.857,71.3103 176.5,77.5C 175.778,77.0825 175.278,76.4158 175,75.5C 174.667,75.8333 174.333,76.1667 174,76.5C 173.612,79.8492 173.779,83.1825 174.5,86.5C 172.108,80.8542 170.775,74.8542 170.5,68.5C 171.776,70.5625 172.61,72.8958 173,75.5C 173.333,74.8333 173.667,74.1667 174,73.5C 174.005,68.8525 173.838,64.1859 173.5,59.5 Z"/></g>
<g><path style="opacity:1" fill="#fcbe79" d="M 118.5,47.5 C 120.831,60.8446 124.164,73.8446 128.5,86.5C 128.167,87.5 127.833,88.5 127.5,89.5C 125.185,88.8402 123.519,87.5069 122.5,85.5C 120.526,79.7226 119.192,73.7226 118.5,67.5C 116.461,64.0707 114.461,60.7374 112.5,57.5C 111.833,54.5 111.167,51.5 110.5,48.5C 110.704,45.4824 111.037,42.4824 111.5,39.5C 111.181,37.2495 111.681,35.2495 113,33.5C 115.545,37.9833 117.378,42.65 118.5,47.5 Z"/></g>
<g><path style="opacity:1" fill="#f4ae50" d="M 118.5,47.5 C 120.017,50.3092 121.517,53.3092 123,56.5C 122.715,61.655 124.382,65.9883 128,69.5C 128.867,75.2582 130.034,80.9248 131.5,86.5C 131.679,89.1312 131.013,91.4645 129.5,93.5C 127.994,94.7472 126.494,94.7472 125,93.5C 124.831,100.856 124.331,108.189 123.5,115.5C 122.482,116.193 121.482,116.859 120.5,117.5C 122.032,110.257 122.698,102.924 122.5,95.5C 122.5,92.1667 122.5,88.8333 122.5,85.5C 123.519,87.5069 125.185,88.8402 127.5,89.5C 127.833,88.5 128.167,87.5 128.5,86.5C 124.164,73.8446 120.831,60.8446 118.5,47.5 Z"/></g>
<g><path style="opacity:1" fill="#e19c45" d="M 168.5,57.5 C 169.687,60.9458 170.354,64.6125 170.5,68.5C 170.775,74.8542 172.108,80.8542 174.5,86.5C 176.709,96.8799 179.042,107.213 181.5,117.5C 180.504,117.586 179.671,117.252 179,116.5C 175.481,107.221 173.481,97.5546 173,87.5C 171.036,83.7688 169.703,79.7688 169,75.5C 168.501,69.5092 168.334,63.5092 168.5,57.5 Z"/></g>
<g><path style="opacity:1" fill="#ce9358" d="M 112.5,57.5 C 114.461,60.7374 116.461,64.0707 118.5,67.5C 119.192,73.7226 120.526,79.7226 122.5,85.5C 122.5,88.8333 122.5,92.1667 122.5,95.5C 120.239,82.6567 116.906,69.99 112.5,57.5 Z"/></g>
<g><path style="opacity:1" fill="#c78b45" d="M 49.5,55.5 C 50.3138,57.631 50.8138,59.9644 51,62.5C 51.4997,70.4931 51.6664,78.4931 51.5,86.5C 51.6657,90.8461 51.499,95.1794 51,99.5C 46.7181,102.766 42.8847,106.432 39.5,110.5C 42.1111,106.135 45.1111,101.968 48.5,98C 49.1271,95.8649 49.6271,93.6982 50,91.5C 50.6423,79.4857 50.4756,67.4857 49.5,55.5 Z"/></g>
<g><path style="opacity:1" fill="#f0bb8a" d="M 106.5,55.5 C 111.639,68.421 115.472,81.7543 118,95.5C 120.422,105.721 117.922,114.388 110.5,121.5C 108.717,117.703 107.55,113.703 107,109.5C 105.689,100.539 104.856,91.5385 104.5,82.5C 104.334,72.8276 104.5,63.1609 105,53.5C 105.278,54.4158 105.778,55.0825 106.5,55.5 Z"/></g>
<g><path style="opacity:0.396" fill="#9b6d50" d="M 43.5,98.5 C 41.535,103.798 37.8683,107.465 32.5,109.5C 36.5,106.167 40.1667,102.5 43.5,98.5 Z"/></g>
<g><path style="opacity:0.259" fill="#b07f5c" d="M 32.5,109.5 C 24.5398,116.156 16.5398,122.823 8.5,129.5C 9.54341,126.944 11.2101,124.777 13.5,123C 19.5402,117.99 25.8736,113.49 32.5,109.5 Z"/></g>
<g><path style="opacity:1" fill="#f8ba6a" d="M 31.5,116.5 C 29.3719,119.13 27.0386,121.63 24.5,124C 25.5171,125.049 25.6838,126.216 25,127.5C 20.1323,134.09 16.7989,141.423 15,149.5C 13.1492,150.537 11.9825,149.87 11.5,147.5C 11.3379,145.473 11.5045,143.473 12,141.5C 14.843,136.474 17.0097,131.141 18.5,125.5C 22.449,121.959 26.7824,118.959 31.5,116.5 Z"/></g>
<g><path style="opacity:1" fill="#eda544" d="M 101.5,113.5 C 103.238,118.217 103.904,123.217 103.5,128.5C 100.098,131.895 97.0985,135.562 94.5,139.5C 92.8333,140.833 91.1667,142.167 89.5,143.5C 89.9802,140.995 90.9802,138.662 92.5,136.5C 93.325,135.614 94.325,135.281 95.5,135.5C 95.5,134.167 95.5,132.833 95.5,131.5C 96.5,131.5 97.5,131.5 98.5,131.5C 98.5,130.5 98.5,129.5 98.5,128.5C 99.8333,128.5 101.167,128.5 102.5,128.5C 102.497,123.473 102.164,118.473 101.5,113.5 Z"/></g>
<g><path style="opacity:1" fill="#915520" d="M 104.5,121.5 C 105.634,123.966 105.801,126.633 105,129.5C 101.631,133.037 98.1309,136.371 94.5,139.5C 97.0985,135.562 100.098,131.895 103.5,128.5C 104.468,126.393 104.802,124.059 104.5,121.5 Z"/></g>
<g><path style="opacity:1" fill="#e39f4d" d="M 181.5,117.5 C 184.246,125.237 186.913,133.07 189.5,141C 189.167,142.167 188.833,143.333 188.5,144.5C 183.641,146.369 179.307,149.036 175.5,152.5C 176.543,149.944 178.21,147.777 180.5,146C 184.122,144.871 186.122,142.371 186.5,138.5C 184.58,134.366 183.08,130.033 182,125.5C 181.503,122.854 181.336,120.187 181.5,117.5 Z"/></g>
<g><path style="opacity:0.447" fill="#8c5d42" d="M 8.5,129.5 C 6.58281,133.399 4.74948,137.399 3,141.5C 2.50115,145.486 2.33449,149.486 2.5,153.5C -0.177173,144.365 1.82283,136.365 8.5,129.5 Z"/></g>
<g><path style="opacity:1" fill="#e0a053" d="M 18.5,125.5 C 17.0097,131.141 14.843,136.474 12,141.5C 11.5045,143.473 11.3379,145.473 11.5,147.5C 10.2876,146.77 9.28763,145.77 8.5,144.5C 8.16667,145.833 7.83333,147.167 7.5,148.5C 7.99948,153.671 9.66615,158.337 12.5,162.5C 10.1394,160.806 8.13942,158.806 6.5,156.5C 6.5,155.5 6.5,154.5 6.5,153.5C 6.2941,149.102 6.62743,144.768 7.5,140.5C 9.24242,134.091 12.9091,129.091 18.5,125.5 Z"/></g>
<g><path style="opacity:1" fill="#93581e" d="M 7.5,140.5 C 6.62743,144.768 6.2941,149.102 6.5,153.5C 5.35472,149.689 5.18806,145.689 6,141.5C 6.38258,140.944 6.88258,140.611 7.5,140.5 Z"/></g>
<g><path style="opacity:0.978" fill="#633216" d="M 86.5,147.5 C 84.6309,148.165 82.6309,148.831 80.5,149.5C 80.8627,150.183 81.1961,150.85 81.5,151.5C 78.4816,151.335 75.4816,151.502 72.5,152C 71.944,152.383 71.6107,152.883 71.5,153.5C 66.3654,158.067 60.3654,161.067 53.5,162.5C 53.4701,161.503 53.9701,160.836 55,160.5C 57.1956,159.91 59.3622,159.243 61.5,158.5C 62.6559,157.424 62.4892,156.424 61,155.5C 57.6233,158.013 53.79,159.013 49.5,158.5C 53.6643,156.865 57.9977,155.365 62.5,154C 65.8084,151.444 69.4751,149.444 73.5,148C 77.8206,147.501 82.1539,147.334 86.5,147.5 Z"/></g>
<g><path style="opacity:0.396" fill="#9d6f4f" d="M 81.5,151.5 C 82.5,151.5 83.5,151.5 84.5,151.5C 81.8464,159.236 80.8464,167.236 81.5,175.5C 80.0744,173.321 79.4078,170.821 79.5,168C 80.0543,162.729 81.0543,157.562 82.5,152.5C 78.7657,152.323 75.0991,152.656 71.5,153.5C 71.6107,152.883 71.944,152.383 72.5,152C 75.4816,151.502 78.4816,151.335 81.5,151.5 Z"/></g>
<g><path style="opacity:1" fill="#f8ba71" d="M 102.5,137.5 C 101.741,139.436 100.741,141.269 99.5,143C 100.022,143.95 100.689,144.784 101.5,145.5C 100.216,149.719 98.3826,153.719 96,157.5C 95.6667,161.167 95.3333,164.833 95,168.5C 91.5362,171.184 89.7029,170.184 89.5,165.5C 91.1474,159.576 92.4807,153.576 93.5,147.5C 95.7881,143.544 98.7881,140.211 102.5,137.5 Z"/></g>
<g><path style="opacity:0.165" fill="#a7745e" d="M 176.5,158.5 C 174.574,160.293 172.241,161.293 169.5,161.5C 171.426,159.707 173.759,158.707 176.5,158.5 Z"/></g>
<g><path style="opacity:1" fill="#e39e45" d="M 88.5,145.5 C 87.8333,146.167 87.1667,146.833 86.5,147.5C 82.1539,147.334 77.8206,147.501 73.5,148C 69.4751,149.444 65.8084,151.444 62.5,154C 57.9977,155.365 53.6643,156.865 49.5,158.5C 43.2047,161.771 36.538,164.104 29.5,165.5C 24.456,165.827 19.456,165.494 14.5,164.5C 13.7573,163.818 13.0906,163.151 12.5,162.5C 22.4835,164.866 31.8169,163.699 40.5,159C 44.5517,157.456 48.7184,156.289 53,155.5C 55.6992,153.299 58.5326,151.299 61.5,149.5C 70.1603,146.054 79.1603,144.721 88.5,145.5 Z"/></g>
<g><path style="opacity:0.941" fill="#4c1f0b" d="M 53.5,162.5 C 48.1646,164.922 42.4979,166.588 36.5,167.5C 32.8183,167.665 29.1516,167.499 25.5,167C 27.0581,166.79 28.3915,166.29 29.5,165.5C 36.538,164.104 43.2047,161.771 49.5,158.5C 53.79,159.013 57.6233,158.013 61,155.5C 62.4892,156.424 62.6559,157.424 61.5,158.5C 59.3622,159.243 57.1956,159.91 55,160.5C 53.9701,160.836 53.4701,161.503 53.5,162.5 Z"/></g>
<g><path style="opacity:1" fill="#f2a842" d="M 120.5,117.5 C 118.465,121.931 116.799,126.598 115.5,131.5C 111.832,133.632 107.999,135.632 104,137.5C 102.959,140.636 103.793,143.136 106.5,145C 105.81,147.696 104.31,149.863 102,151.5C 99.3774,158.923 97.3774,166.59 96,174.5C 94.6439,175.38 93.1439,175.714 91.5,175.5C 91.8844,178.769 93.2177,181.603 95.5,184C 99.4862,184.499 103.486,184.666 107.5,184.5C 104.375,185.479 101.042,185.813 97.5,185.5C 96.448,185.649 95.448,185.483 94.5,185C 92.8115,182.747 90.8115,180.914 88.5,179.5C 86.4917,174.077 85.9917,168.41 87,162.5C 88.8535,159.081 90.0202,155.414 90.5,151.5C 90.7376,149.596 91.7376,148.262 93.5,147.5C 92.4807,153.576 91.1474,159.576 89.5,165.5C 89.7029,170.184 91.5362,171.184 95,168.5C 95.3333,164.833 95.6667,161.167 96,157.5C 98.3826,153.719 100.216,149.719 101.5,145.5C 100.689,144.784 100.022,143.95 99.5,143C 100.741,141.269 101.741,139.436 102.5,137.5C 108.896,131.108 114.896,124.442 120.5,117.5 Z"/></g>
<g><path style="opacity:0.067" fill="#a77c56" d="M 169.5,161.5 C 164.673,162.03 160.006,163.363 155.5,165.5C 156.453,163.39 158.119,162.223 160.5,162C 163.482,161.502 166.482,161.335 169.5,161.5 Z"/></g>
<g><path style="opacity:1" fill="#e09c45" d="M 174.5,152.5 C 171.898,154.81 168.898,156.643 165.5,158C 161.106,159.131 156.773,160.465 152.5,162C 151.833,163 151.167,164 150.5,165C 142.302,168.841 134.302,173.174 126.5,178C 125.167,179.333 123.833,180.667 122.5,182C 117.114,183.408 111.781,184.908 106.5,186.5C 103.287,186.81 100.287,186.477 97.5,185.5C 101.042,185.813 104.375,185.479 107.5,184.5C 107.611,183.883 107.944,183.383 108.5,183C 113.009,182.139 117.342,180.806 121.5,179C 125.589,173.955 130.922,170.955 137.5,170C 143.267,166.182 148.933,162.182 154.5,158C 161.313,156.421 167.979,154.588 174.5,152.5 Z"/></g>
<g><path style="opacity:0.982" fill="#63321a" d="M 2.5,154.5 C 3.64444,156.1 4.81111,157.767 6,159.5C 6.48278,158.552 6.64945,157.552 6.5,156.5C 8.13942,158.806 10.1394,160.806 12.5,162.5C 13.0906,163.151 13.7573,163.818 14.5,164.5C 19.456,165.494 24.456,165.827 29.5,165.5C 28.3915,166.29 27.0581,166.79 25.5,167C 29.1516,167.499 32.8183,167.665 36.5,167.5C 25.1826,173.132 15.016,171.465 6,162.5C 4.0073,160.182 2.84063,157.516 2.5,154.5 Z"/></g>
<g><path style="opacity:1" fill="#b87a3a" d="M 90.5,151.5 C 90.0202,155.414 88.8535,159.081 87,162.5C 85.9917,168.41 86.4917,174.077 88.5,179.5C 87.5,178.833 86.5,178.167 85.5,177.5C 83.5432,169.188 84.3765,161.188 88,153.5C 88.7083,152.619 89.5416,151.953 90.5,151.5 Z"/></g>
<g><path style="opacity:0.992" fill="#542410" d="M 176.5,77.5 C 181.807,99.4253 188.14,121.092 195.5,142.5C 195.594,144.912 194.594,146.745 192.5,148C 187.516,152.172 182.183,155.672 176.5,158.5C 173.759,158.707 171.426,159.707 169.5,161.5C 166.482,161.335 163.482,161.502 160.5,162C 158.119,162.223 156.453,163.39 155.5,165.5C 150.926,170.566 145.593,174.733 139.5,178C 131.11,183.2 122.11,186.7 112.5,188.5C 109.023,188.678 105.69,189.345 102.5,190.5C 99.8236,190.163 97.157,189.83 94.5,189.5C 93.5084,189.672 92.8417,189.338 92.5,188.5C 92.0472,187.542 91.3805,186.708 90.5,186C 91.0944,185.536 91.7611,185.369 92.5,185.5C 97.0627,187.714 101.729,188.047 106.5,186.5C 111.781,184.908 117.114,183.408 122.5,182C 123.833,180.667 125.167,179.333 126.5,178C 134.302,173.174 142.302,168.841 150.5,165C 151.167,164 151.833,163 152.5,162C 156.773,160.465 161.106,159.131 165.5,158C 168.898,156.643 171.898,154.81 174.5,152.5C 174.833,152.5 175.167,152.5 175.5,152.5C 179.307,149.036 183.641,146.369 188.5,144.5C 188.833,143.333 189.167,142.167 189.5,141C 186.913,133.07 184.246,125.237 181.5,117.5C 179.042,107.213 176.709,96.8799 174.5,86.5C 173.779,83.1825 173.612,79.8492 174,76.5C 174.333,76.1667 174.667,75.8333 175,75.5C 175.278,76.4158 175.778,77.0825 176.5,77.5 Z"/></g>
<g><path style="opacity:0.969" fill="#6c341d" d="M 81.5,175.5 C 82.4793,176.765 83.4793,178.099 84.5,179.5C 85.2975,179.043 85.6309,178.376 85.5,177.5C 86.5,178.167 87.5,178.833 88.5,179.5C 89.8075,181.482 91.1408,183.482 92.5,185.5C 91.7611,185.369 91.0944,185.536 90.5,186C 91.3805,186.708 92.0472,187.542 92.5,188.5C 86.317,186.315 82.6503,181.982 81.5,175.5 Z"/></g>
<g><path style="opacity:1" fill="#ae6d35" d="M 88.5,179.5 C 90.8115,180.914 92.8115,182.747 94.5,185C 95.448,185.483 96.448,185.649 97.5,185.5C 100.287,186.477 103.287,186.81 106.5,186.5C 101.729,188.047 97.0627,187.714 92.5,185.5C 91.1408,183.482 89.8075,181.482 88.5,179.5 Z"/></g>
<g><path style="opacity:0.671" fill="#865739" d="M 112.5,188.5 C 109.216,190.597 105.55,191.931 101.5,192.5C 98.7475,192.286 96.4142,191.286 94.5,189.5C 97.157,189.83 99.8236,190.163 102.5,190.5C 105.69,189.345 109.023,188.678 112.5,188.5 Z"/></g>
</svg>
