<?xml version="1.0" encoding="UTF-8"?>
<!DOCTYPE svg PUBLIC "-//W3C//DTD SVG 1.1//EN" "http://www.w3.org/Graphics/SVG/1.1/DTD/svg11.dtd">
<svg xmlns="http://www.w3.org/2000/svg" version="1.1" width="187px" height="196px" style="shape-rendering:geometricPrecision; text-rendering:geometricPrecision; image-rendering:optimizeQuality; fill-rule:evenodd; clip-rule:evenodd" xmlns:xlink="http://www.w3.org/1999/xlink">
<g><path style="opacity:0.169" fill="#d29b76" d="M 132.5,8.5 C 128.103,7.69918 123.769,6.69918 119.5,5.5C 118.737,4.73209 117.737,4.23209 116.5,4C 105.858,2.20949 95.1916,2.04282 84.5,3.5C 101.062,-0.329824 117.062,1.33684 132.5,8.5 Z"/></g>
<g><path style="opacity:0.235" fill="#c18d6c" d="M 84.5,3.5 C 83.5,4.16667 82.5,4.83333 81.5,5.5C 78.1667,6.16667 74.8333,6.83333 71.5,7.5C 75.403,5.1022 79.7363,3.76887 84.5,3.5 Z"/></g>
<g><path style="opacity:1" fill="#682d12" d="M 119.5,5.5 C 118.448,5.35055 117.448,5.51722 116.5,6C 120.788,6.80434 124.454,8.63768 127.5,11.5C 122.603,10.0377 117.603,8.87103 112.5,8C 112.043,7.58605 111.709,7.08605 111.5,6.5C 104.866,5.50331 98.1998,5.16998 91.5,5.5C 88.3322,4.55647 84.9988,4.55647 81.5,5.5C 82.5,4.83333 83.5,4.16667 84.5,3.5C 95.1916,2.04282 105.858,2.20949 116.5,4C 117.737,4.23209 118.737,4.73209 119.5,5.5 Z"/></g>
<g><path style="opacity:0.173" fill="#926245" d="M 71.5,7.5 C 67.4294,9.71295 63.4294,12.2129 59.5,15C 58.2068,15.49 56.8734,15.6567 55.5,15.5C 60.2474,11.7929 65.5807,9.12628 71.5,7.5 Z"/></g>
<g><path style="opacity:0.2" fill="#b2815d" d="M 132.5,8.5 C 138.369,10.5961 143.369,13.9295 147.5,18.5C 142.245,15.385 137.245,12.0517 132.5,8.5 Z"/></g>
<g><path style="opacity:1" fill="#7b3206" d="M 91.5,5.5 C 98.1998,5.16998 104.866,5.50331 111.5,6.5C 111.709,7.08605 112.043,7.58605 112.5,8C 117.603,8.87103 122.603,10.0377 127.5,11.5C 130.367,11.3692 132.033,12.7026 132.5,15.5C 130.916,14.6182 129.249,13.7848 127.5,13C 117.912,11.2819 108.412,9.44854 99,7.5C 93.7077,6.82165 89.041,8.15498 85,11.5C 83.1862,10.2404 81.3529,10.2404 79.5,11.5C 79.7093,12.086 80.0426,12.586 80.5,13C 84.4686,13.8527 88.4686,14.5193 92.5,15C 91.5,15.3333 90.5,15.6667 89.5,16C 91.0581,16.21 92.3915,16.71 93.5,17.5C 89.4862,17.3345 85.4862,17.5012 81.5,18C 80.2899,19.0391 79.2899,20.2058 78.5,21.5C 76.9724,22.3092 75.3057,22.9759 73.5,23.5C 69.2557,23.7477 65.4224,25.081 62,27.5C 60.0438,27.2155 57.8771,27.2155 55.5,27.5C 55.719,28.675 55.3857,29.675 54.5,30.5C 51.527,33.473 48.527,36.473 45.5,39.5C 43.5675,40.5202 41.5675,40.6869 39.5,40C 41.2213,36.3369 43.888,33.8369 47.5,32.5C 47.3505,31.448 47.5172,30.448 48,29.5C 52.2225,27.4526 56.0559,24.7859 59.5,21.5C 60.7629,19.9713 61.7629,18.3046 62.5,16.5C 64.4006,14.2043 66.7339,12.371 69.5,11C 76.6898,8.53589 84.0231,6.70255 91.5,5.5 Z"/></g>
<g><path style="opacity:1" fill="#743412" d="M 93.5,17.5 C 100.508,17.3337 107.508,17.5004 114.5,18C 119.183,20.3356 124.183,21.6689 129.5,22C 131.67,23.5862 134.004,24.9196 136.5,26C 138.607,27.2635 139.607,29.0968 139.5,31.5C 140.833,31.5 142.167,31.5 143.5,31.5C 144.043,34.0384 145.043,36.3718 146.5,38.5C 142.876,36.0493 139.376,33.3826 136,30.5C 135.53,31.5768 135.697,32.5768 136.5,33.5C 130.916,30.5399 125.249,27.8732 119.5,25.5C 121.591,25.3184 123.591,25.6518 125.5,26.5C 126.386,25.675 126.719,24.675 126.5,23.5C 110.658,19.083 94.6582,18.4163 78.5,21.5C 79.2899,20.2058 80.2899,19.0391 81.5,18C 85.4862,17.5012 89.4862,17.3345 93.5,17.5 Z"/></g>
<g><path style="opacity:0.2" fill="#b77f63" d="M 147.5,18.5 C 151.855,20.8548 155.188,24.1881 157.5,28.5C 153.785,25.4519 150.452,22.1185 147.5,18.5 Z"/></g>
<g><path style="opacity:0.976" fill="#4a1805" d="M 91.5,5.5 C 84.0231,6.70255 76.6898,8.53589 69.5,11C 66.7339,12.371 64.4006,14.2043 62.5,16.5C 60.079,17.8914 57.4123,18.7248 54.5,19C 51.7436,22.4267 48.4103,25.0934 44.5,27C 43.5291,31.3116 41.0291,34.4783 37,36.5C 36.3034,39.6916 34.47,41.6916 31.5,42.5C 31.5,40.8333 31.5,39.1667 31.5,37.5C 38.7844,29.2244 46.7844,21.8911 55.5,15.5C 56.8734,15.6567 58.2068,15.49 59.5,15C 63.4294,12.2129 67.4294,9.71295 71.5,7.5C 74.8333,6.83333 78.1667,6.16667 81.5,5.5C 84.9988,4.55647 88.3322,4.55647 91.5,5.5 Z"/></g>
<g><path style="opacity:0.941" fill="#4e1b07" d="M 119.5,25.5 C 113.958,23.6717 108.124,22.6717 102,22.5C 95.8758,22.6717 90.0424,23.6717 84.5,25.5C 81.0786,25.9737 77.7453,25.9737 74.5,25.5C 73.3044,25.8457 73.3044,26.3457 74.5,27C 73.5509,27.6172 72.7175,27.4506 72,26.5C 68.8577,28.9881 65.3577,30.8214 61.5,32C 60.6828,34.3725 59.3495,34.8725 57.5,33.5C 59.0038,31.1644 61.0038,29.331 63.5,28C 67.2699,27.2783 70.6032,25.7783 73.5,23.5C 75.3057,22.9759 76.9724,22.3092 78.5,21.5C 94.6582,18.4163 110.658,19.083 126.5,23.5C 126.719,24.675 126.386,25.675 125.5,26.5C 123.591,25.6518 121.591,25.3184 119.5,25.5 Z"/></g>
<g><path style="opacity:0.102" fill="#cd9973" d="M 119.5,25.5 C 107.833,24.1667 96.1667,24.1667 84.5,25.5C 90.0424,23.6717 95.8758,22.6717 102,22.5C 108.124,22.6717 113.958,23.6717 119.5,25.5 Z"/></g>
<g><path style="opacity:0.224" fill="#aa7b5c" d="M 55.5,15.5 C 46.7844,21.8911 38.7844,29.2244 31.5,37.5C 37.3968,27.8828 45.3968,20.5495 55.5,15.5 Z"/></g>
<g><path style="opacity:0.243" fill="#c5906b" d="M 157.5,28.5 C 159.914,29.9108 161.581,31.9108 162.5,34.5C 160.086,33.0892 158.419,31.0892 157.5,28.5 Z"/></g>
<g><path style="opacity:0.976" fill="#602e16" d="M 84.5,25.5 C 70.0777,29.714 57.411,37.0474 46.5,47.5C 42.6129,50.2724 39.9462,53.9391 38.5,58.5C 36.8429,62.4837 35.1763,66.4837 33.5,70.5C 33.7517,72.0729 34.4183,73.4062 35.5,74.5C 34.5041,74.5858 33.6708,74.2524 33,73.5C 32.3934,70.7983 32.5601,68.1316 33.5,65.5C 33.3333,64.8333 33.1667,64.1667 33,63.5C 32.31,64.7383 31.81,64.7383 31.5,63.5C 31.3505,62.448 31.5172,61.448 32,60.5C 35.3333,55.1667 38.6667,49.8333 42,44.5C 45.4445,43.5426 47.6112,41.3759 48.5,38C 51.3914,36.2734 54.3914,34.7734 57.5,33.5C 59.3495,34.8725 60.6828,34.3725 61.5,32C 65.3577,30.8214 68.8577,28.9881 72,26.5C 72.7175,27.4506 73.5509,27.6172 74.5,27C 73.3044,26.3457 73.3044,25.8457 74.5,25.5C 77.7453,25.9737 81.0786,25.9737 84.5,25.5 Z"/></g>
<g><path style="opacity:1" fill="#7a3106" d="M 132.5,15.5 C 134.833,15.5 137.167,15.5 139.5,15.5C 139.5,16.5 139.5,17.5 139.5,18.5C 144.053,19.2859 147.387,21.7859 149.5,26C 151.329,26.2735 152.829,27.1068 154,28.5C 155.6,32.0966 157.933,35.0966 161,37.5C 165.779,45.7215 169.446,54.3882 172,63.5C 174.103,77.2565 173.603,90.9232 170.5,104.5C 168.539,106.312 166.206,107.312 163.5,107.5C 166.476,88.5701 164.476,70.2368 157.5,52.5C 153.751,47.7683 150.084,43.1016 146.5,38.5C 145.043,36.3718 144.043,34.0384 143.5,31.5C 142.167,31.5 140.833,31.5 139.5,31.5C 139.607,29.0968 138.607,27.2635 136.5,26C 134.004,24.9196 131.67,23.5862 129.5,22C 124.183,21.6689 119.183,20.3356 114.5,18C 107.508,17.5004 100.508,17.3337 93.5,17.5C 92.3915,16.71 91.0581,16.21 89.5,16C 90.5,15.6667 91.5,15.3333 92.5,15C 88.4686,14.5193 84.4686,13.8527 80.5,13C 80.0426,12.586 79.7093,12.086 79.5,11.5C 81.3529,10.2404 83.1862,10.2404 85,11.5C 89.041,8.15498 93.7077,6.82165 99,7.5C 108.412,9.44854 117.912,11.2819 127.5,13C 129.249,13.7848 130.916,14.6182 132.5,15.5 Z"/></g>
<g><path style="opacity:0.224" fill="#b17356" d="M 136.5,33.5 C 140.5,35.5 143.5,38.5 145.5,42.5C 142.167,39.8333 139.167,36.8333 136.5,33.5 Z"/></g>
<g><path style="opacity:1" fill="#76320c" d="M 62.5,16.5 C 61.7629,18.3046 60.7629,19.9713 59.5,21.5C 56.0559,24.7859 52.2225,27.4526 48,29.5C 47.5172,30.448 47.3505,31.448 47.5,32.5C 43.888,33.8369 41.2213,36.3369 39.5,40C 41.5675,40.6869 43.5675,40.5202 45.5,39.5C 48.527,36.473 51.527,33.473 54.5,30.5C 55.3857,29.675 55.719,28.675 55.5,27.5C 57.8771,27.2155 60.0438,27.2155 62,27.5C 65.4224,25.081 69.2557,23.7477 73.5,23.5C 70.6032,25.7783 67.2699,27.2783 63.5,28C 61.0038,29.331 59.0038,31.1644 57.5,33.5C 54.3914,34.7734 51.3914,36.2734 48.5,38C 47.6112,41.3759 45.4445,43.5426 42,44.5C 38.6667,49.8333 35.3333,55.1667 32,60.5C 31.5172,61.448 31.3505,62.448 31.5,63.5C 27.7812,66.4796 25.7812,65.4796 25.5,60.5C 26.7397,55.2204 28.7397,50.2204 31.5,45.5C 31.2811,44.062 30.7811,42.7287 30,41.5C 27.576,47.3599 24.4093,52.6932 20.5,57.5C 23.1405,50.2148 26.8072,43.5482 31.5,37.5C 31.5,39.1667 31.5,40.8333 31.5,42.5C 34.47,41.6916 36.3034,39.6916 37,36.5C 41.0291,34.4783 43.5291,31.3116 44.5,27C 48.4103,25.0934 51.7436,22.4267 54.5,19C 57.4123,18.7248 60.079,17.8914 62.5,16.5 Z"/></g>
<g><path style="opacity:0.995" fill="#6f4028" d="M 162.5,34.5 C 169.183,41.5306 173.517,49.864 175.5,59.5C 174.322,55.8196 172.155,52.8196 169,50.5C 167.112,45.0563 164.945,39.7229 162.5,34.5 Z"/></g>
<g><path style="opacity:0.075" fill="#a67957" d="M 46.5,47.5 C 44.0753,51.3523 41.4086,55.019 38.5,58.5C 39.9462,53.9391 42.6129,50.2724 46.5,47.5 Z"/></g>
<g><path style="opacity:1" fill="#4d1d09" d="M 31.5,63.5 C 31.81,64.7383 32.31,64.7383 33,63.5C 33.1667,64.1667 33.3333,64.8333 33.5,65.5C 32.5601,68.1316 32.3934,70.7983 33,73.5C 33.6708,74.2524 34.5041,74.5858 35.5,74.5C 38.7089,76.2651 41.7089,78.2651 44.5,80.5C 45.5624,81.5754 45.5624,82.5754 44.5,83.5C 40.6645,81.6872 36.6645,81.1872 32.5,82C 31.695,83.1127 31.0283,84.2794 30.5,85.5C 29.5416,85.9528 28.7083,86.6195 28,87.5C 27.8184,90.2263 27.3184,92.8929 26.5,95.5C 25.2638,94.7542 23.9305,94.4208 22.5,94.5C 18.9933,92.6079 15.3266,91.4412 11.5,91C 10.0219,94.6946 9.02189,98.528 8.5,102.5C 6.05755,105.465 5.05755,108.965 5.5,113C 5.48277,117.277 6.14944,121.444 7.5,125.5C 7.33333,126.167 7.16667,126.833 7,127.5C 6.06564,126.142 5.2323,124.808 4.5,123.5C 4.5,113.833 4.5,104.167 4.5,94.5C 5.81146,86.6751 5.81146,78.8417 4.5,71C 4.45664,66.7885 6.12331,63.4552 9.5,61C 13.2439,59.9825 16.9105,58.8159 20.5,57.5C 24.4093,52.6932 27.576,47.3599 30,41.5C 30.7811,42.7287 31.2811,44.062 31.5,45.5C 28.7397,50.2204 26.7397,55.2204 25.5,60.5C 25.7812,65.4796 27.7812,66.4796 31.5,63.5 Z"/></g>
<g><path style="opacity:1" fill="#4c1a06" d="M 119.5,5.5 C 123.769,6.69918 128.103,7.69918 132.5,8.5C 137.245,12.0517 142.245,15.385 147.5,18.5C 150.452,22.1185 153.785,25.4519 157.5,28.5C 158.419,31.0892 160.086,33.0892 162.5,34.5C 164.945,39.7229 167.112,45.0563 169,50.5C 172.155,52.8196 174.322,55.8196 175.5,59.5C 176.218,68.4818 176.552,77.4818 176.5,86.5C 176.5,89.1667 176.5,91.8333 176.5,94.5C 175.509,100.979 175.176,107.646 175.5,114.5C 174.672,108.347 174.172,102.013 174,95.5C 173.667,98.1667 173.333,100.833 173,103.5C 172.667,103.167 172.333,102.833 172,102.5C 171.722,103.416 171.222,104.082 170.5,104.5C 173.603,90.9232 174.103,77.2565 172,63.5C 169.446,54.3882 165.779,45.7215 161,37.5C 157.933,35.0966 155.6,32.0966 154,28.5C 152.829,27.1068 151.329,26.2735 149.5,26C 147.387,21.7859 144.053,19.2859 139.5,18.5C 139.5,17.5 139.5,16.5 139.5,15.5C 137.167,15.5 134.833,15.5 132.5,15.5C 132.033,12.7026 130.367,11.3692 127.5,11.5C 124.454,8.63768 120.788,6.80434 116.5,6C 117.448,5.51722 118.448,5.35055 119.5,5.5 Z"/></g>
<g><path style="opacity:1" fill="#7a3107" d="M 11.5,63.5 C 15.1817,63.3347 18.8484,63.5014 22.5,64C 25.4173,67.2429 27.9173,70.7429 30,74.5C 30.3247,76.5527 29.9913,78.5527 29,80.5C 27.3189,82.5482 25.8189,84.7148 24.5,87C 22.5,87.6667 20.5,87.6667 18.5,87C 15.3077,84.138 12.141,81.3047 9,78.5C 7.86961,73.0802 8.70294,68.0802 11.5,63.5 Z"/></g>
<g><path style="opacity:0.082" fill="#966248" d="M 175.5,59.5 C 176.975,64.7574 177.642,70.2574 177.5,76C 177.499,79.6833 177.165,83.1833 176.5,86.5C 176.552,77.4818 176.218,68.4818 175.5,59.5 Z"/></g>
<g><path style="opacity:1" fill="#7d3104" d="M 38.5,99.5 C 35.2873,98.1338 32.454,96.1338 30,93.5C 29.2967,91.0709 29.4634,88.7375 30.5,86.5C 33.2601,85.2265 36.0935,84.2265 39,83.5C 42.4249,86.0458 46.2582,88.0458 50.5,89.5C 51.0045,92.3418 52.6711,93.6751 55.5,93.5C 55.8204,96.8984 55.487,100.232 54.5,103.5C 49.7934,105.864 45.7934,104.864 42.5,100.5C 41.2638,99.7542 39.9305,99.4208 38.5,99.5 Z"/></g>
<g><path style="opacity:0.253" fill="#8c5f44" d="M 158.5,74.5 C 160.981,82.6411 161.147,90.9745 159,99.5C 158.722,100.416 158.222,101.082 157.5,101.5C 158.211,97.0202 158.878,92.5202 159.5,88C 158.736,83.5302 158.403,79.0302 158.5,74.5 Z"/></g>
<g><path style="opacity:0.275" fill="#9b6b4d" d="M 58.5,88.5 C 68.1094,92.8099 77.7761,96.8099 87.5,100.5C 76.9093,98.4229 67.2426,94.4229 58.5,88.5 Z"/></g>
<g><path style="opacity:1" fill="#4e1a03" d="M 58.5,88.5 C 67.2426,94.4229 76.9093,98.4229 87.5,100.5C 88.4293,101.315 89.4293,102.148 90.5,103C 94.1704,103.548 97.8371,104.048 101.5,104.5C 105.857,106.419 110.523,107.419 115.5,107.5C 115.833,107.5 116.167,107.5 116.5,107.5C 118.167,108.167 119.833,108.833 121.5,109.5C 120.127,109.343 118.793,109.51 117.5,110C 119.32,110.2 120.653,111.034 121.5,112.5C 115.929,111.953 110.429,110.953 105,109.5C 102.178,110.275 99.3443,110.942 96.5,111.5C 96.4302,116.609 97.0969,121.609 98.5,126.5C 95.4359,126.856 92.7693,126.023 90.5,124C 93.897,118.404 94.2303,112.738 91.5,107C 85.1044,103.658 78.4377,100.658 71.5,98C 68.9615,97.2042 66.6282,97.3709 64.5,98.5C 61.3645,99.655 59.6979,101.988 59.5,105.5C 58.9009,108.886 60.2342,110.886 63.5,111.5C 63.3691,112.376 63.7025,113.043 64.5,113.5C 67.2426,113.928 69.5759,115.095 71.5,117C 74.8831,117.875 78.2165,118.875 81.5,120C 83.8418,121.392 83.8418,122.225 81.5,122.5C 66.2059,118.361 51.5392,112.861 37.5,106C 35.4028,102.775 32.4028,100.775 28.5,100C 26.6038,97.932 24.6038,96.0987 22.5,94.5C 23.9305,94.4208 25.2638,94.7542 26.5,95.5C 27.3184,92.8929 27.8184,90.2263 28,87.5C 28.7083,86.6195 29.5416,85.9528 30.5,85.5C 30.5,85.8333 30.5,86.1667 30.5,86.5C 29.4634,88.7375 29.2967,91.0709 30,93.5C 32.454,96.1338 35.2873,98.1338 38.5,99.5C 40.9374,101.433 43.2707,103.6 45.5,106C 51.8585,109.404 55.6919,107.571 57,100.5C 57.8184,97.7728 57.6517,95.1062 56.5,92.5C 53.9338,89.5404 50.9338,87.0404 47.5,85C 51.1993,85.8176 54.866,86.9843 58.5,88.5 Z"/></g>
<g><path style="opacity:1" fill="#783107" d="M 22.5,94.5 C 24.6038,96.0987 26.6038,97.932 28.5,100C 32.4028,100.775 35.4028,102.775 37.5,106C 51.5392,112.861 66.2059,118.361 81.5,122.5C 82.2299,123.712 83.2299,124.712 84.5,125.5C 89.4251,126.741 94.4251,127.407 99.5,127.5C 99.5429,124.133 99.2096,120.799 98.5,117.5C 98.4858,115.407 99.1524,113.574 100.5,112C 104.157,111.949 107.823,112.282 111.5,113C 114.688,114.63 118.021,115.796 121.5,116.5C 122.364,122.467 120.031,126.633 114.5,129C 115.167,129.333 115.833,129.667 116.5,130C 114.919,130.707 113.419,131.54 112,132.5C 110.763,136.06 110.263,139.727 110.5,143.5C 109.188,142.855 108.188,141.855 107.5,140.5C 107.409,136.741 107.743,133.241 108.5,130C 100.192,128.835 91.8589,127.835 83.5,127C 78.729,122.888 73.729,122.555 68.5,126C 69.7375,126.232 70.7375,126.732 71.5,127.5C 73.2396,130.424 75.2396,133.258 77.5,136C 78.5,136.667 79.5,136.667 80.5,136C 82.0429,133.052 84.2095,132.218 87,133.5C 87.1667,134.333 87.3333,135.167 87.5,136C 85.9163,141.08 83.7497,145.913 81,150.5C 80.8294,159.01 80.3294,167.343 79.5,175.5C 79.3336,166.494 79.5002,157.494 80,148.5C 82.3868,145.06 84.2202,141.393 85.5,137.5C 85.1667,136.5 84.8333,135.5 84.5,134.5C 82.1192,136.385 79.9525,138.385 78,140.5C 76.1157,138.55 74.7824,136.216 74,133.5C 72.1667,131.833 70.3333,130.167 68.5,128.5C 68.1667,129 67.8333,129.5 67.5,130C 69.1109,132.21 69.7776,134.71 69.5,137.5C 66.126,134.926 64.126,131.426 63.5,127C 63.6431,124.849 64.6431,123.182 66.5,122C 61.6751,121.028 57.0084,119.528 52.5,117.5C 51.8933,117.624 51.56,117.957 51.5,118.5C 49.8058,119.527 48.4725,120.861 47.5,122.5C 47.5,120.833 47.5,119.167 47.5,117.5C 44.2824,118.188 41.1157,119.188 38,120.5C 36.0614,120.046 34.228,119.379 32.5,118.5C 32.2785,115.933 31.6118,113.599 30.5,111.5C 27.6005,106.284 24.9338,106.284 22.5,111.5C 23.1556,113.453 23.4889,115.453 23.5,117.5C 22.2658,115.799 21.5992,113.799 21.5,111.5C 22.1722,108.488 22.8389,105.488 23.5,102.5C 21.4357,102.313 19.4357,101.813 17.5,101C 18.4061,99.3005 18.7394,97.4672 18.5,95.5C 16.4247,95.3016 14.4247,95.1349 12.5,95C 13.1667,96.3333 13.8333,97.6667 14.5,99C 12.9471,101.655 11.7804,104.488 11,107.5C 10.3333,113.833 10.3333,120.167 11,126.5C 13.8655,134.096 16.5321,141.763 19,149.5C 20.6996,152.52 22.3663,155.52 24,158.5C 29.9678,162.895 36.1345,166.895 42.5,170.5C 43.6138,171.885 44.6138,173.385 45.5,175C 49.8526,176.507 53.8526,178.674 57.5,181.5C 59.9732,182.797 62.3066,182.797 64.5,181.5C 69.5483,183.011 74.5483,184.344 79.5,185.5C 72.6752,184.121 65.6752,183.455 58.5,183.5C 53.3817,181.386 48.0484,179.886 42.5,179C 41.4147,176.828 40.0814,174.828 38.5,173C 35.4182,171.591 32.5849,169.758 30,167.5C 25.852,163.2 22.1853,158.533 19,153.5C 14.9337,144.804 11.6004,135.804 9,126.5C 8.50029,118.507 8.33362,110.507 8.5,102.5C 9.02189,98.528 10.0219,94.6946 11.5,91C 15.3266,91.4412 18.9933,92.6079 22.5,94.5 Z"/></g>
<g><path style="opacity:1" fill="#7f3101" d="M 23.5,117.5 C 25.1784,120.687 26.5117,124.02 27.5,127.5C 23.4546,127.87 20.4546,129.87 18.5,133.5C 19.0983,134.795 19.5983,136.128 20,137.5C 22.9766,139.153 25.4766,140.819 27.5,142.5C 26.675,143.386 25.675,143.719 24.5,143.5C 24.4914,145.308 24.9914,146.975 26,148.5C 27.6851,150.017 29.1851,151.684 30.5,153.5C 30.2907,154.086 29.9574,154.586 29.5,155C 32.3712,155.131 34.7046,156.297 36.5,158.5C 37.735,157.66 38.735,156.66 39.5,155.5C 40.6751,156.974 41.6751,158.64 42.5,160.5C 44.2303,161.026 45.5637,162.026 46.5,163.5C 46.1203,165.021 45.9536,166.687 46,168.5C 44.8873,169.305 43.7206,169.972 42.5,170.5C 36.1345,166.895 29.9678,162.895 24,158.5C 22.3663,155.52 20.6996,152.52 19,149.5C 16.5321,141.763 13.8655,134.096 11,126.5C 10.3333,120.167 10.3333,113.833 11,107.5C 11.7804,104.488 12.9471,101.655 14.5,99C 13.8333,97.6667 13.1667,96.3333 12.5,95C 14.4247,95.1349 16.4247,95.3016 18.5,95.5C 18.7394,97.4672 18.4061,99.3005 17.5,101C 19.4357,101.813 21.4357,102.313 23.5,102.5C 22.8389,105.488 22.1722,108.488 21.5,111.5C 21.5992,113.799 22.2658,115.799 23.5,117.5 Z"/></g>
<g><path style="opacity:0.176" fill="#ae7a5f" d="M 87.5,100.5 C 92.4385,101.231 97.1051,102.565 101.5,104.5C 97.8371,104.048 94.1704,103.548 90.5,103C 89.4293,102.148 88.4293,101.315 87.5,100.5 Z"/></g>
<g><path style="opacity:1" fill="#6b3011" d="M 44.5,80.5 C 49.5003,82.6643 54.167,85.331 58.5,88.5C 54.866,86.9843 51.1993,85.8176 47.5,85C 50.9338,87.0404 53.9338,89.5404 56.5,92.5C 57.6517,95.1062 57.8184,97.7728 57,100.5C 55.6919,107.571 51.8585,109.404 45.5,106C 43.2707,103.6 40.9374,101.433 38.5,99.5C 39.9305,99.4208 41.2638,99.7542 42.5,100.5C 45.7934,104.864 49.7934,105.864 54.5,103.5C 55.487,100.232 55.8204,96.8984 55.5,93.5C 52.6711,93.6751 51.0045,92.3418 50.5,89.5C 46.2582,88.0458 42.4249,86.0458 39,83.5C 36.0935,84.2265 33.2601,85.2265 30.5,86.5C 30.5,86.1667 30.5,85.8333 30.5,85.5C 31.0283,84.2794 31.695,83.1127 32.5,82C 36.6645,81.1872 40.6645,81.6872 44.5,83.5C 45.5624,82.5754 45.5624,81.5754 44.5,80.5 Z"/></g>
<g><path style="opacity:0.082" fill="#be9175" d="M 101.5,104.5 C 106.412,104.898 111.079,105.898 115.5,107.5C 110.523,107.419 105.857,106.419 101.5,104.5 Z"/></g>
<g><path style="opacity:0.512" fill="#79482c" d="M 4.5,94.5 C 4.5,104.167 4.5,113.833 4.5,123.5C 1.93479,113.826 1.93479,104.159 4.5,94.5 Z"/></g>
<g><path style="opacity:1" fill="#7d3204" d="M 64.5,98.5 C 66.1992,98.3398 67.8659,98.5065 69.5,99C 74.7956,101.33 80.1289,103.663 85.5,106C 87,106.833 88.1667,108 89,109.5C 89.2868,111.891 89.7868,114.224 90.5,116.5C 89.9744,118.23 88.9744,119.564 87.5,120.5C 85.4451,118.445 83.1117,116.779 80.5,115.5C 79.8333,115.833 79.1667,116.167 78.5,116.5C 73.7416,113.358 68.7416,111.691 63.5,111.5C 60.2342,110.886 58.9009,108.886 59.5,105.5C 59.6979,101.988 61.3645,99.655 64.5,98.5 Z"/></g>
<g><path style="opacity:0.197" fill="#8f5f44" d="M 154.5,106.5 C 153.547,108.61 151.881,109.777 149.5,110C 140.139,110.721 130.806,110.554 121.5,109.5C 119.833,108.833 118.167,108.167 116.5,107.5C 127.131,108.876 137.798,109.376 148.5,109C 150.628,108.345 152.628,107.511 154.5,106.5 Z"/></g>
<g><path style="opacity:1" fill="#74310b" d="M 154.5,129.5 C 151.895,124.226 151.895,118.892 154.5,113.5C 160.521,110.558 166.355,110.891 172,114.5C 173.346,120.306 171.513,124.806 166.5,128C 162.605,129.266 158.605,129.766 154.5,129.5 Z"/></g>
<g><path style="opacity:1" fill="#632808" d="M 30.5,111.5 C 28.6854,110.37 26.6854,109.704 24.5,109.5C 26.7415,115.003 28.7415,120.67 30.5,126.5C 28.9449,129.404 26.9449,132.07 24.5,134.5C 27.3687,135.078 30.0353,136.078 32.5,137.5C 33.2177,142.182 33.8843,146.849 34.5,151.5C 34.8333,151.833 35.1667,152.167 35.5,152.5C 36.3309,145.858 36.8309,139.191 37,132.5C 37.8333,130.833 38.6667,129.167 39.5,127.5C 42.3686,125.466 44.7019,122.966 46.5,120C 46.1667,119.5 45.8333,119 45.5,118.5C 42.4565,120.713 39.2899,122.713 36,124.5C 33.5693,123.314 32.4027,121.314 32.5,118.5C 34.228,119.379 36.0614,120.046 38,120.5C 41.1157,119.188 44.2824,118.188 47.5,117.5C 47.5,119.167 47.5,120.833 47.5,122.5C 43.6306,125.884 40.464,129.884 38,134.5C 38.3051,141.15 38.3051,147.817 38,154.5C 34.9834,156.021 33.15,155.021 32.5,151.5C 31.6725,147.204 31.1725,142.871 31,138.5C 28.9307,137.736 26.764,137.236 24.5,137C 23.6433,136.311 22.9767,135.478 22.5,134.5C 25.0358,131.801 27.3691,128.968 29.5,126C 28.0756,122.611 26.0756,119.777 23.5,117.5C 23.4889,115.453 23.1556,113.453 22.5,111.5C 24.9338,106.284 27.6005,106.284 30.5,111.5 Z"/></g>
<g><path style="opacity:1" fill="#73300b" d="M 64.5,98.5 C 66.6282,97.3709 68.9615,97.2042 71.5,98C 78.4377,100.658 85.1044,103.658 91.5,107C 94.2303,112.738 93.897,118.404 90.5,124C 92.7693,126.023 95.4359,126.856 98.5,126.5C 97.0969,121.609 96.4302,116.609 96.5,111.5C 99.3443,110.942 102.178,110.275 105,109.5C 110.429,110.953 115.929,111.953 121.5,112.5C 123.511,116.863 124.011,121.529 123,126.5C 122.02,127.981 120.853,129.315 119.5,130.5C 126.654,132.772 133.987,133.772 141.5,133.5C 148.11,134.855 154.777,136.021 161.5,137C 163.077,139.86 162.41,142.027 159.5,143.5C 159.224,147.628 157.391,150.962 154,153.5C 153.392,155.154 152.892,156.821 152.5,158.5C 143.457,167.206 133.79,175.206 123.5,182.5C 124.167,182.833 124.833,183.167 125.5,183.5C 128.183,182.49 130.849,181.49 133.5,180.5C 128.527,184.485 122.86,187.152 116.5,188.5C 118.289,186.993 120.289,185.66 122.5,184.5C 121.833,184.167 121.167,183.833 120.5,183.5C 113.436,185.501 106.436,187.501 99.5,189.5C 98.8333,189.5 98.1667,189.5 97.5,189.5C 83.8389,190.828 70.8389,188.828 58.5,183.5C 65.6752,183.455 72.6752,184.121 79.5,185.5C 87.3225,186.656 95.3225,186.823 103.5,186C 107.196,184.031 111.196,183.031 115.5,183C 117.275,181.561 119.275,180.561 121.5,180C 122.631,173.956 119.965,171.123 113.5,171.5C 113.009,174.01 112.009,176.344 110.5,178.5C 105.55,179.458 100.55,180.124 95.5,180.5C 96.0986,176.701 97.5986,173.368 100,170.5C 103.808,168.347 107.308,165.847 110.5,163C 111.64,161.027 112.973,159.193 114.5,157.5C 112.952,152.859 111.618,148.193 110.5,143.5C 110.263,139.727 110.763,136.06 112,132.5C 113.419,131.54 114.919,130.707 116.5,130C 115.833,129.667 115.167,129.333 114.5,129C 120.031,126.633 122.364,122.467 121.5,116.5C 118.021,115.796 114.688,114.63 111.5,113C 107.823,112.282 104.157,111.949 100.5,112C 99.1524,113.574 98.4858,115.407 98.5,117.5C 99.2096,120.799 99.5429,124.133 99.5,127.5C 94.4251,127.407 89.4251,126.741 84.5,125.5C 83.2299,124.712 82.2299,123.712 81.5,122.5C 83.8418,122.225 83.8418,121.392 81.5,120C 78.2165,118.875 74.8831,117.875 71.5,117C 69.5759,115.095 67.2426,113.928 64.5,113.5C 63.7025,113.043 63.3691,112.376 63.5,111.5C 68.7416,111.691 73.7416,113.358 78.5,116.5C 79.1667,116.167 79.8333,115.833 80.5,115.5C 83.1117,116.779 85.4451,118.445 87.5,120.5C 88.9744,119.564 89.9744,118.23 90.5,116.5C 89.7868,114.224 89.2868,111.891 89,109.5C 88.1667,108 87,106.833 85.5,106C 80.1289,103.663 74.7956,101.33 69.5,99C 67.8659,98.5065 66.1992,98.3398 64.5,98.5 Z"/></g>
<g><path style="opacity:0.902" fill="#6b3e25" d="M 176.5,94.5 C 176.602,103.855 176.768,113.189 177,122.5C 175.071,127.563 172.571,132.23 169.5,136.5C 167.681,132.307 169.014,129.64 173.5,128.5C 174.982,123.985 175.648,119.319 175.5,114.5C 175.176,107.646 175.509,100.979 176.5,94.5 Z"/></g>
<g><path style="opacity:1" fill="#521c03" d="M 121.5,112.5 C 123.833,113.833 126.167,115.167 128.5,116.5C 126.406,121.975 127.739,126.475 132.5,130C 137.167,130.667 141.833,130.667 146.5,130C 147.814,124.864 147.814,119.697 146.5,114.5C 142.893,113.511 139.226,113.177 135.5,113.5C 141.67,112.528 148.003,112.528 154.5,113.5C 151.895,118.892 151.895,124.226 154.5,129.5C 151.682,127.175 149.348,127.841 147.5,131.5C 145.369,132.169 143.369,132.835 141.5,133.5C 133.987,133.772 126.654,132.772 119.5,130.5C 120.853,129.315 122.02,127.981 123,126.5C 124.011,121.529 123.511,116.863 121.5,112.5 Z"/></g>
<g><path style="opacity:1" fill="#773309" d="M 135.5,113.5 C 139.226,113.177 142.893,113.511 146.5,114.5C 147.814,119.697 147.814,124.864 146.5,130C 141.833,130.667 137.167,130.667 132.5,130C 127.739,126.475 126.406,121.975 128.5,116.5C 130.645,115.011 132.978,114.011 135.5,113.5 Z"/></g>
<g><path style="opacity:1" fill="#7f3101" d="M 110.5,143.5 C 111.618,148.193 112.952,152.859 114.5,157.5C 112.973,159.193 111.64,161.027 110.5,163C 107.308,165.847 103.808,168.347 100,170.5C 97.5986,173.368 96.0986,176.701 95.5,180.5C 100.55,180.124 105.55,179.458 110.5,178.5C 112.009,176.344 113.009,174.01 113.5,171.5C 119.965,171.123 122.631,173.956 121.5,180C 119.275,180.561 117.275,181.561 115.5,183C 111.196,183.031 107.196,184.031 103.5,186C 95.3225,186.823 87.3225,186.656 79.5,185.5C 74.5483,184.344 69.5483,183.011 64.5,181.5C 63.9033,181.265 63.5699,180.765 63.5,180C 64.8354,178.326 66.1688,176.659 67.5,175C 65.98,173.115 64.98,170.949 64.5,168.5C 65.0253,167.808 65.6919,167.308 66.5,167C 65.7476,166.329 65.4142,165.496 65.5,164.5C 67.3146,163.37 69.3146,162.704 71.5,162.5C 71.1146,167.28 70.1146,171.947 68.5,176.5C 68.8333,177.5 69.1667,178.5 69.5,179.5C 73.253,179.787 77.0863,180.787 81,182.5C 83.9517,180.807 84.1183,178.974 81.5,177C 81.679,168.753 82.179,160.586 83,152.5C 84.2457,148.079 86.2457,144.079 89,140.5C 89.9286,137.225 89.4286,134.225 87.5,131.5C 85.9255,130.369 84.2588,130.202 82.5,131C 78.6982,135.633 76.1982,134.799 75,128.5C 73.9887,127.663 72.8221,127.33 71.5,127.5C 70.7375,126.732 69.7375,126.232 68.5,126C 73.729,122.555 78.729,122.888 83.5,127C 91.8589,127.835 100.192,128.835 108.5,130C 107.743,133.241 107.409,136.741 107.5,140.5C 108.188,141.855 109.188,142.855 110.5,143.5 Z"/></g>
<g><path style="opacity:1" fill="#4a1701" d="M 30.5,111.5 C 31.6118,113.599 32.2785,115.933 32.5,118.5C 32.4027,121.314 33.5693,123.314 36,124.5C 39.2899,122.713 42.4565,120.713 45.5,118.5C 45.8333,119 46.1667,119.5 46.5,120C 44.7019,122.966 42.3686,125.466 39.5,127.5C 38.6667,129.167 37.8333,130.833 37,132.5C 36.8309,139.191 36.3309,145.858 35.5,152.5C 35.1667,152.167 34.8333,151.833 34.5,151.5C 33.8843,146.849 33.2177,142.182 32.5,137.5C 30.0353,136.078 27.3687,135.078 24.5,134.5C 26.9449,132.07 28.9449,129.404 30.5,126.5C 28.7415,120.67 26.7415,115.003 24.5,109.5C 26.6854,109.704 28.6854,110.37 30.5,111.5 Z"/></g>
<g><path style="opacity:1" fill="#7f3101" d="M 69.5,137.5 C 72.3951,147.733 68.7285,153.733 58.5,155.5C 56.2871,154.655 54.1204,154.655 52,155.5C 50.082,154.458 48.2487,153.292 46.5,152C 48.8947,150.078 51.5614,148.578 54.5,147.5C 55.1667,148.167 55.8333,148.833 56.5,149.5C 58.0009,148.248 59.6675,147.248 61.5,146.5C 62.6405,145.575 62.6405,144.741 61.5,144C 60.2068,143.51 58.8734,143.343 57.5,143.5C 57.7989,141.396 57.4656,139.396 56.5,137.5C 55.1934,138.816 53.6934,139.816 52,140.5C 51.5172,141.448 51.3505,142.448 51.5,143.5C 50.1779,143.67 49.0113,143.337 48,142.5C 47.0784,138.309 47.4118,134.309 49,130.5C 49.4244,134.19 50.2577,134.357 51.5,131C 50.6634,129.989 50.33,128.822 50.5,127.5C 49.448,127.649 48.448,127.483 47.5,127C 50.0108,124.674 51.3441,121.841 51.5,118.5C 51.56,117.957 51.8933,117.624 52.5,117.5C 57.0084,119.528 61.6751,121.028 66.5,122C 64.6431,123.182 63.6431,124.849 63.5,127C 64.126,131.426 66.126,134.926 69.5,137.5 Z"/></g>
<g><path style="opacity:0.986" fill="#481a06" d="M 146.5,38.5 C 150.084,43.1016 153.751,47.7683 157.5,52.5C 164.476,70.2368 166.476,88.5701 163.5,107.5C 166.206,107.312 168.539,106.312 170.5,104.5C 171.222,104.082 171.722,103.416 172,102.5C 172.333,102.833 172.667,103.167 173,103.5C 173.333,100.833 173.667,98.1667 174,95.5C 174.172,102.013 174.672,108.347 175.5,114.5C 175.648,119.319 174.982,123.985 173.5,128.5C 169.014,129.64 167.681,132.307 169.5,136.5C 167.654,138.03 166.654,140.03 166.5,142.5C 166.008,144.819 165.008,146.819 163.5,148.5C 159.418,150.645 156.751,153.979 155.5,158.5C 154.473,157.209 153.473,157.209 152.5,158.5C 152.892,156.821 153.392,155.154 154,153.5C 157.391,150.962 159.224,147.628 159.5,143.5C 162.41,142.027 163.077,139.86 161.5,137C 154.777,136.021 148.11,134.855 141.5,133.5C 143.369,132.835 145.369,132.169 147.5,131.5C 149.348,127.841 151.682,127.175 154.5,129.5C 158.605,129.766 162.605,129.266 166.5,128C 171.513,124.806 173.346,120.306 172,114.5C 166.355,110.891 160.521,110.558 154.5,113.5C 148.003,112.528 141.67,112.528 135.5,113.5C 132.978,114.011 130.645,115.011 128.5,116.5C 126.167,115.167 123.833,113.833 121.5,112.5C 120.653,111.034 119.32,110.2 117.5,110C 118.793,109.51 120.127,109.343 121.5,109.5C 130.806,110.554 140.139,110.721 149.5,110C 151.881,109.777 153.547,108.61 154.5,106.5C 155.11,104.566 156.11,102.899 157.5,101.5C 158.222,101.082 158.722,100.416 159,99.5C 161.147,90.9745 160.981,82.6411 158.5,74.5C 156.899,62.692 152.566,52.0254 145.5,42.5C 143.5,38.5 140.5,35.5 136.5,33.5C 135.697,32.5768 135.53,31.5768 136,30.5C 139.376,33.3826 142.876,36.0493 146.5,38.5 Z"/></g>
<g><path style="opacity:0.09" fill="#a1784c" d="M 169.5,136.5 C 169.346,138.97 168.346,140.97 166.5,142.5C 166.654,140.03 167.654,138.03 169.5,136.5 Z"/></g>
<g><path style="opacity:1" fill="#7f3002" d="M 53.5,164.5 C 57.7009,165.067 61.7009,165.067 65.5,164.5C 65.4142,165.496 65.7476,166.329 66.5,167C 65.6919,167.308 65.0253,167.808 64.5,168.5C 64.98,170.949 65.98,173.115 67.5,175C 66.1688,176.659 64.8354,178.326 63.5,180C 63.5699,180.765 63.9033,181.265 64.5,181.5C 62.3066,182.797 59.9732,182.797 57.5,181.5C 53.8526,178.674 49.8526,176.507 45.5,175C 44.6138,173.385 43.6138,171.885 42.5,170.5C 43.7206,169.972 44.8873,169.305 46,168.5C 45.9536,166.687 46.1203,165.021 46.5,163.5C 45.5637,162.026 44.2303,161.026 42.5,160.5C 41.6751,158.64 40.6751,156.974 39.5,155.5C 40.0067,151.396 40.84,147.396 42,143.5C 44.273,145.454 45.4397,147.954 45.5,151C 45.1042,153.54 44.9375,156.04 45,158.5C 46.0674,159.191 47.2341,159.691 48.5,160C 48.8333,161 49.1667,162 49.5,163C 50.9007,163.41 52.234,163.91 53.5,164.5 Z"/></g>
<g><path style="opacity:1" fill="#7d3203" d="M 23.5,117.5 C 26.0756,119.777 28.0756,122.611 29.5,126C 27.3691,128.968 25.0358,131.801 22.5,134.5C 22.9767,135.478 23.6433,136.311 24.5,137C 26.764,137.236 28.9307,137.736 31,138.5C 31.1725,142.871 31.6725,147.204 32.5,151.5C 33.15,155.021 34.9834,156.021 38,154.5C 38.3051,147.817 38.3051,141.15 38,134.5C 40.464,129.884 43.6306,125.884 47.5,122.5C 48.4725,120.861 49.8058,119.527 51.5,118.5C 51.3441,121.841 50.0108,124.674 47.5,127C 48.448,127.483 49.448,127.649 50.5,127.5C 50.33,128.822 50.6634,129.989 51.5,131C 50.2577,134.357 49.4244,134.19 49,130.5C 47.4118,134.309 47.0784,138.309 48,142.5C 49.0113,143.337 50.1779,143.67 51.5,143.5C 51.3505,142.448 51.5172,141.448 52,140.5C 53.6934,139.816 55.1934,138.816 56.5,137.5C 57.4656,139.396 57.7989,141.396 57.5,143.5C 58.8734,143.343 60.2068,143.51 61.5,144C 62.6405,144.741 62.6405,145.575 61.5,146.5C 59.6675,147.248 58.0009,148.248 56.5,149.5C 55.8333,148.833 55.1667,148.167 54.5,147.5C 51.5614,148.578 48.8947,150.078 46.5,152C 48.2487,153.292 50.082,154.458 52,155.5C 54.1204,154.655 56.2871,154.655 58.5,155.5C 57.4664,157.553 55.9664,159.22 54,160.5C 53.51,161.793 53.3433,163.127 53.5,164.5C 52.234,163.91 50.9007,163.41 49.5,163C 49.1667,162 48.8333,161 48.5,160C 47.2341,159.691 46.0674,159.191 45,158.5C 44.9375,156.04 45.1042,153.54 45.5,151C 45.4397,147.954 44.273,145.454 42,143.5C 40.84,147.396 40.0067,151.396 39.5,155.5C 38.735,156.66 37.735,157.66 36.5,158.5C 34.7046,156.297 32.3712,155.131 29.5,155C 29.9574,154.586 30.2907,154.086 30.5,153.5C 29.1851,151.684 27.6851,150.017 26,148.5C 24.9914,146.975 24.4914,145.308 24.5,143.5C 25.675,143.719 26.675,143.386 27.5,142.5C 25.4766,140.819 22.9766,139.153 20,137.5C 19.5983,136.128 19.0983,134.795 18.5,133.5C 20.4546,129.87 23.4546,127.87 27.5,127.5C 26.5117,124.02 25.1784,120.687 23.5,117.5 Z"/></g>
<g><path style="opacity:1" fill="#77320a" d="M 71.5,127.5 C 72.8221,127.33 73.9887,127.663 75,128.5C 76.1982,134.799 78.6982,135.633 82.5,131C 84.2588,130.202 85.9255,130.369 87.5,131.5C 89.4286,134.225 89.9286,137.225 89,140.5C 86.2457,144.079 84.2457,148.079 83,152.5C 82.179,160.586 81.679,168.753 81.5,177C 84.1183,178.974 83.9517,180.807 81,182.5C 77.0863,180.787 73.253,179.787 69.5,179.5C 69.1667,178.5 68.8333,177.5 68.5,176.5C 70.1146,171.947 71.1146,167.28 71.5,162.5C 69.3146,162.704 67.3146,163.37 65.5,164.5C 61.7009,165.067 57.7009,165.067 53.5,164.5C 53.3433,163.127 53.51,161.793 54,160.5C 55.9664,159.22 57.4664,157.553 58.5,155.5C 68.7285,153.733 72.3951,147.733 69.5,137.5C 70.7899,138.058 71.6232,139.058 72,140.5C 72.7026,143.713 72.5359,146.879 71.5,150C 69.3381,152.328 67.0048,154.494 64.5,156.5C 60.5433,157.583 57.21,159.583 54.5,162.5C 59.3316,163.505 63.6649,162.339 67.5,159C 69.8127,158.338 72.146,157.838 74.5,157.5C 74.5,164.167 74.5,170.833 74.5,177.5C 76.5542,177.635 78.2209,176.968 79.5,175.5C 80.3294,167.343 80.8294,159.01 81,150.5C 83.7497,145.913 85.9163,141.08 87.5,136C 87.3333,135.167 87.1667,134.333 87,133.5C 84.2095,132.218 82.0429,133.052 80.5,136C 79.5,136.667 78.5,136.667 77.5,136C 75.2396,133.258 73.2396,130.424 71.5,127.5 Z"/></g>
<g><path style="opacity:1" fill="#4a1901" d="M 79.5,175.5 C 78.2209,176.968 76.5542,177.635 74.5,177.5C 74.5,170.833 74.5,164.167 74.5,157.5C 72.146,157.838 69.8127,158.338 67.5,159C 63.6649,162.339 59.3316,163.505 54.5,162.5C 57.21,159.583 60.5433,157.583 64.5,156.5C 67.0048,154.494 69.3381,152.328 71.5,150C 72.5359,146.879 72.7026,143.713 72,140.5C 71.6232,139.058 70.7899,138.058 69.5,137.5C 69.7776,134.71 69.1109,132.21 67.5,130C 67.8333,129.5 68.1667,129 68.5,128.5C 70.3333,130.167 72.1667,131.833 74,133.5C 74.7824,136.216 76.1157,138.55 78,140.5C 79.9525,138.385 82.1192,136.385 84.5,134.5C 84.8333,135.5 85.1667,136.5 85.5,137.5C 84.2202,141.393 82.3868,145.06 80,148.5C 79.5002,157.494 79.3336,166.494 79.5,175.5 Z"/></g>
<g><path style="opacity:1" fill="#4b1801" d="M 113.5,171.5 C 109.882,176.037 105.216,178.037 99.5,177.5C 101.316,175.183 103.316,173.016 105.5,171C 119.134,164.765 121.301,155.599 112,143.5C 110.596,135.359 112.596,134.359 118,140.5C 119.495,154.495 123.328,155.162 129.5,142.5C 130.476,145.497 130.31,148.497 129,151.5C 127.425,153.075 126.258,154.908 125.5,157C 124.642,161.795 124.309,166.628 124.5,171.5C 122.122,170.312 119.622,169.312 117,168.5C 115.092,168.715 113.926,169.715 113.5,171.5 Z"/></g>
<g><path style="opacity:1" fill="#7e3102" d="M 159.5,143.5 C 156.216,149.067 152.216,154.067 147.5,158.5C 145.36,159.473 143.693,160.973 142.5,163C 138.822,163.009 136.655,164.843 136,168.5C 133.077,170.224 130.411,172.224 128,174.5C 127.5,174.333 127,174.167 126.5,174C 127.147,168.22 127.814,162.387 128.5,156.5C 132.789,152.363 134.289,147.363 133,141.5C 129.437,141.04 125.77,141.04 122,141.5C 119.797,139.331 118.964,136.665 119.5,133.5C 132.794,135.493 146.128,137.493 159.5,139.5C 159.5,140.833 159.5,142.167 159.5,143.5 Z"/></g>
<g><path style="opacity:0.877" fill="#57230f" d="M 8.5,102.5 C 8.33362,110.507 8.50029,118.507 9,126.5C 11.6004,135.804 14.9337,144.804 19,153.5C 22.1853,158.533 25.852,163.2 30,167.5C 32.5849,169.758 35.4182,171.591 38.5,173C 40.0814,174.828 41.4147,176.828 42.5,179C 48.0484,179.886 53.3817,181.386 58.5,183.5C 70.8389,188.828 83.8389,190.828 97.5,189.5C 96.653,190.966 95.3197,191.8 93.5,192C 88.5111,192.499 83.5111,192.666 78.5,192.5C 35.7465,188.743 11.0799,165.743 4.5,123.5C 5.2323,124.808 6.06564,126.142 7,127.5C 7.16667,126.833 7.33333,126.167 7.5,125.5C 6.14944,121.444 5.48277,117.277 5.5,113C 5.05755,108.965 6.05755,105.465 8.5,102.5 Z"/></g>
<g><path style="opacity:1" fill="#582910" d="M 163.5,148.5 C 156.603,162.064 146.603,172.731 133.5,180.5C 130.849,181.49 128.183,182.49 125.5,183.5C 124.833,183.167 124.167,182.833 123.5,182.5C 133.79,175.206 143.457,167.206 152.5,158.5C 153.473,157.209 154.473,157.209 155.5,158.5C 156.751,153.979 159.418,150.645 163.5,148.5 Z"/></g>
<g><path style="opacity:0.924" fill="#461604" d="M 116.5,188.5 C 111.811,188.948 107.145,189.615 102.5,190.5C 101.274,190.48 100.274,190.147 99.5,189.5C 106.436,187.501 113.436,185.501 120.5,183.5C 121.167,183.833 121.833,184.167 122.5,184.5C 120.289,185.66 118.289,186.993 116.5,188.5 Z"/></g>
<g><path style="opacity:0.794" fill="#7e4c33" d="M 116.5,188.5 C 104.108,192.901 91.4418,194.235 78.5,192.5C 83.5111,192.666 88.5111,192.499 93.5,192C 95.3197,191.8 96.653,190.966 97.5,189.5C 98.1667,189.5 98.8333,189.5 99.5,189.5C 100.274,190.147 101.274,190.48 102.5,190.5C 107.145,189.615 111.811,188.948 116.5,188.5 Z"/></g>
</svg>
