<?xml version="1.0" encoding="UTF-8"?>
<!DOCTYPE svg PUBLIC "-//W3C//DTD SVG 1.1//EN" "http://www.w3.org/Graphics/SVG/1.1/DTD/svg11.dtd">
<svg xmlns="http://www.w3.org/2000/svg" version="1.1" width="78px" height="110px" style="shape-rendering:geometricPrecision; text-rendering:geometricPrecision; image-rendering:optimizeQuality; fill-rule:evenodd; clip-rule:evenodd" xmlns:xlink="http://www.w3.org/1999/xlink">
<g><path style="opacity:1" fill="#421b09" d="M 26.5,23.5 C 25.7375,24.2679 24.7375,24.7679 23.5,25C 23.7284,25.3988 24.0618,25.5654 24.5,25.5C 22.0568,26.5013 20.3901,28.3346 19.5,31C 18.552,31.4828 17.552,31.6495 16.5,31.5C 15.1515,23.8884 10.6515,19.2217 3,17.5C 2.01816,14.2253 2.85149,11.5586 5.5,9.5C 8.26059,7.06003 11.2606,6.89336 14.5,9C 17.1258,13.0838 19.6258,17.2505 22,21.5C 23.6225,22.0989 25.1225,22.7656 26.5,23.5 Z"/></g>
<g><path style="opacity:0.647" fill="#ab7d5c" d="M 5.5,20.5 C 11.3059,22.777 13.3059,26.777 11.5,32.5C 11.6602,30.8008 11.4935,29.1341 11,27.5C 9.33353,25.0043 7.50019,22.671 5.5,20.5 Z"/></g>
<g><path style="opacity:1" fill="#4b200d" d="M 5.5,9.5 C 2.85149,11.5586 2.01816,14.2253 3,17.5C 10.6515,19.2217 15.1515,23.8884 16.5,31.5C 15.6236,31.3691 14.9569,31.7025 14.5,32.5C 15.2427,33.1818 15.9094,33.8485 16.5,34.5C 15.6618,34.8417 15.3284,35.5084 15.5,36.5C 13.5891,36.5743 12.4224,37.5743 12,39.5C 11.5026,42.146 11.3359,44.8127 11.5,47.5C 11.6621,49.5273 11.4955,51.5273 11,53.5C 9.98873,54.3366 8.82207,54.67 7.5,54.5C 6.96136,46.7956 8.29469,39.4623 11.5,32.5C 13.3059,26.777 11.3059,22.777 5.5,20.5C 3.24595,19.5849 1.24595,18.2516 -0.5,16.5C -0.5,15.1667 -0.5,13.8333 -0.5,12.5C 1.5,11.5 3.5,10.5 5.5,9.5 Z"/></g>
<g><path style="opacity:1" fill="#4c1b05" d="M 24.5,25.5 C 31.1439,26.488 37.8106,27.488 44.5,28.5C 46.1753,28.8684 47.1753,29.8684 47.5,31.5C 44.763,30.969 42.0964,30.1356 39.5,29C 34.9796,28.1864 30.6463,28.353 26.5,29.5C 22.9864,30.7838 19.653,32.4505 16.5,34.5C 15.9094,33.8485 15.2427,33.1818 14.5,32.5C 14.9569,31.7025 15.6236,31.3691 16.5,31.5C 17.552,31.6495 18.552,31.4828 19.5,31C 20.3901,28.3346 22.0568,26.5013 24.5,25.5 Z"/></g>
<g><path style="opacity:1" fill="#773308" d="M 33.5,29.5 C 35.1667,29.5 36.8333,29.5 38.5,29.5C 37.8333,32.5 37.1667,35.5 36.5,38.5C 38.5,38.5 40.5,38.5 42.5,38.5C 42.585,36.0712 43.585,34.0712 45.5,32.5C 47.5355,33.885 49.5355,35.2183 51.5,36.5C 55.5978,39.2648 58.5978,42.9315 60.5,47.5C 60.5792,48.9305 60.2458,50.2638 59.5,51.5C 55.5546,52.4909 51.5546,52.8242 47.5,52.5C 49.6074,51.5318 51.9407,51.1984 54.5,51.5C 56.6348,51.853 57.9681,51.0197 58.5,49C 57.2508,46.3226 55.2508,44.4893 52.5,43.5C 51.9598,42.2519 51.2931,41.0852 50.5,40C 50.8333,39.6667 51.1667,39.3333 51.5,39C 49.2562,36.6965 47.5896,37.0299 46.5,40C 45.2068,40.49 43.8734,40.6567 42.5,40.5C 41.1779,40.33 40.0113,40.6634 39,41.5C 37.951,39.8934 36.451,39.2267 34.5,39.5C 33.0779,39.2504 32.0779,38.417 31.5,37C 32.3961,34.821 33.7294,32.9876 35.5,31.5C 34.7573,30.8182 34.0906,30.1515 33.5,29.5 Z"/></g>
<g><path style="opacity:1" fill="#6f2d0b" d="M 26.5,29.5 C 30.6463,28.353 34.9796,28.1864 39.5,29C 42.0964,30.1356 44.763,30.969 47.5,31.5C 49.1827,32.8534 50.5161,34.5201 51.5,36.5C 49.5355,35.2183 47.5355,33.885 45.5,32.5C 43.585,34.0712 42.585,36.0712 42.5,38.5C 40.5,38.5 38.5,38.5 36.5,38.5C 37.1667,35.5 37.8333,32.5 38.5,29.5C 36.8333,29.5 35.1667,29.5 33.5,29.5C 31.1667,29.5 28.8333,29.5 26.5,29.5 Z"/></g>
<g><path style="opacity:1" fill="#7f3102" d="M 26.5,29.5 C 28.8333,29.5 31.1667,29.5 33.5,29.5C 34.0906,30.1515 34.7573,30.8182 35.5,31.5C 33.7294,32.9876 32.3961,34.821 31.5,37C 32.0779,38.417 33.0779,39.2504 34.5,39.5C 36.318,40.2485 37.6514,42.0818 38.5,45C 37.2341,45.3095 36.0674,45.8095 35,46.5C 34.3083,47.4368 34.475,48.1034 35.5,48.5C 34.5017,50.804 34.335,53.1373 35,55.5C 31.5006,58.1639 27.6673,60.1639 23.5,61.5C 22.4262,59.716 20.7596,58.5494 18.5,58C 20.1243,56.8829 21.1243,55.3829 21.5,53.5C 20.9267,51.6461 20.5934,49.8127 20.5,48C 22.5,47.6667 24.5,47.3333 26.5,47C 27.5,45.3333 28.5,43.6667 29.5,42C 29.2716,41.6012 28.9382,41.4346 28.5,41.5C 25.7659,40.295 23.0993,38.795 20.5,37C 23.4652,35.2674 25.4652,32.7674 26.5,29.5 Z"/></g>
<g><path style="opacity:1" fill="#742f09" d="M 26.5,29.5 C 25.4652,32.7674 23.4652,35.2674 20.5,37C 23.0993,38.795 25.7659,40.295 28.5,41.5C 27.1348,43.7685 25.1348,45.4352 22.5,46.5C 20.864,45.6961 19.364,44.6961 18,43.5C 16.6841,46.028 15.5174,46.028 14.5,43.5C 16.6728,42.9116 18.6728,41.4116 20.5,39C 18.6891,39.707 16.6891,40.207 14.5,40.5C 15.2341,39.2921 15.5674,37.9587 15.5,36.5C 15.3284,35.5084 15.6618,34.8417 16.5,34.5C 19.653,32.4505 22.9864,30.7838 26.5,29.5 Z"/></g>
<g><path style="opacity:1" fill="#803002" d="M 54.5,51.5 C 53.0026,50.3957 51.336,49.3957 49.5,48.5C 48.1637,49.4228 46.8304,49.9228 45.5,50C 44.6959,48.2287 43.5292,46.7287 42,45.5C 41.3603,43.735 41.5269,42.0683 42.5,40.5C 43.8734,40.6567 45.2068,40.49 46.5,40C 47.5896,37.0299 49.2562,36.6965 51.5,39C 51.1667,39.3333 50.8333,39.6667 50.5,40C 51.2931,41.0852 51.9598,42.2519 52.5,43.5C 55.2508,44.4893 57.2508,46.3226 58.5,49C 57.9681,51.0197 56.6348,51.853 54.5,51.5 Z"/></g>
<g><path style="opacity:1" fill="#481805" d="M 26.5,23.5 C 42.0987,22.6325 54.0987,28.6325 62.5,41.5C 62.1348,43.588 62.1348,45.9213 62.5,48.5C 61.8333,48.1667 61.1667,47.8333 60.5,47.5C 58.5978,42.9315 55.5978,39.2648 51.5,36.5C 50.5161,34.5201 49.1827,32.8534 47.5,31.5C 47.1753,29.8684 46.1753,28.8684 44.5,28.5C 37.8106,27.488 31.1439,26.488 24.5,25.5C 24.0618,25.5654 23.7284,25.3988 23.5,25C 24.7375,24.7679 25.7375,24.2679 26.5,23.5 Z"/></g>
<g><path style="opacity:1" fill="#7d3309" d="M 28.5,41.5 C 28.9382,41.4346 29.2716,41.6012 29.5,42C 28.5,43.6667 27.5,45.3333 26.5,47C 24.5,47.3333 22.5,47.6667 20.5,48C 20.5934,49.8127 20.9267,51.6461 21.5,53.5C 21.1243,55.3829 20.1243,56.8829 18.5,58C 20.7596,58.5494 22.4262,59.716 23.5,61.5C 23.1667,61.5 22.8333,61.5 22.5,61.5C 20.0637,61.2511 18.0637,60.2511 16.5,58.5C 19.1924,55.3872 20.1924,51.7205 19.5,47.5C 13.7605,47.9818 12.0939,45.6485 14.5,40.5C 16.6891,40.207 18.6891,39.707 20.5,39C 18.6728,41.4116 16.6728,42.9116 14.5,43.5C 15.5174,46.028 16.6841,46.028 18,43.5C 19.364,44.6961 20.864,45.6961 22.5,46.5C 25.1348,45.4352 27.1348,43.7685 28.5,41.5 Z"/></g>
<g><path style="opacity:1" fill="#702c08" d="M 15.5,36.5 C 15.5674,37.9587 15.2341,39.2921 14.5,40.5C 12.0939,45.6485 13.7605,47.9818 19.5,47.5C 20.1924,51.7205 19.1924,55.3872 16.5,58.5C 18.0637,60.2511 20.0637,61.2511 22.5,61.5C 22.8333,62.1667 23.1667,62.8333 23.5,63.5C 21.8625,66.0763 19.6958,66.743 17,65.5C 14.0831,61.524 13.9165,57.524 16.5,53.5C 15.9455,50.6091 14.2789,48.6091 11.5,47.5C 11.3359,44.8127 11.5026,42.146 12,39.5C 12.4224,37.5743 13.5891,36.5743 15.5,36.5 Z"/></g>
<g><path style="opacity:1" fill="#7c3006" d="M 34.5,39.5 C 36.451,39.2267 37.951,39.8934 39,41.5C 40.0113,40.6634 41.1779,40.33 42.5,40.5C 41.5269,42.0683 41.3603,43.735 42,45.5C 43.5292,46.7287 44.6959,48.2287 45.5,50C 46.8304,49.9228 48.1637,49.4228 49.5,48.5C 51.336,49.3957 53.0026,50.3957 54.5,51.5C 51.9407,51.1984 49.6074,51.5318 47.5,52.5C 45.5,52.5 43.5,52.5 41.5,52.5C 41.5,50.8333 41.5,49.1667 41.5,47.5C 39.3792,47.3253 37.3792,47.6586 35.5,48.5C 34.475,48.1034 34.3083,47.4368 35,46.5C 36.0674,45.8095 37.2341,45.3095 38.5,45C 37.6514,42.0818 36.318,40.2485 34.5,39.5 Z"/></g>
<g><path style="opacity:1" fill="#72300a" d="M 47.5,52.5 C 51.5546,52.8242 55.5546,52.4909 59.5,51.5C 60.2458,50.2638 60.5792,48.9305 60.5,47.5C 61.1667,47.8333 61.8333,48.1667 62.5,48.5C 62.5,50.1667 62.5,51.8333 62.5,53.5C 57.8215,53.3342 53.1548,53.5008 48.5,54C 43.1644,56.6175 37.4977,58.2841 31.5,59C 29.6491,60.7524 27.6491,62.2524 25.5,63.5C 24.8333,63.5 24.1667,63.5 23.5,63.5C 23.1667,62.8333 22.8333,62.1667 22.5,61.5C 22.8333,61.5 23.1667,61.5 23.5,61.5C 27.6673,60.1639 31.5006,58.1639 35,55.5C 34.335,53.1373 34.5017,50.804 35.5,48.5C 37.3792,47.6586 39.3792,47.3253 41.5,47.5C 41.5,49.1667 41.5,50.8333 41.5,52.5C 43.5,52.5 45.5,52.5 47.5,52.5 Z"/></g>
<g><path style="opacity:1" fill="#471908" d="M 62.5,41.5 C 73.8227,54.7902 77.6561,70.1235 74,87.5C 73.5762,90.0254 72.4095,92.0254 70.5,93.5C 69.791,92.596 68.791,92.2627 67.5,92.5C 67.5,91.5 67.5,90.5 67.5,89.5C 68.5375,88.0697 69.2041,86.403 69.5,84.5C 71.4007,79.7746 71.9007,74.7746 71,69.5C 70.34,67.6763 69.1733,66.343 67.5,65.5C 65.7974,62.8079 63.464,60.8079 60.5,59.5C 56.8171,57.7501 52.8171,57.0834 48.5,57.5C 48.5774,56.2502 49.244,55.4169 50.5,55C 54.8206,54.501 59.1539,54.3343 63.5,54.5C 63.7947,52.2646 63.4614,50.2646 62.5,48.5C 62.1348,45.9213 62.1348,43.588 62.5,41.5 Z"/></g>
<g><path style="opacity:1" fill="#4f1a03" d="M 62.5,48.5 C 63.4614,50.2646 63.7947,52.2646 63.5,54.5C 59.1539,54.3343 54.8206,54.501 50.5,55C 49.244,55.4169 48.5774,56.2502 48.5,57.5C 47.8333,58.1667 47.1667,58.8333 46.5,59.5C 42.8976,59.6924 39.8976,61.0257 37.5,63.5C 33.5842,65.4135 30.2508,68.0801 27.5,71.5C 27.5086,69.6916 27.0086,68.0249 26,66.5C 24.483,68.2395 22.983,69.9062 21.5,71.5C 22.3527,68.632 23.686,65.9653 25.5,63.5C 27.6491,62.2524 29.6491,60.7524 31.5,59C 37.4977,58.2841 43.1644,56.6175 48.5,54C 53.1548,53.5008 57.8215,53.3342 62.5,53.5C 62.5,51.8333 62.5,50.1667 62.5,48.5 Z"/></g>
<g><path style="opacity:1" fill="#743e12" d="M 48.5,57.5 C 52.8171,57.0834 56.8171,57.7501 60.5,59.5C 55.8333,59.5 51.1667,59.5 46.5,59.5C 47.1667,58.8333 47.8333,58.1667 48.5,57.5 Z"/></g>
<g><path style="opacity:1" fill="#d59449" d="M 46.5,59.5 C 51.1667,59.5 55.8333,59.5 60.5,59.5C 63.464,60.8079 65.7974,62.8079 67.5,65.5C 67.5,66.1667 67.5,66.8333 67.5,67.5C 65.9382,67.2671 64.6049,66.6005 63.5,65.5C 63.6716,64.5084 63.3382,63.8417 62.5,63.5C 60.0523,61.1364 57.0523,60.1364 53.5,60.5C 47.9572,60.8664 42.6238,61.8664 37.5,63.5C 39.8976,61.0257 42.8976,59.6924 46.5,59.5 Z"/></g>
<g><path style="opacity:0.984" fill="#4b1803" d="M 11.5,47.5 C 14.2789,48.6091 15.9455,50.6091 16.5,53.5C 13.2199,53.6271 11.5532,55.2938 11.5,58.5C 12.105,65.0442 14.7717,70.3776 19.5,74.5C 19.189,75.4778 18.5223,76.1445 17.5,76.5C 16.3578,75.1738 15.0245,74.1738 13.5,73.5C 10.7238,67.5007 8.72381,61.1673 7.5,54.5C 8.82207,54.67 9.98873,54.3366 11,53.5C 11.4955,51.5273 11.6621,49.5273 11.5,47.5 Z"/></g>
<g><path style="opacity:1" fill="#fca92f" d="M 62.5,63.5 C 63.3382,63.8417 63.6716,64.5084 63.5,65.5C 62.1667,67.1667 62.1667,68.8333 63.5,70.5C 60.71,70.3766 57.8767,70.3766 55,70.5C 53.8032,68.2084 52.1365,67.8751 50,69.5C 48.7425,69.1501 48.4092,68.4835 49,67.5C 50.0852,66.7069 51.2519,66.0402 52.5,65.5C 54.323,66.7472 56.323,67.4139 58.5,67.5C 58.5,66.5 58.5,65.5 58.5,64.5C 55.5,64.5 52.5,64.5 49.5,64.5C 49.6107,63.8826 49.944,63.3826 50.5,63C 54.5369,62.3933 58.5369,62.56 62.5,63.5 Z"/></g>
<g><path style="opacity:1" fill="#73330e" d="M 16.5,53.5 C 13.9165,57.524 14.0831,61.524 17,65.5C 19.6958,66.743 21.8625,66.0763 23.5,63.5C 24.1667,63.5 24.8333,63.5 25.5,63.5C 23.686,65.9653 22.3527,68.632 21.5,71.5C 20.5987,72.2905 19.9321,73.2905 19.5,74.5C 14.7717,70.3776 12.105,65.0442 11.5,58.5C 11.5532,55.2938 13.2199,53.6271 16.5,53.5 Z"/></g>
<g><path style="opacity:1" fill="#fda62d" d="M 49.5,64.5 C 52.5,64.5 55.5,64.5 58.5,64.5C 58.5,65.5 58.5,66.5 58.5,67.5C 56.323,67.4139 54.323,66.7472 52.5,65.5C 51.2519,66.0402 50.0852,66.7069 49,67.5C 48.4092,68.4835 48.7425,69.1501 50,69.5C 52.1365,67.8751 53.8032,68.2084 55,70.5C 57.8767,70.3766 60.71,70.3766 63.5,70.5C 64.5,70.5 65.5,70.5 66.5,70.5C 65.6285,73.2716 65.6285,75.9382 66.5,78.5C 65.5,78.5 64.5,78.5 63.5,78.5C 63.6503,75.074 62.4837,74.7406 60,77.5C 58.2839,73.7767 56.2839,73.7767 54,77.5C 52.6667,77.5 51.3333,77.5 50,77.5C 49.2917,76.6195 48.4584,75.9528 47.5,75.5C 47.1788,73.9519 46.1788,73.2852 44.5,73.5C 45.209,72.596 46.209,72.2627 47.5,72.5C 47.2542,69.5299 45.5876,68.1966 42.5,68.5C 44.0356,65.2146 46.3689,63.8813 49.5,64.5 Z"/></g>
<g><path style="opacity:1" fill="#f6a83b" d="M 62.5,63.5 C 58.5369,62.56 54.5369,62.3933 50.5,63C 49.944,63.3826 49.6107,63.8826 49.5,64.5C 46.3689,63.8813 44.0356,65.2146 42.5,68.5C 41.2794,69.0283 40.1127,69.695 39,70.5C 38.6667,70.1667 38.3333,69.8333 38,69.5C 36.5385,71.4682 34.7052,72.8016 32.5,73.5C 31.1196,72.2935 29.9529,72.6269 29,74.5C 28.501,78.8206 28.3343,83.1539 28.5,87.5C 26.1517,83.0748 25.985,78.4081 28,73.5C 31.3709,70.2975 34.5375,66.9641 37.5,63.5C 42.6238,61.8664 47.9572,60.8664 53.5,60.5C 57.0523,60.1364 60.0523,61.1364 62.5,63.5 Z"/></g>
<g><path style="opacity:1" fill="#fda730" d="M 42.5,68.5 C 45.5876,68.1966 47.2542,69.5299 47.5,72.5C 46.209,72.2627 45.209,72.596 44.5,73.5C 39.8794,73.2153 38.3794,75.2153 40,79.5C 39.6667,79.1667 39.3333,78.8333 39,78.5C 36.1816,79.1285 33.5149,80.1285 31,81.5C 29.7425,81.1501 29.4092,80.4835 30,79.5C 31.9717,78.6948 33.4717,77.3615 34.5,75.5C 34.1445,74.4777 33.4778,73.811 32.5,73.5C 34.7052,72.8016 36.5385,71.4682 38,69.5C 38.3333,69.8333 38.6667,70.1667 39,70.5C 40.1127,69.695 41.2794,69.0283 42.5,68.5 Z"/></g>
<g><path style="opacity:1" fill="#9d672e" d="M 67.5,65.5 C 69.1733,66.343 70.34,67.6763 71,69.5C 71.9007,74.7746 71.4007,79.7746 69.5,84.5C 69.666,79.1563 69.4994,73.8229 69,68.5C 68.6174,67.944 68.1174,67.6107 67.5,67.5C 67.5,66.8333 67.5,66.1667 67.5,65.5 Z"/></g>
<g><path style="opacity:1" fill="#431604" d="M 27.5,71.5 C 26.8902,72.391 26.5569,73.391 26.5,74.5C 25.8826,74.6107 25.3826,74.944 25,75.5C 24.5014,79.1516 24.3347,82.8183 24.5,86.5C 24.634,88.2915 24.3007,89.9582 23.5,91.5C 19.1559,86.1529 15.8226,80.1529 13.5,73.5C 15.0245,74.1738 16.3578,75.1738 17.5,76.5C 18.5223,76.1445 19.189,75.4778 19.5,74.5C 19.9321,73.2905 20.5987,72.2905 21.5,71.5C 22.983,69.9062 24.483,68.2395 26,66.5C 27.0086,68.0249 27.5086,69.6916 27.5,71.5 Z"/></g>
<g><path style="opacity:1" fill="#fda82d" d="M 63.5,78.5 C 59.4183,79.0276 56.7516,81.1943 55.5,85C 54.0993,85.4101 52.766,85.9101 51.5,86.5C 50.4324,85.5655 49.099,85.2322 47.5,85.5C 47.6602,83.8008 47.4935,82.1341 47,80.5C 45.2942,79.6921 44.4609,78.3588 44.5,76.5C 45.791,76.7373 46.791,76.404 47.5,75.5C 48.4584,75.9528 49.2917,76.6195 50,77.5C 51.3333,77.5 52.6667,77.5 54,77.5C 56.2839,73.7767 58.2839,73.7767 60,77.5C 62.4837,74.7406 63.6503,75.074 63.5,78.5 Z"/></g>
<g><path style="opacity:1" fill="#fca92c" d="M 32.5,73.5 C 33.4778,73.811 34.1445,74.4777 34.5,75.5C 33.4717,77.3615 31.9717,78.6948 30,79.5C 29.4092,80.4835 29.7425,81.1501 31,81.5C 33.5149,80.1285 36.1816,79.1285 39,78.5C 39.3333,78.8333 39.6667,79.1667 40,79.5C 38.3794,75.2153 39.8794,73.2153 44.5,73.5C 46.1788,73.2852 47.1788,73.9519 47.5,75.5C 46.791,76.404 45.791,76.7373 44.5,76.5C 44.4609,78.3588 45.2942,79.6921 47,80.5C 47.4935,82.1341 47.6602,83.8008 47.5,85.5C 49.099,85.2322 50.4324,85.5655 51.5,86.5C 50.2243,89.0303 50.2243,91.6969 51.5,94.5C 51.0431,95.2975 50.3764,95.6309 49.5,95.5C 48.0222,95.762 46.6888,95.4287 45.5,94.5C 45.02,92.0514 44.02,89.8847 42.5,88C 43.5505,86.6152 44.8839,85.6152 46.5,85C 45.9747,84.3076 45.3081,83.8076 44.5,83.5C 42.9991,84.7515 41.3325,85.7515 39.5,86.5C 40.6293,88.5294 40.1293,88.8627 38,87.5C 36.9153,89.6574 35.7487,89.8241 34.5,88C 32.5273,87.5045 30.5273,87.3379 28.5,87.5C 28.3343,83.1539 28.501,78.8206 29,74.5C 29.9529,72.6269 31.1196,72.2935 32.5,73.5 Z"/></g>
<g><path style="opacity:1" fill="#975e2f" d="M 26.5,74.5 C 25.6403,78.4338 25.307,82.4338 25.5,86.5C 25.1667,86.5 24.8333,86.5 24.5,86.5C 24.3347,82.8183 24.5014,79.1516 25,75.5C 25.3826,74.944 25.8826,74.6107 26.5,74.5 Z"/></g>
<g><path style="opacity:1" fill="#fda630" d="M 63.5,78.5 C 64.5,78.5 65.5,78.5 66.5,78.5C 65.6472,81.59 64.6472,84.59 63.5,87.5C 61.076,87.1924 58.7427,87.5258 56.5,88.5C 55.627,90.4134 54.627,92.2467 53.5,94C 54.3567,94.6891 55.0233,95.5224 55.5,96.5C 53.604,97.4656 51.604,97.7989 49.5,97.5C 49.5,96.8333 49.5,96.1667 49.5,95.5C 50.3764,95.6309 51.0431,95.2975 51.5,94.5C 50.2243,91.6969 50.2243,89.0303 51.5,86.5C 52.766,85.9101 54.0993,85.4101 55.5,85C 56.7516,81.1943 59.4183,79.0276 63.5,78.5 Z"/></g>
<g><path style="opacity:1" fill="#fba72f" d="M 49.5,95.5 C 49.5,96.1667 49.5,96.8333 49.5,97.5C 47.1667,97.5 44.8333,97.5 42.5,97.5C 37.8838,95.464 33.5505,92.964 29.5,90C 28.7476,89.3292 28.4142,88.4959 28.5,87.5C 30.5273,87.3379 32.5273,87.5045 34.5,88C 35.7487,89.8241 36.9153,89.6574 38,87.5C 40.1293,88.8627 40.6293,88.5294 39.5,86.5C 41.3325,85.7515 42.9991,84.7515 44.5,83.5C 45.3081,83.8076 45.9747,84.3076 46.5,85C 44.8839,85.6152 43.5505,86.6152 42.5,88C 44.02,89.8847 45.02,92.0514 45.5,94.5C 46.6888,95.4287 48.0222,95.762 49.5,95.5 Z"/></g>
<g><path style="opacity:1" fill="#f9aa31" d="M 63.5,65.5 C 64.6049,66.6005 65.9382,67.2671 67.5,67.5C 69.7021,75.4446 68.5354,82.7779 64,89.5C 60.7082,93.118 57.2082,96.4513 53.5,99.5C 49.351,100.08 45.6843,99.4136 42.5,97.5C 44.8333,97.5 47.1667,97.5 49.5,97.5C 51.604,97.7989 53.604,97.4656 55.5,96.5C 55.0233,95.5224 54.3567,94.6891 53.5,94C 54.627,92.2467 55.627,90.4134 56.5,88.5C 58.7427,87.5258 61.076,87.1924 63.5,87.5C 64.6472,84.59 65.6472,81.59 66.5,78.5C 65.6285,75.9382 65.6285,73.2716 66.5,70.5C 65.5,70.5 64.5,70.5 63.5,70.5C 62.1667,68.8333 62.1667,67.1667 63.5,65.5 Z"/></g>
<g><path style="opacity:1" fill="#e7a249" d="M 67.5,67.5 C 68.1174,67.6107 68.6174,67.944 69,68.5C 69.4994,73.8229 69.666,79.1563 69.5,84.5C 69.2041,86.403 68.5375,88.0697 67.5,89.5C 65.1765,92.1261 62.8432,94.7928 60.5,97.5C 58.3131,98.758 55.9798,99.758 53.5,100.5C 53.5,100.167 53.5,99.8333 53.5,99.5C 57.2082,96.4513 60.7082,93.118 64,89.5C 68.5354,82.7779 69.7021,75.4446 67.5,67.5 Z"/></g>
<g><path style="opacity:1" fill="#de9a48" d="M 37.5,63.5 C 34.5375,66.9641 31.3709,70.2975 28,73.5C 25.985,78.4081 26.1517,83.0748 28.5,87.5C 28.4142,88.4959 28.7476,89.3292 29.5,90C 33.5505,92.964 37.8838,95.464 42.5,97.5C 45.6843,99.4136 49.351,100.08 53.5,99.5C 53.5,99.8333 53.5,100.167 53.5,100.5C 50.3752,101.479 47.0419,101.813 43.5,101.5C 35.7042,98.7083 29.7042,93.7083 25.5,86.5C 25.307,82.4338 25.6403,78.4338 26.5,74.5C 26.5569,73.391 26.8902,72.391 27.5,71.5C 30.2508,68.0801 33.5842,65.4135 37.5,63.5 Z"/></g>
<g><path style="opacity:1" fill="#4d1c0a" d="M 24.5,86.5 C 24.8333,86.5 25.1667,86.5 25.5,86.5C 29.7042,93.7083 35.7042,98.7083 43.5,101.5C 45.134,102.161 46.9674,102.494 49,102.5C 52.9399,102.351 56.7732,101.684 60.5,100.5C 60.5,99.5 60.5,98.5 60.5,97.5C 62.8432,94.7928 65.1765,92.1261 67.5,89.5C 67.5,90.5 67.5,91.5 67.5,92.5C 68.791,92.2627 69.791,92.596 70.5,93.5C 64.584,104.122 55.584,108.289 43.5,106C 34.9936,103.654 28.3269,98.8208 23.5,91.5C 24.3007,89.9582 24.634,88.2915 24.5,86.5 Z"/></g>
<g><path style="opacity:1" fill="#7b4219" d="M 60.5,97.5 C 60.5,98.5 60.5,99.5 60.5,100.5C 56.7732,101.684 52.9399,102.351 49,102.5C 46.9674,102.494 45.134,102.161 43.5,101.5C 47.0419,101.813 50.3752,101.479 53.5,100.5C 55.9798,99.758 58.3131,98.758 60.5,97.5 Z"/></g>
</svg>
