<?xml version="1.0" encoding="UTF-8"?>
<!DOCTYPE svg PUBLIC "-//W3C//DTD SVG 1.1//EN" "http://www.w3.org/Graphics/SVG/1.1/DTD/svg11.dtd">
<svg xmlns="http://www.w3.org/2000/svg" version="1.1" width="233px" height="183px" style="shape-rendering:geometricPrecision; text-rendering:geometricPrecision; image-rendering:optimizeQuality; fill-rule:evenodd; clip-rule:evenodd" xmlns:xlink="http://www.w3.org/1999/xlink">
<g><path style="opacity:0.051" fill="#af816f" d="M 175.5,37.5 C 175.5,39.1667 175.5,40.8333 175.5,42.5C 176.5,42.5 177.5,42.5 178.5,42.5C 177.432,43.4345 176.099,43.7678 174.5,43.5C 174.205,41.2646 174.539,39.2646 175.5,37.5 Z"/></g>
<g><path style="opacity:0.278" fill="#a97d5c" d="M 40.5,140.5 C 38.8892,144.051 36.5558,147.051 33.5,149.5C 35.1108,145.949 37.4442,142.949 40.5,140.5 Z"/></g>
<g><path style="opacity:1" fill="#491e0d" d="M 175.5,37.5 C 174.539,39.2646 174.205,41.2646 174.5,43.5C 176.099,43.7678 177.432,43.4345 178.5,42.5C 184.261,41.12 189.928,41.62 195.5,44C 197.357,45.1824 198.357,46.849 198.5,49C 197.346,52.135 196.346,55.3017 195.5,58.5C 201.878,58.5942 207.878,60.0942 213.5,63C 214.43,64.1939 215.097,65.5272 215.5,67C 214.299,69.2339 212.965,71.4006 211.5,73.5C 216.821,75.121 221.988,77.121 227,79.5C 228.672,83.2026 228.172,86.7026 225.5,90C 232.479,96.1214 231.979,101.621 224,106.5C 223.962,110.563 223.128,114.397 221.5,118C 214.5,121.167 207.5,124.333 200.5,127.5C 198.461,129.742 196.795,132.242 195.5,135C 187.992,138.127 180.326,140.793 172.5,143C 169.797,146.038 166.797,148.705 163.5,151C 154.869,153.215 146.202,155.215 137.5,157C 136.324,159.686 134.657,162.019 132.5,164C 124.362,166.592 116.029,168.258 107.5,169C 104.193,169.653 101.527,171.319 99.5,174C 97.5,174.5 95.5,175 93.5,175.5C 85.5296,174.396 77.5296,174.229 69.5,175C 63.7434,177.55 58.0768,180.05 52.5,182.5C 42.8333,182.5 33.1667,182.5 23.5,182.5C 17.9357,181.855 12.2691,181.022 6.5,180C 3.31423,178.644 0.9809,176.478 -0.5,173.5C -0.5,169.833 -0.5,166.167 -0.5,162.5C 2.3866,156.618 7.05326,152.951 13.5,151.5C 18.2511,152.572 21.9178,155.239 24.5,159.5C 27.5222,156.147 30.5222,152.813 33.5,149.5C 36.5558,147.051 38.8892,144.051 40.5,140.5C 41.5813,138.236 42.9146,136.069 44.5,134C 41.8449,127.312 43.8449,122.646 50.5,120C 45.6632,111.693 46.9965,104.526 54.5,98.5C 48.5585,87.7447 48.0585,76.7447 53,65.5C 56.2238,60.7396 60.0571,60.2396 64.5,64C 65.6667,65.1667 66.8333,66.3333 68,67.5C 72.8373,60.4963 77.1706,53.163 81,45.5C 83.7934,40.7056 87.7934,37.3723 93,35.5C 93.5,35.8333 94,36.1667 94.5,36.5C 95.6513,40.4227 96.4846,44.4227 97,48.5C 104.257,43.1211 111.423,37.6211 118.5,32C 122.191,29.6533 126.191,28.1533 130.5,27.5C 132.374,27.3898 133.874,28.0564 135,29.5C 135.92,32.1013 136.587,34.7679 137,37.5C 147.144,34.2137 157.478,31.547 168,29.5C 173.684,29.6685 176.184,32.3352 175.5,37.5 Z"/></g>
<g><path style="opacity:1" fill="#4a1706" d="M 50.5,146.5 C 51.5089,149.527 51.5089,152.527 50.5,155.5C 47.7007,157.096 45.7007,156.43 44.5,153.5C 44.0115,149.07 46.0115,146.737 50.5,146.5 Z"/></g>
<g><path style="opacity:1" fill="#e79f42" d="M 53.5,175.5 C 57.472,171.273 62.1387,167.94 67.5,165.5C 65.2716,163.599 62.6049,162.599 59.5,162.5C 60.3403,158.461 59.007,155.461 55.5,153.5C 53.585,155.071 52.585,157.071 52.5,159.5C 49.7508,159.726 47.0841,159.393 44.5,158.5C 43.3884,155.932 42.0551,153.598 40.5,151.5C 40.56,150.957 40.8933,150.624 41.5,150.5C 42.2876,151.77 43.2876,152.77 44.5,153.5C 45.7007,156.43 47.7007,157.096 50.5,155.5C 51.5089,152.527 51.5089,149.527 50.5,146.5C 48.4687,146.028 46.8021,145.028 45.5,143.5C 46.3305,138.176 49.3305,136.342 54.5,138C 56.0412,139.579 57.2078,141.413 58,143.5C 59.2305,148.153 60.3971,152.82 61.5,157.5C 62.3816,158.76 63.3816,159.926 64.5,161C 67.6014,161.855 70.2681,163.355 72.5,165.5C 68.3412,167.746 64.3412,170.246 60.5,173C 58.2346,174.118 55.9013,174.951 53.5,175.5 Z"/></g>
<g><path style="opacity:1" fill="#783107" d="M 83.5,55.5 C 80.7998,61.8785 78.4664,68.3785 76.5,75C 76.6667,76.1667 76.8333,77.3333 77,78.5C 78.8159,76.5586 80.8159,75.8919 83,76.5C 83.3742,77.4162 83.8742,78.2496 84.5,79C 84.8712,84.113 84.3712,89.2797 83,94.5C 81.9887,95.3366 80.8221,95.67 79.5,95.5C 79.6633,97.8568 79.4966,100.19 79,102.5C 78.6174,103.056 78.1174,103.389 77.5,103.5C 77.2882,105.384 76.2882,106.717 74.5,107.5C 71.2299,105.839 67.8965,105.506 64.5,106.5C 65.4544,112.104 65.7877,117.771 65.5,123.5C 67.1992,123.34 68.8659,123.506 70.5,124C 69.8333,124.667 69.1667,125.333 68.5,126C 69.6872,127.019 70.6872,128.186 71.5,129.5C 62.2458,130.443 61.4125,133.776 69,139.5C 70.3092,144.066 70.8092,148.733 70.5,153.5C 68.5158,143.687 63.5158,135.687 55.5,129.5C 59.1667,128.833 62.8333,128.167 66.5,127.5C 63.1035,123.721 59.9369,119.721 57,115.5C 55.9914,113.975 55.4914,112.308 55.5,110.5C 57.5273,110.662 59.5273,110.495 61.5,110C 62.0814,109.107 62.4148,108.107 62.5,107C 61.3163,99.2993 59.483,91.7993 57,84.5C 56.2231,79.778 56.3897,75.1113 57.5,70.5C 58.365,69.4173 59.365,69.2506 60.5,70C 62.792,71.2899 64.792,72.9565 66.5,75C 68.235,75.6514 69.9017,75.4847 71.5,74.5C 74.0177,70.9404 76.351,67.2737 78.5,63.5C 78.7261,59.8649 80.3927,57.1982 83.5,55.5 Z"/></g>
<g><path style="opacity:1" fill="#461802" d="M 77.5,103.5 C 75.2362,104.219 72.9029,104.552 70.5,104.5C 68.4136,96.3869 69.9136,89.0536 75,82.5C 76.3561,81.6198 77.8561,81.2865 79.5,81.5C 79.6983,88.9248 79.0316,96.2581 77.5,103.5 Z"/></g>
<g><path style="opacity:1" fill="#763109" d="M 188.5,127.5 C 188.327,123.83 189.993,121.33 193.5,120C 192.531,118.242 191.364,117.742 190,118.5C 187.333,117.833 184.667,117.167 182,116.5C 180.057,109.889 182.223,105.389 188.5,103C 196.857,100.653 202.69,102.82 206,109.5C 207,108.5 208,107.5 209,106.5C 210.612,106.952 211.612,108.285 212,110.5C 215.472,104.582 215.805,98.582 213,92.5C 212.502,89.5184 212.335,86.5184 212.5,83.5C 209.882,83.7792 207.382,84.4459 205,85.5C 204.411,83.1367 202.911,82.1367 200.5,82.5C 200.66,80.8008 200.494,79.1341 200,77.5C 198.536,76.541 197.703,75.2077 197.5,73.5C 198.156,71.5466 198.489,69.5466 198.5,67.5C 192.736,67.1746 187.736,64.8413 183.5,60.5C 182.509,57.7559 182.843,55.0893 184.5,52.5C 179.887,51.3058 175.387,51.6392 171,53.5C 168.963,49.7129 165.797,47.2129 161.5,46C 163.278,43.8646 163.945,41.3646 163.5,38.5C 160.161,38.8897 156.827,39.3897 153.5,40C 150.964,41.7471 148.464,43.5804 146,45.5C 145.586,45.0426 145.086,44.7093 144.5,44.5C 140.843,45.1316 137.343,46.1316 134,47.5C 128.565,46.8942 126.398,43.8942 127.5,38.5C 127.904,42.1478 129.904,44.4811 133.5,45.5C 143.604,43.0778 153.27,39.5778 162.5,35C 168.96,34.0819 170.127,36.2486 166,41.5C 165.333,43.1667 165.333,44.8333 166,46.5C 173.706,48.0067 181.539,49.0067 189.5,49.5C 187.725,52.3128 186.892,55.3128 187,58.5C 191.904,62.6537 197.571,65.3204 204,66.5C 203.218,68.8457 202.385,71.3457 201.5,74C 202.153,77.3198 204.153,79.3198 207.5,80C 210.426,80.2178 213.26,80.7178 216,81.5C 216.309,82.7659 216.809,83.9326 217.5,85C 213.305,89.557 213.972,93.057 219.5,95.5C 218.894,101.715 217.394,107.715 215,113.5C 212.05,116.031 208.883,118.198 205.5,120C 199.65,122.222 193.983,124.722 188.5,127.5 Z"/></g>
<g><path style="opacity:1" fill="#481600" d="M 191.5,105.5 C 194.482,105.104 197.149,105.771 199.5,107.5C 194.509,110.043 189.509,112.376 184.5,114.5C 184.954,111.86 186.121,109.527 188,107.5C 189.302,106.915 190.469,106.249 191.5,105.5 Z"/></g>
<g><path style="opacity:1" fill="#6a2d0d" d="M 126.5,37.5 C 121.508,38.6594 117.841,41.4927 115.5,46C 113.275,46.5611 111.275,47.5611 109.5,49C 105.903,55.9648 100.236,58.9648 92.5,58C 91.2396,55.7323 89.9063,53.5656 88.5,51.5C 86.5808,52.6125 84.9142,53.9458 83.5,55.5C 84.0488,53.0987 84.8822,50.7654 86,48.5C 87.194,46.4746 88.694,46.1413 90.5,47.5C 90.9778,50.9927 92.8112,53.3261 96,54.5C 103.674,51.5891 110.174,47.0891 115.5,41C 119.096,39.0991 122.429,36.9324 125.5,34.5C 126.386,35.325 126.719,36.325 126.5,37.5 Z"/></g>
<g><path style="opacity:1" fill="#7e3101" d="M 126.5,37.5 C 127.167,37.5 127.5,37.8333 127.5,38.5C 126.398,43.8942 128.565,46.8942 134,47.5C 137.343,46.1316 140.843,45.1316 144.5,44.5C 145.086,44.7093 145.586,45.0426 146,45.5C 148.464,43.5804 150.964,41.7471 153.5,40C 156.827,39.3897 160.161,38.8897 163.5,38.5C 163.945,41.3646 163.278,43.8646 161.5,46C 165.797,47.2129 168.963,49.7129 171,53.5C 175.387,51.6392 179.887,51.3058 184.5,52.5C 182.843,55.0893 182.509,57.7559 183.5,60.5C 187.736,64.8413 192.736,67.1746 198.5,67.5C 198.489,69.5466 198.156,71.5466 197.5,73.5C 197.703,75.2077 198.536,76.541 200,77.5C 200.494,79.1341 200.66,80.8008 200.5,82.5C 202.911,82.1367 204.411,83.1367 205,85.5C 207.382,84.4459 209.882,83.7792 212.5,83.5C 212.335,86.5184 212.502,89.5184 213,92.5C 215.805,98.582 215.472,104.582 212,110.5C 211.612,108.285 210.612,106.952 209,106.5C 208,107.5 207,108.5 206,109.5C 202.69,102.82 196.857,100.653 188.5,103C 182.223,105.389 180.057,109.889 182,116.5C 184.667,117.167 187.333,117.833 190,118.5C 191.364,117.742 192.531,118.242 193.5,120C 189.993,121.33 188.327,123.83 188.5,127.5C 186.601,129.463 184.267,130.963 181.5,132C 176.034,132.406 170.701,133.406 165.5,135C 163.759,136.62 161.925,138.12 160,139.5C 159.933,142.047 159.099,144.214 157.5,146C 148.888,147.079 140.221,147.912 131.5,148.5C 128.922,152.071 126.255,155.571 123.5,159C 115.902,160.52 108.235,161.52 100.5,162C 97.68,162.736 95.68,164.402 94.5,167C 91.5,167.667 88.5,167.667 85.5,167C 81.9123,161.576 77.2456,157.41 71.5,154.5C 71.5,153.833 71.1667,153.5 70.5,153.5C 70.8092,148.733 70.3092,144.066 69,139.5C 61.4125,133.776 62.2458,130.443 71.5,129.5C 70.6872,128.186 69.6872,127.019 68.5,126C 69.1667,125.333 69.8333,124.667 70.5,124C 68.8659,123.506 67.1992,123.34 65.5,123.5C 65.7877,117.771 65.4544,112.104 64.5,106.5C 67.8965,105.506 71.2299,105.839 74.5,107.5C 76.2882,106.717 77.2882,105.384 77.5,103.5C 78.1174,103.389 78.6174,103.056 79,102.5C 79.4966,100.19 79.6633,97.8568 79.5,95.5C 80.8221,95.67 81.9887,95.3366 83,94.5C 84.3712,89.2797 84.8712,84.113 84.5,79C 83.8742,78.2496 83.3742,77.4162 83,76.5C 80.8159,75.8919 78.8159,76.5586 77,78.5C 76.8333,77.3333 76.6667,76.1667 76.5,75C 78.4664,68.3785 80.7998,61.8785 83.5,55.5C 84.9142,53.9458 86.5808,52.6125 88.5,51.5C 89.9063,53.5656 91.2396,55.7323 92.5,58C 100.236,58.9648 105.903,55.9648 109.5,49C 111.275,47.5611 113.275,46.5611 115.5,46C 117.841,41.4927 121.508,38.6594 126.5,37.5 Z"/></g>
<g><path style="opacity:1" fill="#501800" d="M 88.5,135.5 C 89.8001,137.223 90.4668,139.39 90.5,142C 91.9477,147.568 89.9477,150.068 84.5,149.5C 84.3354,146.482 84.502,143.482 85,140.5C 87.1718,139.491 88.3385,137.824 88.5,135.5 Z"/></g>
<g><path style="opacity:1" fill="#4c1600" d="M 125.5,123.5 C 127.167,123.5 128.833,123.5 130.5,123.5C 130.649,124.552 130.483,125.552 130,126.5C 127.257,129.654 124.757,132.988 122.5,136.5C 121.311,137.429 119.978,137.762 118.5,137.5C 118.732,131.703 121.065,127.037 125.5,123.5 Z"/></g>
<g><path style="opacity:1" fill="#4f1701" d="M 97.5,104.5 C 98.8333,104.5 100.167,104.5 101.5,104.5C 99.8945,109.042 98.8945,113.708 98.5,118.5C 94.6953,118.357 93.0286,116.357 93.5,112.5C 93.6667,111.167 93.8333,109.833 94,108.5C 95.3756,107.295 96.5423,105.962 97.5,104.5 Z"/></g>
<g><path style="opacity:1" fill="#682708" d="M 153.5,98.5 C 156.382,99.6806 157.382,101.681 156.5,104.5C 153.258,107.574 150.591,111.074 148.5,115C 142.816,115.501 141.15,113.001 143.5,107.5C 145.063,106.055 146.396,104.389 147.5,102.5C 149.911,101.639 151.911,100.306 153.5,98.5 Z"/></g>
<g><path style="opacity:1" fill="#461600" d="M 159.5,75.5 C 162.85,75.335 166.183,75.5017 169.5,76C 164.297,79.3658 158.964,82.5324 153.5,85.5C 152.833,85.1667 152.167,84.8333 151.5,84.5C 152.781,80.2092 155.448,77.2092 159.5,75.5 Z"/></g>
<g><path style="opacity:1" fill="#461601" d="M 126.5,67.5 C 128.028,67.5173 128.528,68.184 128,69.5C 125.008,73.4917 121.674,77.1584 118,80.5C 117.517,81.448 117.351,82.448 117.5,83.5C 113.857,82.6178 112.69,80.2845 114,76.5C 118.185,73.365 122.352,70.365 126.5,67.5 Z"/></g>
<g><path style="opacity:1" fill="#d59549" d="M 45.5,143.5 C 46.8021,145.028 48.4687,146.028 50.5,146.5C 46.0115,146.737 44.0115,149.07 44.5,153.5C 43.2876,152.77 42.2876,151.77 41.5,150.5C 40.8933,150.624 40.56,150.957 40.5,151.5C 39.71,152.609 39.21,153.942 39,155.5C 35.1901,159.131 31.8568,163.131 29,167.5C 28.3333,169.5 28.3333,171.5 29,173.5C 31.773,176.219 35.1063,177.553 39,177.5C 43.8061,176.589 48.6394,175.923 53.5,175.5C 50.8511,177.109 47.8511,177.943 44.5,178C 38.456,179.195 32.7893,178.362 27.5,175.5C 26.2012,172.423 26.3678,169.423 28,166.5C 31.1663,162.834 33.8329,158.834 36,154.5C 39.0834,150.596 42.2501,146.929 45.5,143.5 Z"/></g>
<g><path style="opacity:1" fill="#fba830" d="M 40.5,151.5 C 42.0551,153.598 43.3884,155.932 44.5,158.5C 47.0841,159.393 49.7508,159.726 52.5,159.5C 52.585,157.071 53.585,155.071 55.5,153.5C 59.007,155.461 60.3403,158.461 59.5,162.5C 62.6049,162.599 65.2716,163.599 67.5,165.5C 62.1387,167.94 57.472,171.273 53.5,175.5C 48.6394,175.923 43.8061,176.589 39,177.5C 35.1063,177.553 31.773,176.219 29,173.5C 28.3333,171.5 28.3333,169.5 29,167.5C 31.8568,163.131 35.1901,159.131 39,155.5C 39.21,153.942 39.71,152.609 40.5,151.5 Z"/></g>
<g><path style="opacity:1" fill="#72310b" d="M 188.5,127.5 C 188.617,129.484 187.95,131.15 186.5,132.5C 178.846,133.363 171.513,135.363 164.5,138.5C 163.113,141.492 161.446,144.325 159.5,147C 151.686,149.104 143.686,150.104 135.5,150C 133.998,150.583 132.665,151.416 131.5,152.5C 129.944,155.123 128.278,157.623 126.5,160C 118.015,162.351 109.348,163.685 100.5,164C 95.0025,170.167 88.8358,171 82,166.5C 79.3359,161.755 75.8359,157.755 71.5,154.5C 77.2456,157.41 81.9123,161.576 85.5,167C 88.5,167.667 91.5,167.667 94.5,167C 95.68,164.402 97.68,162.736 100.5,162C 108.235,161.52 115.902,160.52 123.5,159C 126.255,155.571 128.922,152.071 131.5,148.5C 140.221,147.912 148.888,147.079 157.5,146C 159.099,144.214 159.933,142.047 160,139.5C 161.925,138.12 163.759,136.62 165.5,135C 170.701,133.406 176.034,132.406 181.5,132C 184.267,130.963 186.601,129.463 188.5,127.5 Z"/></g>
</svg>
