<?xml version="1.0" encoding="UTF-8"?>
<!DOCTYPE svg PUBLIC "-//W3C//DTD SVG 1.1//EN" "http://www.w3.org/Graphics/SVG/1.1/DTD/svg11.dtd">
<svg xmlns="http://www.w3.org/2000/svg" version="1.1" width="131px" height="140px" style="shape-rendering:geometricPrecision; text-rendering:geometricPrecision; image-rendering:optimizeQuality; fill-rule:evenodd; clip-rule:evenodd" xmlns:xlink="http://www.w3.org/1999/xlink">
<g><path style="opacity:0.808" fill="#7c4a2f" d="M 14.5,4.5 C 13.1779,4.33003 12.0113,4.66337 11,5.5C 8.73086,2.94561 6.39753,2.94561 4,5.5C 3.50115,9.48617 3.33449,13.4862 3.5,17.5C 1.03206,13.3847 0.865393,9.05137 3,4.5C 7.10938,0.588243 10.9427,0.588243 14.5,4.5 Z"/></g>
<g><path style="opacity:0.376" fill="#a77758" d="M 14.5,4.5 C 16.0672,5.68076 16.9005,7.34743 17,9.5C 17.9122,14.4636 18.4122,19.4636 18.5,24.5C 16.804,18.02 15.4706,11.3533 14.5,4.5 Z"/></g>
<g><path style="opacity:1" fill="#773d27" d="M 12.5,41.5 C 12.1667,41.5 11.8333,41.5 11.5,41.5C 11.6641,38.8127 11.4974,36.146 11,33.5C 8.19302,28.2238 5.69302,22.8905 3.5,17.5C 4.42857,18.9361 5.59524,20.2695 7,21.5C 7.66667,20.1667 8.33333,20.1667 9,21.5C 8.84785,18.5104 8.34785,15.5104 7.5,12.5C 7.71389,8.85595 8.88055,8.52262 11,11.5C 11.5,14.5 12,17.5 12.5,20.5C 11.3111,21.7488 10.3111,23.7488 9.5,26.5C 12.0201,31.1373 13.0201,36.1373 12.5,41.5 Z"/></g>
<g><path style="opacity:0.561" fill="#9d6f4e" d="M 58.5,25.5 C 47.6634,25.3301 36.6634,25.3301 25.5,25.5C 31.9184,21.703 38.585,21.5364 45.5,25C 49.8206,25.499 54.1539,25.6657 58.5,25.5 Z"/></g>
<g><path style="opacity:0.408" fill="#926446" d="M 84.5,27.5 C 83.391,27.4431 82.391,27.1098 81.5,26.5C 74.3226,24.2562 66.9892,23.9228 59.5,25.5C 65.9155,23.571 72.5822,23.071 79.5,24C 81.5844,24.6972 83.2511,25.8639 84.5,27.5 Z"/></g>
<g><path style="opacity:1" fill="#ca2914" d="M 43.5,109.5 C 42.8888,107.225 41.5554,105.559 39.5,104.5C 38.653,103.034 37.3197,102.2 35.5,102C 30.5898,102.657 27.0898,100.824 25,96.5C 26.0384,87.5958 26.3717,78.5958 26,69.5C 24.2188,66.7259 22.8855,63.7259 22,60.5C 20.4941,58.8258 18.6607,57.8258 16.5,57.5C 15.7929,54.2139 15.4595,50.8806 15.5,47.5C 17.3904,47.7035 18.8904,47.0368 20,45.5C 23.1568,40.6834 26.6568,36.1834 30.5,32C 34.1667,31.3333 37.8333,31.3333 41.5,32C 47.5029,36.7629 54.1695,37.7629 61.5,35C 69.3284,28.5228 76.4951,29.0228 83,36.5C 85.375,50.2025 93.2083,58.7025 106.5,62C 107.211,63.2547 108.044,64.4214 109,65.5C 109.333,65.1667 109.667,64.8333 110,64.5C 110.483,65.448 110.649,66.448 110.5,67.5C 111.5,67.5 112.5,67.5 113.5,67.5C 113.334,75.84 113.5,84.1733 114,92.5C 114.349,97.1526 115.849,101.319 118.5,105C 118.049,109.413 117.382,113.747 116.5,118C 113.246,119.842 109.746,120.675 106,120.5C 96.7926,119.016 87.6259,119.183 78.5,121C 75.3381,123.494 72.1714,125.994 69,128.5C 63.5736,130.327 58.5736,129.66 54,126.5C 50.1426,120.862 46.6426,115.196 43.5,109.5 Z"/></g>
<g><path style="opacity:0.992" fill="#411707" d="M 14.5,4.5 C 15.4706,11.3533 16.804,18.02 18.5,24.5C 18.5,25.8333 18.5,27.1667 18.5,28.5C 21.491,28.8337 23.8243,27.8337 25.5,25.5C 36.6634,25.3301 47.6634,25.3301 58.5,25.5C 58.8333,25.5 59.1667,25.5 59.5,25.5C 66.9892,23.9228 74.3226,24.2562 81.5,26.5C 75.3466,27.3279 69.0133,27.8279 62.5,28C 58.2876,32.345 53.2876,33.5117 47.5,31.5C 46.4264,30.1154 45.0931,28.9487 43.5,28C 37.8333,27.3333 32.1667,27.3333 26.5,28C 22.9616,32.3659 19.295,36.5325 15.5,40.5C 14.675,41.3857 13.675,41.719 12.5,41.5C 13.0201,36.1373 12.0201,31.1373 9.5,26.5C 10.3111,23.7488 11.3111,21.7488 12.5,20.5C 12,17.5 11.5,14.5 11,11.5C 8.88055,8.52262 7.71389,8.85595 7.5,12.5C 8.34785,15.5104 8.84785,18.5104 9,21.5C 8.33333,20.1667 7.66667,20.1667 7,21.5C 5.59524,20.2695 4.42857,18.9361 3.5,17.5C 3.33449,13.4862 3.50115,9.48617 4,5.5C 6.39753,2.94561 8.73086,2.94561 11,5.5C 12.0113,4.66337 13.1779,4.33003 14.5,4.5 Z"/></g>
<g><path style="opacity:0.227" fill="#9f7453" d="M 18.5,24.5 C 20.4511,26.7918 22.7844,27.1251 25.5,25.5C 23.8243,27.8337 21.491,28.8337 18.5,28.5C 18.5,27.1667 18.5,25.8333 18.5,24.5 Z"/></g>
<g><path style="opacity:0.204" fill="#a77456" d="M 92.5,38.5 C 93.7656,45.4298 97.7656,49.7631 104.5,51.5C 96.4222,51.0849 92.4222,46.7515 92.5,38.5 Z"/></g>
<g><path style="opacity:0.969" fill="#5e1507" d="M 47.5,31.5 C 43.7053,29.9518 39.7053,28.9518 35.5,28.5C 33.0351,28.4777 30.7017,28.9777 28.5,30C 24.7266,34.7769 20.5599,39.2769 16,43.5C 11.2529,52.1869 13.2529,58.8536 22,63.5C 22.3333,64.8333 22.6667,66.1667 23,67.5C 22.7971,76.8434 22.4638,86.1767 22,95.5C 23.4578,97.96 25.2911,100.127 27.5,102C 31.6947,102.332 35.6947,103.165 39.5,104.5C 41.5554,105.559 42.8888,107.225 43.5,109.5C 43.3398,111.199 43.5065,112.866 44,114.5C 46.3927,116.619 47.7261,119.285 48,122.5C 51.0657,125.396 53.8991,128.396 56.5,131.5C 52.855,132.32 50.5217,130.987 49.5,127.5C 48.675,126.614 47.675,126.281 46.5,126.5C 44.7448,121.265 43.0781,115.931 41.5,110.5C 37.3884,107.404 32.7217,105.571 27.5,105C 27.8333,104.667 28.1667,104.333 28.5,104C 25.8519,102.351 23.5186,100.351 21.5,98C 20.9697,88.5306 20.8031,79.0306 21,69.5C 19.4429,64.7846 16.6096,61.1179 12.5,58.5C 11.8326,55.3583 11.166,52.3583 10.5,49.5C 11.0916,46.8728 11.4249,44.2062 11.5,41.5C 11.8333,41.5 12.1667,41.5 12.5,41.5C 13.675,41.719 14.675,41.3857 15.5,40.5C 19.295,36.5325 22.9616,32.3659 26.5,28C 32.1667,27.3333 37.8333,27.3333 43.5,28C 45.0931,28.9487 46.4264,30.1154 47.5,31.5 Z"/></g>
<g><path style="opacity:0.988" fill="#4e1809" d="M 81.5,26.5 C 82.391,27.1098 83.391,27.4431 84.5,27.5C 87.9331,30.6012 90.5998,34.2679 92.5,38.5C 92.4222,46.7515 96.4222,51.0849 104.5,51.5C 106.189,52.3037 107.855,53.3037 109.5,54.5C 108.757,55.1818 108.091,55.8485 107.5,56.5C 104.164,54.4242 100.497,53.0908 96.5,52.5C 93.3716,49.3895 90.7049,46.0561 88.5,42.5C 85.7704,36.601 81.4371,32.101 75.5,29C 72.8333,28.3333 70.1667,28.3333 67.5,29C 63.3155,31.1973 59.1488,33.364 55,35.5C 51.748,35.3756 49.248,34.0423 47.5,31.5C 53.2876,33.5117 58.2876,32.345 62.5,28C 69.0133,27.8279 75.3466,27.3279 81.5,26.5 Z"/></g>
<g><path style="opacity:0.678" fill="#855435" d="M 11.5,41.5 C 11.4249,44.2062 11.0916,46.8728 10.5,49.5C 10.5,53.1667 10.5,56.8333 10.5,60.5C 7.92341,54.0784 8.25674,47.745 11.5,41.5 Z"/></g>
<g><path style="opacity:1" fill="#6a3e27" d="M 104.5,51.5 C 116.21,52.8746 121.876,59.5412 121.5,71.5C 121.252,78.609 121.918,85.609 123.5,92.5C 122.883,92.3893 122.383,92.056 122,91.5C 120.879,83.2096 120.213,74.8763 120,66.5C 118.983,64.6241 118.149,62.6241 117.5,60.5C 116.817,60.1373 116.15,59.8039 115.5,59.5C 113.058,58.0056 110.391,57.0056 107.5,56.5C 108.091,55.8485 108.757,55.1818 109.5,54.5C 107.855,53.3037 106.189,52.3037 104.5,51.5 Z"/></g>
<g><path style="opacity:1" fill="#5c1406" d="M 88.5,42.5 C 90.7049,46.0561 93.3716,49.3895 96.5,52.5C 100.497,53.0908 104.164,54.4242 107.5,56.5C 110.391,57.0056 113.058,58.0056 115.5,59.5C 116.03,61.9237 116.864,64.257 118,66.5C 118.161,75.2173 118.827,83.8839 120,92.5C 124.123,98.9548 125.456,105.955 124,113.5C 121.129,117.031 118.295,120.531 115.5,124C 105.5,124.333 95.5,124.667 85.5,125C 82.7846,125.717 80.6179,127.217 79,129.5C 76.1439,130.256 73.3106,131.089 70.5,132C 69.6195,132.708 68.9528,133.542 68.5,134.5C 65.9039,135.265 63.2372,135.599 60.5,135.5C 59.4726,133.806 58.1392,132.473 56.5,131.5C 60.5065,132.613 64.5065,132.613 68.5,131.5C 73.8567,128.785 78.8567,125.618 83.5,122C 92.8273,122.166 102.161,122.166 111.5,122C 117.797,119.382 121.13,114.548 121.5,107.5C 117.735,94.1209 115.902,80.4542 116,66.5C 114.833,64.6667 113.667,62.8333 112.5,61C 107.362,58.4288 102.028,56.4288 96.5,55C 91.9623,51.9753 89.2956,47.8086 88.5,42.5 Z"/></g>
<g><path style="opacity:0.271" fill="#916746" d="M 10.5,60.5 C 14.1842,62.8352 16.6842,66.1685 18,70.5C 18.2309,77.8634 17.7309,85.1968 16.5,92.5C 16.9971,94.8183 17.3305,97.1516 17.5,99.5C 16.027,96.9831 15.3603,94.1498 15.5,91C 16.3834,84.8306 16.8834,78.6639 17,72.5C 15.6175,68.0678 13.4508,64.0678 10.5,60.5 Z"/></g>
<g><path style="opacity:0.122" fill="#bf936e" d="M 121.5,71.5 C 122.073,80.2548 123.74,88.9214 126.5,97.5C 124.75,96.3406 123.75,94.674 123.5,92.5C 121.918,85.609 121.252,78.609 121.5,71.5 Z"/></g>
<g><path style="opacity:1" fill="#ab2e1b" d="M 47.5,31.5 C 49.248,34.0423 51.748,35.3756 55,35.5C 59.1488,33.364 63.3155,31.1973 67.5,29C 70.1667,28.3333 72.8333,28.3333 75.5,29C 81.4371,32.101 85.7704,36.601 88.5,42.5C 89.2956,47.8086 91.9623,51.9753 96.5,55C 102.028,56.4288 107.362,58.4288 112.5,61C 113.667,62.8333 114.833,64.6667 116,66.5C 115.902,80.4542 117.735,94.1209 121.5,107.5C 121.13,114.548 117.797,119.382 111.5,122C 102.161,122.166 92.8273,122.166 83.5,122C 78.8567,125.618 73.8567,128.785 68.5,131.5C 64.5065,132.613 60.5065,132.613 56.5,131.5C 53.8991,128.396 51.0657,125.396 48,122.5C 47.7261,119.285 46.3927,116.619 44,114.5C 43.5065,112.866 43.3398,111.199 43.5,109.5C 46.6426,115.196 50.1426,120.862 54,126.5C 58.5736,129.66 63.5736,130.327 69,128.5C 72.1714,125.994 75.3381,123.494 78.5,121C 87.6259,119.183 96.7926,119.016 106,120.5C 109.746,120.675 113.246,119.842 116.5,118C 117.382,113.747 118.049,109.413 118.5,105C 115.849,101.319 114.349,97.1526 114,92.5C 113.5,84.1733 113.334,75.84 113.5,67.5C 112.5,67.5 111.5,67.5 110.5,67.5C 110.649,66.448 110.483,65.448 110,64.5C 109.667,64.8333 109.333,65.1667 109,65.5C 108.044,64.4214 107.211,63.2547 106.5,62C 93.2083,58.7025 85.375,50.2025 83,36.5C 76.4951,29.0228 69.3284,28.5228 61.5,35C 54.1695,37.7629 47.5029,36.7629 41.5,32C 37.8333,31.3333 34.1667,31.3333 30.5,32C 26.6568,36.1834 23.1568,40.6834 20,45.5C 18.8904,47.0368 17.3904,47.7035 15.5,47.5C 15.4595,50.8806 15.7929,54.2139 16.5,57.5C 18.6607,57.8258 20.4941,58.8258 22,60.5C 22.8855,63.7259 24.2188,66.7259 26,69.5C 26.3717,78.5958 26.0384,87.5958 25,96.5C 27.0898,100.824 30.5898,102.657 35.5,102C 37.3197,102.2 38.653,103.034 39.5,104.5C 35.6947,103.165 31.6947,102.332 27.5,102C 25.2911,100.127 23.4578,97.96 22,95.5C 22.4638,86.1767 22.7971,76.8434 23,67.5C 22.6667,66.1667 22.3333,64.8333 22,63.5C 13.2529,58.8536 11.2529,52.1869 16,43.5C 20.5599,39.2769 24.7266,34.7769 28.5,30C 30.7017,28.9777 33.0351,28.4777 35.5,28.5C 39.7053,28.9518 43.7053,29.9518 47.5,31.5 Z"/></g>
<g><path style="opacity:1" fill="#471401" d="M 82.5,85.5 C 86.5781,87.2355 89.5781,90.2355 91.5,94.5C 90.5,94.8333 89.5,95.1667 88.5,95.5C 83.1404,92.8321 77.8071,90.1655 72.5,87.5C 71.5667,84.6298 69.9,82.2964 67.5,80.5C 69.0745,79.3691 70.7412,79.2025 72.5,80C 74.8292,83.59 78.1625,85.4233 82.5,85.5 Z"/></g>
<g><path style="opacity:1" fill="#b42f1c" d="M 53.5,71.5 C 58.2979,75.7967 62.9645,80.2967 67.5,85C 69.0779,86.0945 70.7446,86.9278 72.5,87.5C 74.6242,90.3844 76.9576,93.0511 79.5,95.5C 73.3846,92.2223 67.3846,88.7223 61.5,85C 60.1667,83 58.8333,81 57.5,79C 56.552,78.5172 55.552,78.3505 54.5,78.5C 54.0074,76.1944 53.6741,73.861 53.5,71.5 Z"/></g>
<g><path style="opacity:1" fill="#5e1203" d="M 73.5,78.5 C 76.764,80.4231 79.764,82.7565 82.5,85.5C 78.1625,85.4233 74.8292,83.59 72.5,80C 70.7412,79.2025 69.0745,79.3691 67.5,80.5C 69.9,82.2964 71.5667,84.6298 72.5,87.5C 70.7446,86.9278 69.0779,86.0945 67.5,85C 62.9645,80.2967 58.2979,75.7967 53.5,71.5C 51.963,68.3984 49.963,65.7317 47.5,63.5C 46.4767,61.1542 45.4767,58.8209 44.5,56.5C 45.9305,56.4208 47.2638,56.7542 48.5,57.5C 54.749,67.0906 63.0823,74.0906 73.5,78.5 Z"/></g>
<g><path style="opacity:1" fill="#ac2d1b" d="M 73.5,78.5 C 63.0823,74.0906 54.749,67.0906 48.5,57.5C 47.2638,56.7542 45.9305,56.4208 44.5,56.5C 45.4767,58.8209 46.4767,61.1542 47.5,63.5C 45.8762,63.6399 44.7096,62.9733 44,61.5C 42.2715,54.891 44.4382,53.0576 50.5,56C 52.0905,57.0458 53.5905,58.2125 55,59.5C 55.8776,62.2154 57.3776,64.5487 59.5,66.5C 64.2784,70.5279 68.9451,74.5279 73.5,78.5 Z"/></g>
<g><path style="opacity:1" fill="#952514" d="M 73.5,78.5 C 76.5993,78.0923 78.9326,79.259 80.5,82C 83.8593,83.383 87.1926,84.7164 90.5,86C 95.7765,88.7618 97.4432,92.9284 95.5,98.5C 94.1667,98.8333 92.8333,99.1667 91.5,99.5C 87.3193,98.6388 83.3193,97.3055 79.5,95.5C 76.9576,93.0511 74.6242,90.3844 72.5,87.5C 77.8071,90.1655 83.1404,92.8321 88.5,95.5C 89.5,95.1667 90.5,94.8333 91.5,94.5C 89.5781,90.2355 86.5781,87.2355 82.5,85.5C 79.764,82.7565 76.764,80.4231 73.5,78.5 Z"/></g>
<g><path style="opacity:0.294" fill="#b27f5d" d="M 126.5,97.5 C 127.222,97.9175 127.722,98.5842 128,99.5C 128.814,104.02 128.647,108.354 127.5,112.5C 127.497,107.473 127.164,102.473 126.5,97.5 Z"/></g>
<g><path style="opacity:0.176" fill="#a67152" d="M 42.5,122.5 C 44.664,124.822 46.3307,127.489 47.5,130.5C 44.8361,128.516 43.1695,125.849 42.5,122.5 Z"/></g>
<g><path style="opacity:0.988" fill="#4b1d0e" d="M 115.5,59.5 C 116.15,59.8039 116.817,60.1373 117.5,60.5C 118.149,62.6241 118.983,64.6241 120,66.5C 120.213,74.8763 120.879,83.2096 122,91.5C 122.383,92.056 122.883,92.3893 123.5,92.5C 123.75,94.674 124.75,96.3406 126.5,97.5C 127.164,102.473 127.497,107.473 127.5,112.5C 126.538,115.757 125.038,118.757 123,121.5C 121.871,123.141 120.371,124.141 118.5,124.5C 116.407,125.045 114.407,125.878 112.5,127C 104.167,127.333 95.8333,127.667 87.5,128C 86.944,128.383 86.6107,128.883 86.5,129.5C 83.7718,129.171 81.4385,129.837 79.5,131.5C 76.3511,131.415 73.6845,132.415 71.5,134.5C 70.5,134.5 69.5,134.5 68.5,134.5C 68.9528,133.542 69.6195,132.708 70.5,132C 73.3106,131.089 76.1439,130.256 79,129.5C 80.6179,127.217 82.7846,125.717 85.5,125C 95.5,124.667 105.5,124.333 115.5,124C 118.295,120.531 121.129,117.031 124,113.5C 125.456,105.955 124.123,98.9548 120,92.5C 118.827,83.8839 118.161,75.2173 118,66.5C 116.864,64.257 116.03,61.9237 115.5,59.5 Z"/></g>
<g><path style="opacity:0.59" fill="#916345" d="M 118.5,124.5 C 116.351,126.746 113.684,128.246 110.5,129C 102.48,128.564 94.4799,128.73 86.5,129.5C 86.6107,128.883 86.944,128.383 87.5,128C 95.8333,127.667 104.167,127.333 112.5,127C 114.407,125.878 116.407,125.045 118.5,124.5 Z"/></g>
<g><path style="opacity:0.992" fill="#4a1c0c" d="M 10.5,49.5 C 11.166,52.3583 11.8326,55.3583 12.5,58.5C 16.6096,61.1179 19.4429,64.7846 21,69.5C 20.8031,79.0306 20.9697,88.5306 21.5,98C 23.5186,100.351 25.8519,102.351 28.5,104C 28.1667,104.333 27.8333,104.667 27.5,105C 32.7217,105.571 37.3884,107.404 41.5,110.5C 43.0781,115.931 44.7448,121.265 46.5,126.5C 47.675,126.281 48.675,126.614 49.5,127.5C 50.5217,130.987 52.855,132.32 56.5,131.5C 58.1392,132.473 59.4726,133.806 60.5,135.5C 57.7294,135.579 55.0627,135.079 52.5,134C 51.2107,132.198 49.5441,131.031 47.5,130.5C 46.3307,127.489 44.664,124.822 42.5,122.5C 40.7969,118.767 38.7969,115.1 36.5,111.5C 31.7147,109.961 27.0481,108.127 22.5,106C 20.2101,104.223 18.5434,102.056 17.5,99.5C 17.3305,97.1516 16.9971,94.8183 16.5,92.5C 17.7309,85.1968 18.2309,77.8634 18,70.5C 16.6842,66.1685 14.1842,62.8352 10.5,60.5C 10.5,56.8333 10.5,53.1667 10.5,49.5 Z"/></g>
<g><path style="opacity:0.149" fill="#b48460" d="M 86.5,129.5 C 84.4006,130.612 82.0673,131.279 79.5,131.5C 81.4385,129.837 83.7718,129.171 86.5,129.5 Z"/></g>
<g><path style="opacity:0.208" fill="#ad8554" d="M 79.5,131.5 C 77.2084,133.267 74.5418,134.267 71.5,134.5C 73.6845,132.415 76.3511,131.415 79.5,131.5 Z"/></g>
<g><path style="opacity:0.522" fill="#956541" d="M 47.5,130.5 C 49.5441,131.031 51.2107,132.198 52.5,134C 55.0627,135.079 57.7294,135.579 60.5,135.5C 63.2372,135.599 65.9039,135.265 68.5,134.5C 69.5,134.5 70.5,134.5 71.5,134.5C 64.9762,137.895 58.3095,138.062 51.5,135C 49.9586,133.629 48.6253,132.129 47.5,130.5 Z"/></g>
</svg>
