<?xml version="1.0" encoding="UTF-8"?>
<!DOCTYPE svg PUBLIC "-//W3C//DTD SVG 1.1//EN" "http://www.w3.org/Graphics/SVG/1.1/DTD/svg11.dtd">
<svg xmlns="http://www.w3.org/2000/svg" version="1.1" width="126px" height="118px" style="shape-rendering:geometricPrecision; text-rendering:geometricPrecision; image-rendering:optimizeQuality; fill-rule:evenodd; clip-rule:evenodd" xmlns:xlink="http://www.w3.org/1999/xlink">
<g><path style="opacity:0.208" fill="#c08764" d="M 55.5,2.5 C 58.1522,2.40953 60.4855,3.07619 62.5,4.5C 59.8478,4.59047 57.5145,3.92381 55.5,2.5 Z"/></g>
<g><path style="opacity:0.443" fill="#976749" d="M 55.5,2.5 C 52.8127,2.33591 50.146,2.50258 47.5,3C 42.8044,4.71379 38.471,6.88046 34.5,9.5C 40.2089,2.93018 47.2089,0.596847 55.5,2.5 Z"/></g>
<g><path style="opacity:0.325" fill="#a07852" d="M 62.5,4.5 C 64.674,4.74973 66.3406,5.74973 67.5,7.5C 64.9664,7.74085 63.2998,6.74085 62.5,4.5 Z"/></g>
<g><path style="opacity:0.931" fill="#7e5137" d="M 67.5,7.5 C 71.6829,9.08747 75.3495,11.4208 78.5,14.5C 75.0923,13.1369 71.759,11.8036 68.5,10.5C 68.4431,9.39105 68.1098,8.39105 67.5,7.5 Z"/></g>
<g><path style="opacity:0.42" fill="#ab7c5a" d="M 34.5,9.5 C 27.5446,10.1045 20.5446,11.1045 13.5,12.5C 14.842,11.207 16.5087,10.3736 18.5,10C 23.8229,9.50065 29.1563,9.33398 34.5,9.5 Z"/></g>
<g><path style="opacity:1" fill="#5a1d09" d="M 68.5,10.5 C 71.759,11.8036 75.0923,13.1369 78.5,14.5C 81.7598,15.7738 84.7598,17.4405 87.5,19.5C 85.4884,18.9862 83.4884,18.8195 81.5,19C 86.9138,24.9424 93.5805,28.6091 101.5,30C 103.093,30.9487 104.426,32.1154 105.5,33.5C 104.167,33.1667 102.833,32.8333 101.5,32.5C 96.9997,32.8381 93.333,31.3381 90.5,28C 87.495,27.467 84.8283,26.3004 82.5,24.5C 80.572,22.5259 78.2387,21.0259 75.5,20C 74.8333,19 74.1667,18 73.5,17C 69.3646,15.4318 65.3646,13.5985 61.5,11.5C 55.8827,8.11979 49.8827,7.61979 43.5,10C 41.9586,11.3712 40.6253,12.8712 39.5,14.5C 38.609,15.1098 37.609,15.4431 36.5,15.5C 37.7654,12.0387 40.0988,9.53868 43.5,8C 49.1667,7.33333 54.8333,7.33333 60.5,8C 62.7693,10.0229 65.4359,10.8563 68.5,10.5 Z"/></g>
<g><path style="opacity:1" fill="#a34513" d="M 61.5,11.5 C 55.8704,10.4793 50.2037,10.3127 44.5,11C 43.2107,12.8022 41.5441,13.9688 39.5,14.5C 40.6253,12.8712 41.9586,11.3712 43.5,10C 49.8827,7.61979 55.8827,8.11979 61.5,11.5 Z"/></g>
<g><path style="opacity:1" fill="#4a1c0d" d="M 55.5,2.5 C 57.5145,3.92381 59.8478,4.59047 62.5,4.5C 63.2998,6.74085 64.9664,7.74085 67.5,7.5C 68.1098,8.39105 68.4431,9.39105 68.5,10.5C 65.4359,10.8563 62.7693,10.0229 60.5,8C 54.8333,7.33333 49.1667,7.33333 43.5,8C 40.0988,9.53868 37.7654,12.0387 36.5,15.5C 28.7944,14.6646 21.4611,15.8312 14.5,19C 12.8082,20.3073 11.4749,21.8073 10.5,23.5C 8.11634,24.4251 7.11634,26.2585 7.5,29C 7.31985,31.8021 8.31985,33.9687 10.5,35.5C 12.0714,38.2313 14.4048,40.0646 17.5,41C 23.6391,42.8536 29.9725,44.0202 36.5,44.5C 36.5,45.8333 36.5,47.1667 36.5,48.5C 35.5,48.5 34.5,48.5 33.5,48.5C 33.3671,51.8957 32.3671,52.2291 30.5,49.5C 29.8279,51.8599 30.6612,53.8599 33,55.5C 34.1989,58.7256 34.6989,62.059 34.5,65.5C 33.1492,60.2954 30.8158,55.462 27.5,51C 21.5,48.6667 15.5,46.3333 9.5,44C 7.95862,42.6288 6.62529,41.1288 5.5,39.5C 3.52218,36.6944 2.52218,33.5278 2.5,30C 3.19704,26.4473 4.19704,22.9473 5.5,19.5C 7.52318,16.4797 10.1898,14.1464 13.5,12.5C 20.5446,11.1045 27.5446,10.1045 34.5,9.5C 38.471,6.88046 42.8044,4.71379 47.5,3C 50.146,2.50258 52.8127,2.33591 55.5,2.5 Z"/></g>
<g><path style="opacity:1" fill="#963d0f" d="M 36.5,15.5 C 26.9603,15.1229 18.2937,17.7896 10.5,23.5C 11.4749,21.8073 12.8082,20.3073 14.5,19C 21.4611,15.8312 28.7944,14.6646 36.5,15.5 Z"/></g>
<g><path style="opacity:1" fill="#cf6220" d="M 61.5,11.5 C 65.3646,13.5985 69.3646,15.4318 73.5,17C 74.1667,18 74.8333,19 75.5,20C 78.2387,21.0259 80.572,22.5259 82.5,24.5C 74.0326,20.5756 65.6993,16.4089 57.5,12C 53.5,11.3333 49.5,11.3333 45.5,12C 39.1364,17.932 31.4698,20.2653 22.5,19C 17.9086,20.0952 13.9086,22.2619 10.5,25.5C 9.3342,28.8369 9.3342,32.1702 10.5,35.5C 8.31985,33.9687 7.31985,31.8021 7.5,29C 7.11634,26.2585 8.11634,24.4251 10.5,23.5C 18.2937,17.7896 26.9603,15.1229 36.5,15.5C 37.609,15.4431 38.609,15.1098 39.5,14.5C 41.5441,13.9688 43.2107,12.8022 44.5,11C 50.2037,10.3127 55.8704,10.4793 61.5,11.5 Z"/></g>
<g><path style="opacity:0.176" fill="#b27f61" d="M 87.5,19.5 C 90.3973,20.129 93.064,21.129 95.5,22.5C 92.284,22.6545 89.6174,21.6545 87.5,19.5 Z"/></g>
<g><path style="opacity:0.396" fill="#a37155" d="M 5.5,19.5 C 4.19704,22.9473 3.19704,26.4473 2.5,30C 2.52218,33.5278 3.52218,36.6944 5.5,39.5C 2.37691,36.9983 0.71024,33.665 0.5,29.5C 0.71024,25.335 2.37691,22.0017 5.5,19.5 Z"/></g>
<g><path style="opacity:1" fill="#fa6705" d="M 106.5,37.5 C 114.407,40.6824 115.24,45.0157 109,50.5C 108.819,53.6946 108.319,56.6946 107.5,59.5C 105.333,62.8205 102.333,65.3205 98.5,67C 92.1754,67.4995 85.8421,67.6662 79.5,67.5C 78.9002,66.1001 77.9002,65.1001 76.5,64.5C 76.4208,63.0695 76.7542,61.7362 77.5,60.5C 74.5535,59.6786 71.5535,59.1786 68.5,59C 67.6634,57.9887 67.33,56.8221 67.5,55.5C 72.2115,55.2816 76.8781,55.6149 81.5,56.5C 89.6494,54.2517 91.4828,49.9184 87,43.5C 86.6667,43.8333 86.3333,44.1667 86,44.5C 83.302,43.7202 80.9686,42.3869 79,40.5C 75.1638,42.3888 70.9971,43.0555 66.5,42.5C 66.1667,42.5 65.8333,42.5 65.5,42.5C 65.67,41.1779 65.3366,40.0113 64.5,39C 60.6793,37.8391 57.1793,36.0057 54,33.5C 52.8333,29.3333 54.3333,27.8333 58.5,29C 60.3289,29.2735 61.8289,30.1068 63,31.5C 63.414,31.0426 63.914,30.7093 64.5,30.5C 67.6014,32.0984 70.2681,34.2651 72.5,37C 75.896,39.4548 79.5626,39.9548 83.5,38.5C 84.48,35.9135 84.8134,33.2469 84.5,30.5C 92.2611,31.6432 99.5944,33.9766 106.5,37.5 Z"/></g>
<g><path style="opacity:0.286" fill="#af805e" d="M 95.5,22.5 C 106.172,23.328 114.505,27.9946 120.5,36.5C 114.021,29.5449 106.021,25.3783 96.5,24C 95.944,23.6174 95.6107,23.1174 95.5,22.5 Z"/></g>
<g><path style="opacity:1" fill="#f16e0b" d="M 82.5,24.5 C 84.8283,26.3004 87.495,27.467 90.5,28C 93.333,31.3381 96.9997,32.8381 101.5,32.5C 102.347,33.9663 103.68,34.7996 105.5,35C 106.252,35.6708 106.586,36.5041 106.5,37.5C 99.5944,33.9766 92.2611,31.6432 84.5,30.5C 84.8134,33.2469 84.48,35.9135 83.5,38.5C 79.5626,39.9548 75.896,39.4548 72.5,37C 70.2681,34.2651 67.6014,32.0984 64.5,30.5C 63.914,30.7093 63.414,31.0426 63,31.5C 61.8289,30.1068 60.3289,29.2735 58.5,29C 54.3333,27.8333 52.8333,29.3333 54,33.5C 57.1793,36.0057 60.6793,37.8391 64.5,39C 65.3366,40.0113 65.67,41.1779 65.5,42.5C 59.7991,40.979 54.9658,37.979 51,33.5C 50.1041,30.975 50.6041,28.8083 52.5,27C 55.146,26.5026 57.8127,26.3359 60.5,26.5C 66.928,27.714 72.5947,30.5473 77.5,35C 78.448,35.4828 79.448,35.6495 80.5,35.5C 79.7051,31.28 78.0384,27.4467 75.5,24C 66.7832,19.1573 57.4498,17.4907 47.5,19C 43.8951,21.1148 42.2284,24.2815 42.5,28.5C 42.0072,34.932 44.3405,39.932 49.5,43.5C 51.7596,46.6355 54.7596,48.8021 58.5,50C 64.3516,50.4552 70.0183,51.6219 75.5,53.5C 78.5917,53.4931 81.5917,52.9931 84.5,52C 85.3802,50.6439 85.7135,49.1439 85.5,47.5C 79.1047,45.739 72.7714,44.0723 66.5,42.5C 70.9971,43.0555 75.1638,42.3888 79,40.5C 80.9686,42.3869 83.302,43.7202 86,44.5C 86.3333,44.1667 86.6667,43.8333 87,43.5C 91.4828,49.9184 89.6494,54.2517 81.5,56.5C 76.8781,55.6149 72.2115,55.2816 67.5,55.5C 67.33,56.8221 67.6634,57.9887 68.5,59C 71.5535,59.1786 74.5535,59.6786 77.5,60.5C 76.7542,61.7362 76.4208,63.0695 76.5,64.5C 67.3256,60.46 58.9922,55.1267 51.5,48.5C 48.3161,46.8901 44.9828,45.8901 41.5,45.5C 40.9423,44.2101 39.9423,43.3768 38.5,43C 32.2554,41.2608 25.9221,39.9275 19.5,39C 17.6803,38.7996 16.347,37.9663 15.5,36.5C 13.9582,35.6993 12.2915,35.366 10.5,35.5C 9.3342,32.1702 9.3342,28.8369 10.5,25.5C 13.9086,22.2619 17.9086,20.0952 22.5,19C 31.4698,20.2653 39.1364,17.932 45.5,12C 49.5,11.3333 53.5,11.3333 57.5,12C 65.6993,16.4089 74.0326,20.5756 82.5,24.5 Z"/></g>
<g><path style="opacity:1" fill="#fb6702" d="M 15.5,36.5 C 15.9783,33.7224 14.9783,31.7224 12.5,30.5C 13.8829,26.2813 16.5496,23.1146 20.5,21C 26.5,20.3333 32.5,19.6667 38.5,19C 41.4099,17.3569 44.0766,15.3569 46.5,13C 50.5935,12.2327 54.5935,12.566 58.5,14C 52.267,15.5236 46.4336,18.0236 41,21.5C 41.1101,27.8819 40.9434,34.2153 40.5,40.5C 39.277,41.6139 37.9437,41.7805 36.5,41C 32.7073,39.9324 29.0406,38.4324 25.5,36.5C 22.187,37.51 18.8537,37.51 15.5,36.5 Z"/></g>
<g><path style="opacity:1" fill="#fa9221" d="M 60.5,26.5 C 57.8127,26.3359 55.146,26.5026 52.5,27C 50.6041,28.8083 50.1041,30.975 51,33.5C 54.9658,37.979 59.7991,40.979 65.5,42.5C 65.8333,42.5 66.1667,42.5 66.5,42.5C 72.7714,44.0723 79.1047,45.739 85.5,47.5C 85.7135,49.1439 85.3802,50.6439 84.5,52C 81.5917,52.9931 78.5917,53.4931 75.5,53.5C 70.0183,51.6219 64.3516,50.4552 58.5,50C 54.7596,48.8021 51.7596,46.6355 49.5,43.5C 58.7945,48.6185 68.7945,51.1185 79.5,51C 80.3567,50.3109 81.0233,49.4776 81.5,48.5C 74.4783,47.0563 67.4783,45.5563 60.5,44C 56.1733,41.0493 51.84,38.0493 47.5,35C 48.0871,26.2287 52.4205,23.3953 60.5,26.5 Z"/></g>
<g><path style="opacity:1" fill="#fda32c" d="M 60.5,26.5 C 52.4205,23.3953 48.0871,26.2287 47.5,35C 51.84,38.0493 56.1733,41.0493 60.5,44C 67.4783,45.5563 74.4783,47.0563 81.5,48.5C 81.0233,49.4776 80.3567,50.3109 79.5,51C 68.7945,51.1185 58.7945,48.6185 49.5,43.5C 44.3405,39.932 42.0072,34.932 42.5,28.5C 42.2284,24.2815 43.8951,21.1148 47.5,19C 57.4498,17.4907 66.7832,19.1573 75.5,24C 78.0384,27.4467 79.7051,31.28 80.5,35.5C 79.448,35.6495 78.448,35.4828 77.5,35C 72.5947,30.5473 66.928,27.714 60.5,26.5 Z"/></g>
<g><path style="opacity:0.698" fill="#a27353" d="M 120.5,36.5 C 124.021,40.6165 124.355,44.9498 121.5,49.5C 121.533,45.1311 121.2,40.7978 120.5,36.5 Z"/></g>
<g><path style="opacity:1" fill="#bc561d" d="M 10.5,35.5 C 12.2915,35.366 13.9582,35.6993 15.5,36.5C 16.347,37.9663 17.6803,38.7996 19.5,39C 25.9221,39.9275 32.2554,41.2608 38.5,43C 39.9423,43.3768 40.9423,44.2101 41.5,45.5C 39.8828,44.962 38.2161,44.6287 36.5,44.5C 29.9725,44.0202 23.6391,42.8536 17.5,41C 14.4048,40.0646 12.0714,38.2313 10.5,35.5 Z"/></g>
<g><path style="opacity:1" fill="#ca5a19" d="M 41.5,45.5 C 44.9828,45.8901 48.3161,46.8901 51.5,48.5C 58.9922,55.1267 67.3256,60.46 76.5,64.5C 77.9002,65.1001 78.9002,66.1001 79.5,67.5C 76.0532,66.3533 72.7199,65.02 69.5,63.5C 67.8211,63.1077 66.1545,62.6077 64.5,62C 56.9311,56.2491 49.2645,50.7491 41.5,45.5 Z"/></g>
<g><path style="opacity:1" fill="#4e1503" d="M 36.5,44.5 C 38.2161,44.6287 39.8828,44.962 41.5,45.5C 49.2645,50.7491 56.9311,56.2491 64.5,62C 66.1545,62.6077 67.8211,63.1077 69.5,63.5C 71.9922,66.6747 75.3256,68.3414 79.5,68.5C 81.2191,69.0221 82.5525,70.0221 83.5,71.5C 80.8333,71.8333 78.1667,72.1667 75.5,72.5C 75.5417,70.1511 74.3751,68.8178 72,68.5C 70.3889,70.2096 68.8889,72.0429 67.5,74C 68.756,74.4169 69.4226,75.2502 69.5,76.5C 67.6693,77.0522 66.0026,77.0522 64.5,76.5C 64.3787,73.9982 64.2121,71.3315 64,68.5C 63.2917,67.6195 62.4584,66.9528 61.5,66.5C 58.6048,62.7595 54.9381,60.0928 50.5,58.5C 49.3646,56.7868 47.698,56.1201 45.5,56.5C 45.8266,61.2137 45.4933,65.8804 44.5,70.5C 43.8332,65.3489 43.1665,60.3489 42.5,55.5C 42.8453,52.512 41.512,51.1787 38.5,51.5C 36.9704,51.6399 35.9704,52.3065 35.5,53.5C 38.9671,63.8603 40.3005,74.527 39.5,85.5C 37.8929,90.0759 36.2262,94.7426 34.5,99.5C 34.1667,99.5 33.8333,99.5 33.5,99.5C 35.7521,92.7639 37.0854,85.7639 37.5,78.5C 37.3718,73.8404 36.3718,69.507 34.5,65.5C 34.6989,62.059 34.1989,58.7256 33,55.5C 30.6612,53.8599 29.8279,51.8599 30.5,49.5C 32.3671,52.2291 33.3671,51.8957 33.5,48.5C 34.5,48.5 35.5,48.5 36.5,48.5C 36.5,47.1667 36.5,45.8333 36.5,44.5 Z"/></g>
<g><path style="opacity:0.114" fill="#b99656" d="M 121.5,50.5 C 120.737,52.3684 119.737,54.0351 118.5,55.5C 118.259,52.9664 119.259,51.2998 121.5,50.5 Z"/></g>
<g><path style="opacity:1" fill="#a54916" d="M 101.5,32.5 C 102.833,32.8333 104.167,33.1667 105.5,33.5C 108.057,35.0324 110.557,36.6991 113,38.5C 116.856,43.3645 116.19,47.3645 111,50.5C 110.827,54.5408 110.327,58.5408 109.5,62.5C 108.479,64.188 107.145,65.5213 105.5,66.5C 104.833,66.5 104.167,66.5 103.5,66.5C 106.48,65.1707 107.813,62.8374 107.5,59.5C 108.319,56.6946 108.819,53.6946 109,50.5C 115.24,45.0157 114.407,40.6824 106.5,37.5C 106.586,36.5041 106.252,35.6708 105.5,35C 103.68,34.7996 102.347,33.9663 101.5,32.5 Z"/></g>
<g><path style="opacity:1" fill="#cf6624" d="M 42.5,55.5 C 42.9239,59.7032 42.4239,63.7032 41,67.5C 39.7844,65.038 39.1177,62.3713 39,59.5C 38.2838,57.1209 37.1172,55.1209 35.5,53.5C 35.9704,52.3065 36.9704,51.6399 38.5,51.5C 41.512,51.1787 42.8453,52.512 42.5,55.5 Z"/></g>
<g><path style="opacity:1" fill="#8b360a" d="M 69.5,63.5 C 72.7199,65.02 76.0532,66.3533 79.5,67.5C 79.5,67.8333 79.5,68.1667 79.5,68.5C 75.3256,68.3414 71.9922,66.6747 69.5,63.5 Z"/></g>
<g><path style="opacity:1" fill="#da6921" d="M 107.5,59.5 C 107.813,62.8374 106.48,65.1707 103.5,66.5C 95.807,69.6967 87.807,70.3634 79.5,68.5C 79.5,68.1667 79.5,67.8333 79.5,67.5C 85.8421,67.6662 92.1754,67.4995 98.5,67C 102.333,65.3205 105.333,62.8205 107.5,59.5 Z"/></g>
<g><path style="opacity:1" fill="#903d17" d="M 35.5,53.5 C 37.1172,55.1209 38.2838,57.1209 39,59.5C 39.1177,62.3713 39.7844,65.038 41,67.5C 42.4239,63.7032 42.9239,59.7032 42.5,55.5C 43.1665,60.3489 43.8332,65.3489 44.5,70.5C 45.4933,65.8804 45.8266,61.2137 45.5,56.5C 47.698,56.1201 49.3646,56.7868 50.5,58.5C 49.4168,58.4606 48.4168,58.1272 47.5,57.5C 46.6717,62.1315 46.1717,66.7982 46,71.5C 44.7581,72.8721 43.2581,73.8721 41.5,74.5C 40.8329,78.3125 40.1663,81.9792 39.5,85.5C 40.3005,74.527 38.9671,63.8603 35.5,53.5 Z"/></g>
<g><path style="opacity:1" fill="#621f05" d="M 103.5,66.5 C 104.167,66.5 104.833,66.5 105.5,66.5C 103.925,68.9406 101.592,70.1072 98.5,70C 98.8333,70.3333 99.1667,70.6667 99.5,71C 94.1771,71.4994 88.8437,71.666 83.5,71.5C 82.5525,70.0221 81.2191,69.0221 79.5,68.5C 87.807,70.3634 95.807,69.6967 103.5,66.5 Z"/></g>
<g><path style="opacity:1" fill="#481d0f" d="M 87.5,19.5 C 89.6174,21.6545 92.284,22.6545 95.5,22.5C 95.6107,23.1174 95.944,23.6174 96.5,24C 106.021,25.3783 114.021,29.5449 120.5,36.5C 121.2,40.7978 121.533,45.1311 121.5,49.5C 121.5,49.8333 121.5,50.1667 121.5,50.5C 119.259,51.2998 118.259,52.9664 118.5,55.5C 115.658,69.6003 106.991,76.6003 92.5,76.5C 84.8057,75.4399 77.139,75.4399 69.5,76.5C 69.4226,75.2502 68.756,74.4169 67.5,74C 68.8889,72.0429 70.3889,70.2096 72,68.5C 74.3751,68.8178 75.5417,70.1511 75.5,72.5C 78.1667,72.1667 80.8333,71.8333 83.5,71.5C 88.8437,71.666 94.1771,71.4994 99.5,71C 99.1667,70.6667 98.8333,70.3333 98.5,70C 101.592,70.1072 103.925,68.9406 105.5,66.5C 107.145,65.5213 108.479,64.188 109.5,62.5C 110.327,58.5408 110.827,54.5408 111,50.5C 116.19,47.3645 116.856,43.3645 113,38.5C 110.557,36.6991 108.057,35.0324 105.5,33.5C 104.426,32.1154 103.093,30.9487 101.5,30C 93.5805,28.6091 86.9138,24.9424 81.5,19C 83.4884,18.8195 85.4884,18.9862 87.5,19.5 Z"/></g>
<g><path style="opacity:1" fill="#e36b23" d="M 61.5,66.5 C 64.831,71.1812 63.831,74.5146 58.5,76.5C 57.5,76.5 56.5,76.5 55.5,76.5C 55.8128,72.9581 55.4794,69.6248 54.5,66.5C 54.5,65.8333 54.1667,65.5 53.5,65.5C 53.9081,64.3569 54.5748,63.3569 55.5,62.5C 57.264,64.2776 59.264,65.6109 61.5,66.5 Z"/></g>
<g><path style="opacity:0.969" fill="#733920" d="M 61.5,66.5 C 62.4584,66.9528 63.2917,67.6195 64,68.5C 64.2121,71.3315 64.3787,73.9982 64.5,76.5C 66.0026,77.0522 67.6693,77.0522 69.5,76.5C 62.9176,80.413 57.2509,85.413 52.5,91.5C 53.1495,89.5648 53.4828,87.5648 53.5,85.5C 56.0842,85.4312 58.0842,84.2645 59.5,82C 58.9221,80.583 57.9221,79.7496 56.5,79.5C 57.1667,78.5 57.8333,77.5 58.5,76.5C 63.831,74.5146 64.831,71.1812 61.5,66.5 Z"/></g>
<g><path style="opacity:1" fill="#f16a11" d="M 48.5,85.5 C 47.6618,85.8417 47.3284,86.5084 47.5,87.5C 46.4168,87.5394 45.4168,87.8728 44.5,88.5C 43.6733,90.162 42.5067,91.4954 41,92.5C 41.0278,87.1832 41.3611,81.8499 42,76.5C 43.0852,75.7069 44.2519,75.0402 45.5,74.5C 47.1145,78.0086 48.1145,81.6753 48.5,85.5 Z"/></g>
<g><path style="opacity:1" fill="#c95c1e" d="M 50.5,58.5 C 54.9381,60.0928 58.6048,62.7595 61.5,66.5C 59.264,65.6109 57.264,64.2776 55.5,62.5C 54.5748,63.3569 53.9081,64.3569 53.5,65.5C 51.0885,65.1367 49.5885,66.1367 49,68.5C 48.1747,72.2113 48.3414,75.878 49.5,79.5C 51.3231,78.5091 52.8231,77.1757 54,75.5C 54.498,72.5184 54.6646,69.5184 54.5,66.5C 55.4794,69.6248 55.8128,72.9581 55.5,76.5C 56.5,76.5 57.5,76.5 58.5,76.5C 57.8333,77.5 57.1667,78.5 56.5,79.5C 53.5691,81.0908 50.9024,83.0908 48.5,85.5C 48.1145,81.6753 47.1145,78.0086 45.5,74.5C 44.2519,75.0402 43.0852,75.7069 42,76.5C 41.3611,81.8499 41.0278,87.1832 41,92.5C 42.5067,91.4954 43.6733,90.162 44.5,88.5C 45.4168,87.8728 46.4168,87.5394 47.5,87.5C 44.459,94.2409 41.459,100.908 38.5,107.5C 39.229,103.313 40.5623,99.313 42.5,95.5C 41.7579,94.7132 40.9246,94.0465 40,93.5C 38.329,95.6701 36.4956,97.6701 34.5,99.5C 36.2262,94.7426 37.8929,90.0759 39.5,85.5C 40.1663,81.9792 40.8329,78.3125 41.5,74.5C 43.2581,73.8721 44.7581,72.8721 46,71.5C 46.1717,66.7982 46.6717,62.1315 47.5,57.5C 48.4168,58.1272 49.4168,58.4606 50.5,58.5 Z"/></g>
<g><path style="opacity:1" fill="#641704" d="M 53.5,65.5 C 54.1667,65.5 54.5,65.8333 54.5,66.5C 54.6646,69.5184 54.498,72.5184 54,75.5C 52.8231,77.1757 51.3231,78.5091 49.5,79.5C 48.3414,75.878 48.1747,72.2113 49,68.5C 49.5885,66.1367 51.0885,65.1367 53.5,65.5 Z"/></g>
<g><path style="opacity:0.165" fill="#b28c57" d="M 51.5,93.5 C 51.2671,96.5418 50.2671,99.2084 48.5,101.5C 48.7329,98.4582 49.7329,95.7916 51.5,93.5 Z"/></g>
<g><path style="opacity:1" fill="#4f1f0f" d="M 34.5,65.5 C 36.3718,69.507 37.3718,73.8404 37.5,78.5C 37.0854,85.7639 35.7521,92.7639 33.5,99.5C 32.928,100.973 32.0946,102.307 31,103.5C 29.7072,106.862 30.7072,108.862 34,109.5C 35.6991,109.613 36.8658,108.947 37.5,107.5C 37.8333,107.5 38.1667,107.5 38.5,107.5C 41.459,100.908 44.459,94.2409 47.5,87.5C 47.3284,86.5084 47.6618,85.8417 48.5,85.5C 50.9024,83.0908 53.5691,81.0908 56.5,79.5C 57.9221,79.7496 58.9221,80.583 59.5,82C 58.0842,84.2645 56.0842,85.4312 53.5,85.5C 53.4828,87.5648 53.1495,89.5648 52.5,91.5C 52.6716,92.4916 52.3382,93.1583 51.5,93.5C 49.7329,95.7916 48.7329,98.4582 48.5,101.5C 47.3521,112.49 41.3521,117.323 30.5,116C 27.4522,115.394 24.9522,113.894 23,111.5C 22.5325,107.025 23.1992,102.691 25,98.5C 27.6667,93.1667 30.3333,87.8333 33,82.5C 34.2889,76.9116 34.7889,71.2449 34.5,65.5 Z"/></g>
<g><path style="opacity:1" fill="#c06025" d="M 33.5,99.5 C 33.8333,99.5 34.1667,99.5 34.5,99.5C 34.3059,102.33 33.6392,104.996 32.5,107.5C 34.1667,107.5 35.8333,107.5 37.5,107.5C 36.8658,108.947 35.6991,109.613 34,109.5C 30.7072,108.862 29.7072,106.862 31,103.5C 32.0946,102.307 32.928,100.973 33.5,99.5 Z"/></g>
<g><path style="opacity:1" fill="#eb6b1a" d="M 38.5,107.5 C 38.1667,107.5 37.8333,107.5 37.5,107.5C 35.8333,107.5 34.1667,107.5 32.5,107.5C 33.6392,104.996 34.3059,102.33 34.5,99.5C 36.4956,97.6701 38.329,95.6701 40,93.5C 40.9246,94.0465 41.7579,94.7132 42.5,95.5C 40.5623,99.313 39.229,103.313 38.5,107.5 Z"/></g>
</svg>
