<?xml version="1.0" encoding="UTF-8"?>
<!DOCTYPE svg PUBLIC "-//W3C//DTD SVG 1.1//EN" "http://www.w3.org/Graphics/SVG/1.1/DTD/svg11.dtd">
<svg xmlns="http://www.w3.org/2000/svg" version="1.1" width="198px" height="157px" style="shape-rendering:geometricPrecision; text-rendering:geometricPrecision; image-rendering:optimizeQuality; fill-rule:evenodd; clip-rule:evenodd" xmlns:xlink="http://www.w3.org/1999/xlink">
<g><path style="opacity:0.169" fill="#b5855c" d="M 116.5,1.5 C 119.304,0.362156 122.304,0.195489 125.5,1C 129.007,2.8613 130.173,5.69463 129,9.5C 127.357,12.9614 125.19,15.9614 122.5,18.5C 123.343,15.4838 124.843,12.8171 127,10.5C 127.814,8.09821 127.647,5.76488 126.5,3.5C 123.388,1.81635 120.054,1.14968 116.5,1.5 Z"/></g>
<g><path style="opacity:0.278" fill="#a16e52" d="M 80.5,17.5 C 72.8333,17.5 65.1667,17.5 57.5,17.5C 61.3388,16.707 65.3388,16.0403 69.5,15.5C 73.331,16.0272 76.9976,16.6939 80.5,17.5 Z"/></g>
<g><path style="opacity:0.396" fill="#946845" d="M 114.5,2.5 C 109.291,7.90705 105.457,14.2404 103,21.5C 100.619,22.435 98.1194,22.7683 95.5,22.5C 90.8475,20.8426 86.1808,19.176 81.5,17.5C 87.8143,18.9997 94.1476,20.1664 100.5,21C 103.431,16.3166 106.264,11.4833 109,6.5C 110.451,4.53594 112.284,3.20261 114.5,2.5 Z"/></g>
<g><path style="opacity:0.469" fill="#a07250" d="M 122.5,18.5 C 122.461,19.5832 122.127,20.5832 121.5,21.5C 123,21.8333 124.5,22.1667 126,22.5C 136.131,20.8312 145.964,21.4978 155.5,24.5C 143.856,23.6388 132.19,23.3054 120.5,23.5C 120.077,21.2188 120.744,19.5521 122.5,18.5 Z"/></g>
<g><path style="opacity:1" fill="#fb6702" d="M 87.5,24.5 C 91.936,27.0517 96.6026,29.0517 101.5,30.5C 101.842,31.3382 102.508,31.6716 103.5,31.5C 103.175,35.6502 105.175,37.6502 109.5,37.5C 115.52,36.9687 120.854,34.802 125.5,31C 134.123,29.2902 142.79,29.1235 151.5,30.5C 155.996,31.9215 160.329,33.5881 164.5,35.5C 164.414,36.4959 164.748,37.3292 165.5,38C 172.24,40.6817 177.24,45.1817 180.5,51.5C 189.415,66.2081 189.749,81.2081 181.5,96.5C 183.272,100.63 182.272,103.964 178.5,106.5C 176.976,111.882 174.642,116.882 171.5,121.5C 169.058,122.994 166.391,123.994 163.5,124.5C 160.752,126.993 158.752,129.993 157.5,133.5C 149.949,137.547 142.283,141.38 134.5,145C 109.882,144.097 85.2152,143.431 60.5,143C 56.4639,140.89 52.1306,139.723 47.5,139.5C 44.9322,137.919 43.5989,135.586 43.5,132.5C 39.3047,132.969 36.3047,131.302 34.5,127.5C 29.916,127.42 26.416,125.42 24,121.5C 20.8815,113.93 17.2148,106.596 13,99.5C 10.6939,90.9652 10.0273,82.2985 11,73.5C 13.7266,69.6101 15.3932,65.2768 16,60.5C 17.0113,59.6634 18.1779,59.33 19.5,59.5C 19.5,57.8333 19.5,56.1667 19.5,54.5C 19.3505,53.448 19.5172,52.448 20,51.5C 22.4003,49.2707 24.567,46.9374 26.5,44.5C 30.625,41.5474 34.625,38.3807 38.5,35C 44.8151,31.1757 51.4818,27.8424 58.5,25C 68.1665,23.401 77.8331,23.2343 87.5,24.5 Z"/></g>
<g><path style="opacity:1" fill="#431807" d="M 116.5,1.5 C 120.054,1.14968 123.388,1.81635 126.5,3.5C 127.647,5.76488 127.814,8.09821 127,10.5C 124.843,12.8171 123.343,15.4838 122.5,18.5C 120.744,19.5521 120.077,21.2188 120.5,23.5C 121.968,25.6109 121.635,27.4443 119.5,29C 116.046,30.3024 112.712,31.8024 109.5,33.5C 107.063,31.4758 104.73,29.3091 102.5,27C 99.6484,25.4091 96.6484,24.0758 93.5,23C 94.0944,22.5357 94.7611,22.369 95.5,22.5C 98.1194,22.7683 100.619,22.435 103,21.5C 105.457,14.2404 109.291,7.90705 114.5,2.5C 114.842,1.66175 115.508,1.32842 116.5,1.5 Z"/></g>
<g><path style="opacity:1" fill="#66220d" d="M 120.5,10.5 C 118.79,16.7152 115.957,22.3819 112,27.5C 109.036,23.0835 108.703,18.4168 111,13.5C 111.708,12.6195 112.542,11.9528 113.5,11.5C 111.123,15.1438 110.289,19.1438 111,23.5C 113.699,18.7442 116.866,14.4109 120.5,10.5 Z"/></g>
<g><path style="opacity:1" fill="#c6652a" d="M 120.5,10.5 C 116.866,14.4109 113.699,18.7442 111,23.5C 110.289,19.1438 111.123,15.1438 113.5,11.5C 114.587,7.42725 117.254,5.76059 121.5,6.5C 121.567,7.95875 121.234,9.29208 120.5,10.5 Z"/></g>
<g><path style="opacity:1" fill="#4f1c0b" d="M 57.5,17.5 C 65.1667,17.5 72.8333,17.5 80.5,17.5C 80.8333,17.5 81.1667,17.5 81.5,17.5C 86.1808,19.176 90.8475,20.8426 95.5,22.5C 94.7611,22.369 94.0944,22.5357 93.5,23C 96.6484,24.0758 99.6484,25.4091 102.5,27C 104.73,29.3091 107.063,31.4758 109.5,33.5C 112.712,31.8024 116.046,30.3024 119.5,29C 121.635,27.4443 121.968,25.6109 120.5,23.5C 132.19,23.3054 143.856,23.6388 155.5,24.5C 163.455,25.9786 170.455,29.3119 176.5,34.5C 177.144,37.144 178.811,38.8106 181.5,39.5C 184.815,42.1251 187.149,45.4584 188.5,49.5C 189.267,53.1488 190.6,56.4822 192.5,59.5C 193.167,66.8333 193.833,74.1667 194.5,81.5C 194.349,89.9285 192.682,97.9285 189.5,105.5C 187.526,108.77 185.526,112.103 183.5,115.5C 182.571,114.311 182.238,112.978 182.5,111.5C 184.245,107.929 185.578,104.262 186.5,100.5C 188.118,96.3111 189.118,91.9777 189.5,87.5C 190.222,87.0825 190.722,86.4158 191,85.5C 191.667,78.5 191.667,71.5 191,64.5C 190.33,61.8261 189.163,59.4927 187.5,57.5C 183.056,46.7207 175.389,39.3873 164.5,35.5C 163.365,34.5255 162.365,33.3588 161.5,32C 146.972,26.4006 132.305,26.0673 117.5,31C 112.82,36.5306 108.154,36.6973 103.5,31.5C 102.508,31.6716 101.842,31.3382 101.5,30.5C 91.451,22.0457 79.7843,18.5457 66.5,20C 63.2695,20.8611 60.2695,22.0278 57.5,23.5C 53.6393,26.0842 49.306,27.5842 44.5,28C 42.91,30.7932 40.5766,32.6266 37.5,33.5C 27.4257,39.576 19.759,47.9094 14.5,58.5C 12.7868,59.6354 12.1201,61.302 12.5,63.5C 9.91579,67.3607 8.41579,71.694 8,76.5C 7.33333,81.8333 7.33333,87.1667 8,92.5C 9.84297,100.505 12.5096,108.172 16,115.5C 17.7038,117.373 19.5372,119.04 21.5,120.5C 27.0662,127.42 33.3995,133.087 40.5,137.5C 40.3691,138.376 40.7025,139.043 41.5,139.5C 47.4467,141.24 52.78,143.907 57.5,147.5C 59.0725,148.687 60.7392,149.687 62.5,150.5C 43.1897,147.096 27.023,138.096 14,123.5C 11.9404,120.714 10.4404,117.714 9.5,114.5C 8.42882,111.053 7.42882,107.553 6.5,104C 6.16389,102.97 5.49722,102.47 4.5,102.5C 3.73465,99.9039 3.40132,97.2372 3.5,94.5C 3.33407,89.4889 3.50074,84.4889 4,79.5C 5.29892,78.91 6.13225,77.91 6.5,76.5C 5.56007,73.8684 5.3934,71.2017 6,68.5C 8.01273,63.963 9.51273,59.2963 10.5,54.5C 11.3764,54.6309 12.0431,54.2975 12.5,53.5C 17.2811,43.0511 24.2811,34.3844 33.5,27.5C 40.5198,21.9952 48.5198,18.6619 57.5,17.5 Z"/></g>
<g><path style="opacity:1" fill="#be561a" d="M 164.5,35.5 C 175.389,39.3873 183.056,46.7207 187.5,57.5C 187.5,58.8333 187.5,60.1667 187.5,61.5C 186.198,59.3277 185.032,56.9944 184,54.5C 182.961,53.2899 181.794,52.2899 180.5,51.5C 177.24,45.1817 172.24,40.6817 165.5,38C 164.748,37.3292 164.414,36.4959 164.5,35.5 Z"/></g>
<g><path style="opacity:1" fill="#c85c1c" d="M 164.5,35.5 C 160.329,33.5881 155.996,31.9215 151.5,30.5C 142.79,29.1235 134.123,29.2902 125.5,31C 120.854,34.802 115.52,36.9687 109.5,37.5C 105.175,37.6502 103.175,35.6502 103.5,31.5C 108.154,36.6973 112.82,36.5306 117.5,31C 132.305,26.0673 146.972,26.4006 161.5,32C 162.365,33.3588 163.365,34.5255 164.5,35.5 Z"/></g>
<g><path style="opacity:1" fill="#df6a1e" d="M 87.5,24.5 C 77.8331,23.2343 68.1665,23.401 58.5,25C 51.4818,27.8424 44.8151,31.1757 38.5,35C 34.625,38.3807 30.625,41.5474 26.5,44.5C 29.8123,40.521 33.479,36.8544 37.5,33.5C 40.5766,32.6266 42.91,30.7932 44.5,28C 49.306,27.5842 53.6393,26.0842 57.5,23.5C 66.7987,21.2249 76.132,21.0582 85.5,23C 86.4158,23.2784 87.0825,23.7784 87.5,24.5 Z"/></g>
<g><path style="opacity:1" fill="#973d0f" d="M 101.5,30.5 C 96.6026,29.0517 91.936,27.0517 87.5,24.5C 87.0825,23.7784 86.4158,23.2784 85.5,23C 76.132,21.0582 66.7987,21.2249 57.5,23.5C 60.2695,22.0278 63.2695,20.8611 66.5,20C 79.7843,18.5457 91.451,22.0457 101.5,30.5 Z"/></g>
<g><path style="opacity:0.141" fill="#a37a57" d="M 176.5,34.5 C 178.911,35.517 180.578,37.1837 181.5,39.5C 178.811,38.8106 177.144,37.144 176.5,34.5 Z"/></g>
<g><path style="opacity:0.298" fill="#a17152" d="M 33.5,27.5 C 24.2811,34.3844 17.2811,43.0511 12.5,53.5C 12.0431,54.2975 11.3764,54.6309 10.5,54.5C 15.1355,42.8818 22.8021,33.8818 33.5,27.5 Z"/></g>
<g><path style="opacity:1" fill="#ac4c16" d="M 37.5,33.5 C 33.479,36.8544 29.8123,40.521 26.5,44.5C 24.567,46.9374 22.4003,49.2707 20,51.5C 19.5172,52.448 19.3505,53.448 19.5,54.5C 17.8207,55.9163 16.1541,57.2497 14.5,58.5C 19.759,47.9094 27.4257,39.576 37.5,33.5 Z"/></g>
<g><path style="opacity:1" fill="#fe9f2a" d="M 67.5,43.5 C 64.2791,44.5054 60.9457,45.3387 57.5,46C 53.2776,49.0657 48.9443,51.899 44.5,54.5C 41.7691,58.6026 38.9358,62.6026 36,66.5C 34.4088,71.0242 33.4088,75.6909 33,80.5C 32.705,89.8448 32.705,99.1781 33,108.5C 29.6951,104.706 27.5284,100.373 26.5,95.5C 25.2856,88.8226 25.2856,82.1559 26.5,75.5C 31.8503,55.316 44.517,42.1493 64.5,36C 69.1935,35.4361 73.8602,35.6027 78.5,36.5C 78.67,37.8221 78.3366,38.9887 77.5,40C 74.1498,41.4863 70.8165,42.653 67.5,43.5 Z"/></g>
<g><path style="opacity:0.122" fill="#af8461" d="M 188.5,49.5 C 190.897,52.309 192.23,55.6424 192.5,59.5C 190.6,56.4822 189.267,53.1488 188.5,49.5 Z"/></g>
<g><path style="opacity:1" fill="#f47107" d="M 122.5,118.5 C 123.242,116.02 124.242,113.687 125.5,111.5C 125.051,109.023 125.717,107.023 127.5,105.5C 132.492,90.9364 132.825,76.2697 128.5,61.5C 127.618,56.6295 124.952,53.2962 120.5,51.5C 122.622,58.3255 123.622,65.3255 123.5,72.5C 122.073,68.6407 120.739,64.6407 119.5,60.5C 118.511,56.8927 118.177,53.226 118.5,49.5C 121.349,47.6136 124.349,46.9469 127.5,47.5C 127.351,48.552 127.517,49.552 128,50.5C 131.685,51.6655 132.185,53.4988 129.5,56C 133.993,68.7679 135.493,81.9346 134,95.5C 133.3,103.072 130.8,110.072 126.5,116.5C 125.14,117.18 123.807,117.847 122.5,118.5 Z"/></g>
<g><path style="opacity:1" fill="#f37609" d="M 67.5,43.5 C 64.2663,44.0886 62.933,46.0886 63.5,49.5C 61.4884,48.9862 59.4884,48.8195 57.5,49C 56.1667,49.6667 56.1667,50.3333 57.5,51C 56.5,51.3333 55.5,51.6667 54.5,52C 51.2688,54.5673 48.7688,57.734 47,61.5C 46.6667,61.1667 46.3333,60.8333 46,60.5C 42.9317,64.3906 40.0983,68.3906 37.5,72.5C 34.9049,80.309 34.0716,88.309 35,96.5C 36.475,101.601 37.975,106.767 39.5,112C 39.2645,112.873 38.9312,113.707 38.5,114.5C 36.2573,115.474 33.924,115.808 31.5,115.5C 31.5,113.833 31.5,112.167 31.5,110.5C 29.6096,110.703 28.1096,110.037 27,108.5C 24.9849,102.195 24.1515,95.6947 24.5,89C 24.5073,84.1139 25.1739,79.6139 26.5,75.5C 25.2856,82.1559 25.2856,88.8226 26.5,95.5C 27.5284,100.373 29.6951,104.706 33,108.5C 32.705,99.1781 32.705,89.8448 33,80.5C 33.4088,75.6909 34.4088,71.0242 36,66.5C 38.9358,62.6026 41.7691,58.6026 44.5,54.5C 48.9443,51.899 53.2776,49.0657 57.5,46C 60.9457,45.3387 64.2791,44.5054 67.5,43.5 Z"/></g>
<g><path style="opacity:1" fill="#fd9e29" d="M 79.5,101.5 C 79.5,102.167 79.5,102.833 79.5,103.5C 81.1525,109.636 83.1525,115.636 85.5,121.5C 82.4745,121.769 79.8078,120.936 77.5,119C 75.2636,115.749 73.4303,112.249 72,108.5C 70.2901,94.0618 71.9568,80.0618 77,66.5C 81.057,63.1091 84.3903,59.1091 87,54.5C 89.4449,53.0229 91.6116,51.1896 93.5,49C 95.9018,48.1859 98.2351,48.3526 100.5,49.5C 100,50.5 99.5,51.5 99,52.5C 87.3723,61.9663 80.7057,74.2996 79,89.5C 78.1881,93.6888 78.3547,97.6888 79.5,101.5 Z"/></g>
<g><path style="opacity:0.237" fill="#a36d4c" d="M 192.5,59.5 C 194.183,65.0739 195.183,70.9073 195.5,77C 195.492,78.7067 195.158,80.2067 194.5,81.5C 193.833,74.1667 193.167,66.8333 192.5,59.5 Z"/></g>
<g><path style="opacity:1" fill="#fda42d" d="M 128.5,61.5 C 132.825,76.2697 132.492,90.9364 127.5,105.5C 125.717,107.023 125.051,109.023 125.5,111.5C 121.164,115.908 116.83,120.408 112.5,125C 110.866,125.494 109.199,125.66 107.5,125.5C 107.351,124.448 107.517,123.448 108,122.5C 114.571,116.752 119.404,109.752 122.5,101.5C 123.242,100.713 124.075,100.047 125,99.5C 126.717,87.8535 126.883,76.1868 125.5,64.5C 125.833,63.1667 126.167,61.8333 126.5,60.5C 127.183,60.8627 127.85,61.1961 128.5,61.5 Z"/></g>
<g><path style="opacity:1" fill="#833107" d="M 187.5,57.5 C 189.163,59.4927 190.33,61.8261 191,64.5C 191.667,71.5 191.667,78.5 191,85.5C 190.722,86.4158 190.222,87.0825 189.5,87.5C 190.415,80.1851 190.582,72.8517 190,65.5C 189.392,63.9336 188.558,62.6002 187.5,61.5C 187.5,60.1667 187.5,58.8333 187.5,57.5 Z"/></g>
<g><path style="opacity:0.965" fill="#7f5138" d="M 10.5,54.5 C 9.51273,59.2963 8.01273,63.963 6,68.5C 5.3934,71.2017 5.56007,73.8684 6.5,76.5C 6.13225,77.91 5.29892,78.91 4,79.5C 3.50074,84.4889 3.33407,89.4889 3.5,94.5C 1.50679,80.4616 3.84012,67.1283 10.5,54.5 Z"/></g>
<g><path style="opacity:1" fill="#f37408" d="M 137.5,42.5 C 142.489,42.0395 147.156,43.0395 151.5,45.5C 152.293,45.0688 153.127,44.7355 154,44.5C 155.194,46.0238 156.694,47.1904 158.5,48C 157.549,48.7175 157.383,49.5509 158,50.5C 159.413,52.4136 161.247,53.7469 163.5,54.5C 163.959,58.6209 165.459,62.2876 168,65.5C 172.746,82.331 172.079,98.9976 166,115.5C 161.507,118.993 157.341,122.827 153.5,127C 131.867,132.651 130.034,129.151 148,116.5C 151.017,111.787 154.017,107.121 157,102.5C 161.725,92.4264 162.392,82.0931 159,71.5C 154.161,66.9939 149.661,62.1605 145.5,57C 142.177,55.0013 138.844,53.0013 135.5,51C 136.089,49.1267 135.422,47.46 133.5,46C 134.731,44.5952 136.064,43.4286 137.5,42.5 Z"/></g>
<g><path style="opacity:1" fill="#fd9f2a" d="M 139.5,45.5 C 153.408,49.5739 162.575,58.5739 167,72.5C 172.208,93.8535 166.708,111.687 150.5,126C 147.521,126.891 144.521,127.724 141.5,128.5C 140.167,128.167 138.833,127.833 137.5,127.5C 140.547,124.309 144.214,122.142 148.5,121C 159.894,107.276 164.728,91.4426 163,73.5C 159.955,64.4571 154.122,57.9571 145.5,54C 143.255,51.2691 141.255,48.4358 139.5,45.5 Z"/></g>
<g><path style="opacity:1" fill="#e26618" d="M 19.5,54.5 C 19.5,56.1667 19.5,57.8333 19.5,59.5C 18.1779,59.33 17.0113,59.6634 16,60.5C 15.3932,65.2768 13.7266,69.6101 11,73.5C 10.0273,82.2985 10.6939,90.9652 13,99.5C 17.2148,106.596 20.8815,113.93 24,121.5C 26.416,125.42 29.916,127.42 34.5,127.5C 36.3047,131.302 39.3047,132.969 43.5,132.5C 43.5989,135.586 44.9322,137.919 47.5,139.5C 44.8915,139.6 42.5582,138.933 40.5,137.5C 33.3995,133.087 27.0662,127.42 21.5,120.5C 20.6267,118.114 19.1267,116.114 17,114.5C 14.6929,107.873 12.3596,101.206 10,94.5C 8.78099,83.933 9.61432,73.5997 12.5,63.5C 12.1201,61.302 12.7868,59.6354 14.5,58.5C 16.1541,57.2497 17.8207,55.9163 19.5,54.5 Z"/></g>
<g><path style="opacity:1" fill="#ba5419" d="M 12.5,63.5 C 9.61432,73.5997 8.78099,83.933 10,94.5C 12.3596,101.206 14.6929,107.873 17,114.5C 19.1267,116.114 20.6267,118.114 21.5,120.5C 19.5372,119.04 17.7038,117.373 16,115.5C 12.5096,108.172 9.84297,100.505 8,92.5C 7.33333,87.1667 7.33333,81.8333 8,76.5C 8.41579,71.694 9.91579,67.3607 12.5,63.5 Z"/></g>
<g><path style="opacity:1" fill="#f98a1a" d="M 128.5,61.5 C 127.85,61.1961 127.183,60.8627 126.5,60.5C 126.167,61.8333 125.833,63.1667 125.5,64.5C 126.883,76.1868 126.717,87.8535 125,99.5C 124.075,100.047 123.242,100.713 122.5,101.5C 119.404,109.752 114.571,116.752 108,122.5C 107.517,123.448 107.351,124.448 107.5,125.5C 109.199,125.66 110.866,125.494 112.5,125C 116.83,120.408 121.164,115.908 125.5,111.5C 124.242,113.687 123.242,116.02 122.5,118.5C 119.162,120.515 116.162,123.015 113.5,126C 110.243,127.043 106.91,127.543 103.5,127.5C 103.351,126.448 103.517,125.448 104,124.5C 111.667,117.331 117.667,108.998 122,99.5C 124.306,90.4348 124.806,81.4348 123.5,72.5C 123.622,65.3255 122.622,58.3255 120.5,51.5C 124.952,53.2962 127.618,56.6295 128.5,61.5 Z"/></g>
<g><path style="opacity:0.153" fill="#8c5d3b" d="M 4.5,102.5 C 5.49722,102.47 6.16389,102.97 6.5,104C 7.42882,107.553 8.42882,111.053 9.5,114.5C 7.07229,110.901 5.40563,106.901 4.5,102.5 Z"/></g>
<g><path style="opacity:0.89" fill="#865438" d="M 189.5,105.5 C 188.151,111.585 185.484,116.918 181.5,121.5C 182.494,119.666 182.494,117.999 181.5,116.5C 181.216,114.585 181.549,112.919 182.5,111.5C 182.238,112.978 182.571,114.311 183.5,115.5C 185.526,112.103 187.526,108.77 189.5,105.5 Z"/></g>
<g><path style="opacity:1" fill="#f37005" d="M 79.5,101.5 C 78.3547,97.6888 78.1881,93.6888 79,89.5C 80.7057,74.2996 87.3723,61.9663 99,52.5C 99.5,51.5 100,50.5 100.5,49.5C 98.2351,48.3526 95.9018,48.1859 93.5,49C 91.6116,51.1896 89.4449,53.0229 87,54.5C 84.3903,59.1091 81.057,63.1091 77,66.5C 71.9568,80.0618 70.2901,94.0618 72,108.5C 73.4303,112.249 75.2636,115.749 77.5,119C 79.8078,120.936 82.4745,121.769 85.5,121.5C 83.1525,115.636 81.1525,109.636 79.5,103.5C 82.4521,109.685 85.7854,115.852 89.5,122C 88.1196,123.925 86.6196,125.759 85,127.5C 77.6667,124.833 72.6667,119.833 70,112.5C 69.5085,100.151 69.8419,87.8178 71,75.5C 72.0263,70.4465 74.3596,66.1132 78,62.5C 78.4379,59.624 79.4379,56.9573 81,54.5C 81.3333,54.8333 81.6667,55.1667 82,55.5C 83.3582,52.2122 85.8582,50.7122 89.5,51C 92.9187,46.8574 97.252,45.524 102.5,47C 103.846,49.794 103.346,52.294 101,54.5C 97.4034,56.1002 94.4034,58.4335 92,61.5C 91.6667,63.5 91.3333,65.5 91,67.5C 86.8849,71.9895 84.8849,77.3229 85,83.5C 83.8415,85.4909 82.3415,87.1576 80.5,88.5C 80.7093,89.086 81.0426,89.586 81.5,90C 80.136,93.6827 79.4693,97.516 79.5,101.5 Z"/></g>
<g><path style="opacity:0.075" fill="#bb8c64" d="M 181.5,121.5 C 180.567,124.37 178.9,126.704 176.5,128.5C 177.433,125.63 179.1,123.296 181.5,121.5 Z"/></g>
<g><path style="opacity:0.043" fill="#c49272" d="M 175.5,129.5 C 173.5,133.5 170.5,136.5 166.5,138.5C 169.167,135.167 172.167,132.167 175.5,129.5 Z"/></g>
<g><path style="opacity:1" fill="#691f06" d="M 186.5,100.5 C 185.578,104.262 184.245,107.929 182.5,111.5C 181.549,112.919 181.216,114.585 181.5,116.5C 175.843,123.995 169.176,130.828 161.5,137C 158.005,137.119 155.005,138.285 152.5,140.5C 155.906,136.952 159.906,134.118 164.5,132C 167.297,128.201 170.464,124.701 174,121.5C 178.193,114.437 182.359,107.437 186.5,100.5 Z"/></g>
<g><path style="opacity:1" fill="#e3691c" d="M 180.5,51.5 C 181.794,52.2899 182.961,53.2899 184,54.5C 185.032,56.9944 186.198,59.3277 187.5,61.5C 188.558,62.6002 189.392,63.9336 190,65.5C 190.582,72.8517 190.415,80.1851 189.5,87.5C 189.118,91.9777 188.118,96.3111 186.5,100.5C 182.359,107.437 178.193,114.437 174,121.5C 170.464,124.701 167.297,128.201 164.5,132C 159.906,134.118 155.906,136.952 152.5,140.5C 146.95,142.966 141.283,144.966 135.5,146.5C 126.851,147.203 118.185,147.536 109.5,147.5C 104.859,146.873 100.193,146.54 95.5,146.5C 83.6633,145.646 71.6633,144.979 59.5,144.5C 55.4287,142.815 51.4287,141.148 47.5,139.5C 52.1306,139.723 56.4639,140.89 60.5,143C 85.2152,143.431 109.882,144.097 134.5,145C 142.283,141.38 149.949,137.547 157.5,133.5C 158.752,129.993 160.752,126.993 163.5,124.5C 166.391,123.994 169.058,122.994 171.5,121.5C 174.642,116.882 176.976,111.882 178.5,106.5C 182.272,103.964 183.272,100.63 181.5,96.5C 189.749,81.2081 189.415,66.2081 180.5,51.5 Z"/></g>
<g><path style="opacity:1" fill="#4c1f11" d="M 181.5,116.5 C 182.494,117.999 182.494,119.666 181.5,121.5C 179.1,123.296 177.433,125.63 176.5,128.5C 176.5,129.167 176.167,129.5 175.5,129.5C 172.167,132.167 169.167,135.167 166.5,138.5C 157.185,146.987 146.185,151.987 133.5,153.5C 122.815,153.61 112.148,153.277 101.5,152.5C 88.38,152.964 75.38,152.297 62.5,150.5C 60.7392,149.687 59.0725,148.687 57.5,147.5C 70.5043,147.333 83.5043,147.5 96.5,148C 111.626,151.434 126.626,151.267 141.5,147.5C 143.641,147.613 145.475,148.28 147,149.5C 149.2,148.452 149.7,146.952 148.5,145C 150.644,144.208 151.977,142.708 152.5,140.5C 155.005,138.285 158.005,137.119 161.5,137C 169.176,130.828 175.843,123.995 181.5,116.5 Z"/></g>
<g><path style="opacity:1" fill="#511401" d="M 40.5,137.5 C 42.5582,138.933 44.8915,139.6 47.5,139.5C 51.4287,141.148 55.4287,142.815 59.5,144.5C 60.9516,145.302 62.6183,145.802 64.5,146C 74.828,146.5 85.1613,146.666 95.5,146.5C 100.193,146.54 104.859,146.873 109.5,147.5C 112.649,148.165 115.982,148.498 119.5,148.5C 125.077,148.632 130.41,147.965 135.5,146.5C 141.283,144.966 146.95,142.966 152.5,140.5C 151.977,142.708 150.644,144.208 148.5,145C 149.7,146.952 149.2,148.452 147,149.5C 145.475,148.28 143.641,147.613 141.5,147.5C 126.626,151.267 111.626,151.434 96.5,148C 83.5043,147.5 70.5043,147.333 57.5,147.5C 52.78,143.907 47.4467,141.24 41.5,139.5C 40.7025,139.043 40.3691,138.376 40.5,137.5 Z"/></g>
<g><path style="opacity:1" fill="#a84f1a" d="M 135.5,146.5 C 130.41,147.965 125.077,148.632 119.5,148.5C 115.982,148.498 112.649,148.165 109.5,147.5C 118.185,147.536 126.851,147.203 135.5,146.5 Z"/></g>
<g><path style="opacity:1" fill="#963d13" d="M 59.5,144.5 C 71.6633,144.979 83.6633,145.646 95.5,146.5C 85.1613,146.666 74.828,146.5 64.5,146C 62.6183,145.802 60.9516,145.302 59.5,144.5 Z"/></g>
<g><path style="opacity:0.247" fill="#805131" d="M 101.5,152.5 C 112.148,153.277 122.815,153.61 133.5,153.5C 122.779,155.978 112.112,155.645 101.5,152.5 Z"/></g>
</svg>
