<?xml version="1.0" encoding="UTF-8"?>
<!DOCTYPE svg PUBLIC "-//W3C//DTD SVG 1.1//EN" "http://www.w3.org/Graphics/SVG/1.1/DTD/svg11.dtd">
<svg xmlns="http://www.w3.org/2000/svg" version="1.1" width="160px" height="270px" style="shape-rendering:geometricPrecision; text-rendering:geometricPrecision; image-rendering:optimizeQuality; fill-rule:evenodd; clip-rule:evenodd" xmlns:xlink="http://www.w3.org/1999/xlink">
<g><path style="opacity:0.357" fill="#4f2a0c" d="M 90.5,3.5 C 94.2142,5.89263 96.8809,9.22596 98.5,13.5C 96.1456,10.4789 93.4789,7.81225 90.5,5.5C 90.5,4.83333 90.5,4.16667 90.5,3.5 Z"/></g>
<g><path style="opacity:1" fill="#404822" d="M 90.5,5.5 C 93.353,9.93969 95.6864,14.6064 97.5,19.5C 94.302,15.7761 91.6354,11.6094 89.5,7C 85.1739,5.75676 81.8406,6.92343 79.5,10.5C 81.2333,4.80567 84.8999,3.13901 90.5,5.5 Z"/></g>
<g><path style="opacity:0.29" fill="#5b2c17" d="M 90.5,3.5 C 87.8872,2.56512 85.2205,2.39845 82.5,3C 78.3758,8.07682 74.8758,13.5768 72,19.5C 70.383,21.7632 68.5497,23.7632 66.5,25.5C 70.9415,16.7925 76.2749,8.62581 82.5,1C 85.8173,0.0228319 88.484,0.856165 90.5,3.5 Z"/></g>
<g><path style="opacity:1" fill="#32280a" d="M 79.5,10.5 C 78.1894,15.1135 76.3561,19.4469 74,23.5C 71.9671,26.0302 69.8004,28.3635 67.5,30.5C 67.3433,29.1266 67.51,27.7932 68,26.5C 72.1133,21.2432 75.9466,15.9098 79.5,10.5 Z"/></g>
<g><path style="opacity:1" fill="#36712c" d="M 133.5,64.5 C 134.391,65.1098 135.391,65.4431 136.5,65.5C 138.127,67.6298 139.96,69.6298 142,71.5C 142.667,73.1667 142.667,74.8333 142,76.5C 139.592,79.8407 137.092,83.1741 134.5,86.5C 130.586,88.9549 126.586,91.1215 122.5,93C 121.624,94.586 120.624,96.086 119.5,97.5C 122.023,100.228 125.023,102.228 128.5,103.5C 128.5,104.167 128.5,104.833 128.5,105.5C 128.699,107.96 129.365,110.293 130.5,112.5C 132.563,115.566 135.23,117.899 138.5,119.5C 140.332,120.248 141.999,121.248 143.5,122.5C 143.351,123.552 143.517,124.552 144,125.5C 146,126.167 147.333,127.5 148,129.5C 148.817,132.964 148.483,136.298 147,139.5C 144.26,142.509 141.427,145.509 138.5,148.5C 133.578,151.461 128.245,152.961 122.5,153C 121.241,153.923 119.908,154.757 118.5,155.5C 119.012,158.351 120.679,159.684 123.5,159.5C 124.167,159.5 124.833,159.5 125.5,159.5C 130.493,159.423 133.993,161.757 136,166.5C 137.745,167.956 139.578,169.289 141.5,170.5C 141.581,174.522 143.081,178.189 146,181.5C 149.162,189.583 147.329,196.083 140.5,201C 136.523,204.77 131.856,206.104 126.5,205C 126.833,204.667 127.167,204.333 127.5,204C 119.009,203.547 110.676,202.88 102.5,202C 100.737,203.602 98.904,204.102 97,203.5C 92.8095,208.848 87.3095,211.848 80.5,212.5C 73.139,211.153 65.8057,209.82 58.5,208.5C 58.3893,207.883 58.056,207.383 57.5,207C 47.1628,206.648 36.8294,206.815 26.5,207.5C 18.2503,205.091 18.5837,203.591 27.5,203C 30.0414,201.152 31.0414,198.652 30.5,195.5C 29.1667,195.5 27.8333,195.5 26.5,195.5C 24.8333,195.5 23.1667,195.5 21.5,195.5C 20.9919,192.824 20.8253,190.157 21,187.5C 24.4224,182.322 28.089,177.322 32,172.5C 32.4974,169.854 32.6641,167.187 32.5,164.5C 29.4359,164.928 26.4359,165.594 23.5,166.5C 23.5,167.833 23.5,169.167 23.5,170.5C 22.5987,171.29 21.9321,172.29 21.5,173.5C 20.2113,174.501 18.8779,174.334 17.5,173C 20.9976,169.297 23.6643,165.13 25.5,160.5C 26.8118,159.855 27.8118,158.855 28.5,157.5C 34.5931,157.091 36.5931,154.091 34.5,148.5C 26.4232,148.286 18.9232,146.286 12,142.5C 8.81887,137.031 9.31887,131.865 13.5,127C 15.0249,125.991 16.6916,125.491 18.5,125.5C 18.5,127.167 18.5,128.833 18.5,130.5C 18.5,132.833 18.5,135.167 18.5,137.5C 18.3573,139.262 18.6906,140.929 19.5,142.5C 22.5,143.833 25.5,143.833 28.5,142.5C 26.068,139.115 25.4014,135.448 26.5,131.5C 29.4891,128.345 32.6558,125.345 36,122.5C 36.3333,121.167 36.6667,119.833 37,118.5C 39.9163,116.249 42.083,113.416 43.5,110C 43.3552,109.228 43.0219,108.561 42.5,108C 40.8659,107.506 39.1992,107.34 37.5,107.5C 37.8333,104.833 38.1667,102.167 38.5,99.5C 42.8346,99.0833 47.1679,98.5833 51.5,98C 54.1398,95.3818 53.8064,93.0485 50.5,91C 46.0754,89.0336 41.4088,87.7003 36.5,87C 31.8493,84.1834 27.3493,81.0167 23,77.5C 22.3333,76.1667 22.3333,74.8333 23,73.5C 26.1099,70.0464 29.4432,67.0464 33,64.5C 33.4401,67.6605 32.6067,70.4938 30.5,73C 31.448,73.4828 32.448,73.6495 33.5,73.5C 33.7135,75.1439 33.3802,76.6439 32.5,78C 42.2587,82.2491 46.092,79.0824 44,68.5C 48.414,65.376 52.914,62.376 57.5,59.5C 58.5088,57.4823 59.5088,55.4823 60.5,53.5C 61.552,53.6495 62.552,53.4828 63.5,53C 67.1674,48.5167 70.1674,43.6834 72.5,38.5C 72.3507,36.6803 71.6841,35.1803 70.5,34C 71.9232,30.9082 74.2565,28.9082 77.5,28C 76.4464,26.6124 76.2797,25.1124 77,23.5C 79.2455,18.9617 81.2455,14.295 83,9.5C 85.2672,8.06516 87.2672,8.3985 89,10.5C 91.0229,12.7693 91.8563,15.4359 91.5,18.5C 92.5,18.5 93.5,18.5 94.5,18.5C 94.268,23.4019 96.4347,26.7353 101,28.5C 102.287,34.4699 105.287,39.4699 110,43.5C 111,45.8333 112,48.1667 113,50.5C 117.591,53.679 121.758,57.3457 125.5,61.5C 128.035,62.9 130.702,63.9 133.5,64.5 Z"/></g>
<g><path style="opacity:0.176" fill="#5c2913" d="M 98.5,13.5 C 101.669,17.833 104.336,22.4997 106.5,27.5C 102.826,23.4933 100.159,18.8266 98.5,13.5 Z"/></g>
<g><path style="opacity:1" fill="#44642d" d="M 97.5,19.5 C 97.3505,20.552 97.5172,21.552 98,22.5C 103.671,31.1795 109.338,39.8462 115,48.5C 120.423,54.761 126.59,60.0943 133.5,64.5C 130.702,63.9 128.035,62.9 125.5,61.5C 121.758,57.3457 117.591,53.679 113,50.5C 112,48.1667 111,45.8333 110,43.5C 105.287,39.4699 102.287,34.4699 101,28.5C 96.4347,26.7353 94.268,23.4019 94.5,18.5C 93.5,18.5 92.5,18.5 91.5,18.5C 91.8563,15.4359 91.0229,12.7693 89,10.5C 87.2672,8.3985 85.2672,8.06516 83,9.5C 81.2455,14.295 79.2455,18.9617 77,23.5C 76.2797,25.1124 76.4464,26.6124 77.5,28C 74.2565,28.9082 71.9232,30.9082 70.5,34C 71.6841,35.1803 72.3507,36.6803 72.5,38.5C 70.1674,43.6834 67.1674,48.5167 63.5,53C 62.552,53.4828 61.552,53.6495 60.5,53.5C 59.5088,55.4823 58.5088,57.4823 57.5,59.5C 52.914,62.376 48.414,65.376 44,68.5C 46.092,79.0824 42.2587,82.2491 32.5,78C 33.3802,76.6439 33.7135,75.1439 33.5,73.5C 32.448,73.6495 31.448,73.4828 30.5,73C 32.6067,70.4938 33.4401,67.6605 33,64.5C 29.4432,67.0464 26.1099,70.0464 23,73.5C 22.3333,74.8333 22.3333,76.1667 23,77.5C 27.3493,81.0167 31.8493,84.1834 36.5,87C 41.4088,87.7003 46.0754,89.0336 50.5,91C 53.8064,93.0485 54.1398,95.3818 51.5,98C 47.1679,98.5833 42.8346,99.0833 38.5,99.5C 38.1667,102.167 37.8333,104.833 37.5,107.5C 39.1992,107.34 40.8659,107.506 42.5,108C 43.0219,108.561 43.3552,109.228 43.5,110C 42.083,113.416 39.9163,116.249 37,118.5C 36.6667,119.833 36.3333,121.167 36,122.5C 32.6558,125.345 29.4891,128.345 26.5,131.5C 25.4014,135.448 26.068,139.115 28.5,142.5C 25.5,143.833 22.5,143.833 19.5,142.5C 18.6906,140.929 18.3573,139.262 18.5,137.5C 25.2966,143.409 26.9633,142.076 23.5,133.5C 23.8988,131.803 24.3988,130.137 25,128.5C 29,124.5 33,120.5 37,116.5C 38.7509,114.788 39.4175,112.788 39,110.5C 36.8083,111.399 34.6416,112.399 32.5,113.5C 27.7531,119.233 23.0864,124.9 18.5,130.5C 18.5,128.833 18.5,127.167 18.5,125.5C 16.6916,125.491 15.0249,125.991 13.5,127C 9.31887,131.865 8.81887,137.031 12,142.5C 18.9232,146.286 26.4232,148.286 34.5,148.5C 36.5931,154.091 34.5931,157.091 28.5,157.5C 27.8118,158.855 26.8118,159.855 25.5,160.5C 26.038,158.883 26.3713,157.216 26.5,155.5C 30.5065,155.512 32.8398,153.512 33.5,149.5C 28.8215,149.666 24.1548,149.499 19.5,149C 17.8421,147.337 15.8421,146.504 13.5,146.5C 12.5084,146.672 11.8417,146.338 11.5,145.5C 9.70391,142.704 8.37057,139.704 7.5,136.5C 8.1825,132.801 9.6825,129.468 12,126.5C 23.3634,119.516 31.5301,110.016 36.5,98C 37.6721,97.5814 38.6721,96.9147 39.5,96C 53.6644,95.0227 53.331,93.3561 38.5,91C 33.2939,87.8973 27.9605,85.064 22.5,82.5C 20.9127,78.9768 20.4127,75.3101 21,71.5C 23.772,68.2166 26.9386,65.5499 30.5,63.5C 31.1667,63.5 31.5,63.1667 31.5,62.5C 36.9141,58.8269 42.2474,55.1602 47.5,51.5C 47.8333,50.8333 48.1667,50.1667 48.5,49.5C 50.3084,49.5086 51.9751,49.0086 53.5,48C 56.3648,44.3081 59.3648,40.8081 62.5,37.5C 65.3276,36.0043 66.9943,33.671 67.5,30.5C 69.8004,28.3635 71.9671,26.0302 74,23.5C 76.3561,19.4469 78.1894,15.1135 79.5,10.5C 81.8406,6.92343 85.1739,5.75676 89.5,7C 91.6354,11.6094 94.302,15.7761 97.5,19.5 Z"/></g>
<g><path style="opacity:0.929" fill="#311202" d="M 90.5,3.5 C 90.5,4.16667 90.5,4.83333 90.5,5.5C 84.8999,3.13901 81.2333,4.80567 79.5,10.5C 75.9466,15.9098 72.1133,21.2432 68,26.5C 67.51,27.7932 67.3433,29.1266 67.5,30.5C 66.9943,33.671 65.3276,36.0043 62.5,37.5C 59.2622,38.7375 56.2622,40.4042 53.5,42.5C 58.2167,37.1179 62.55,31.4513 66.5,25.5C 68.5497,23.7632 70.383,21.7632 72,19.5C 74.8758,13.5768 78.3758,8.07682 82.5,3C 85.2205,2.39845 87.8872,2.56512 90.5,3.5 Z"/></g>
<g><path style="opacity:0.188" fill="#622e19" d="M 66.5,25.5 C 62.55,31.4513 58.2167,37.1179 53.5,42.5C 48.4854,46.6705 43.1521,50.3371 37.5,53.5C 47.8008,44.8666 57.4674,35.5333 66.5,25.5 Z"/></g>
<g><path style="opacity:1" fill="#2f2808" d="M 62.5,37.5 C 59.3648,40.8081 56.3648,44.3081 53.5,48C 51.9751,49.0086 50.3084,49.5086 48.5,49.5C 50.1345,47.1901 51.8012,44.8567 53.5,42.5C 56.2622,40.4042 59.2622,38.7375 62.5,37.5 Z"/></g>
<g><path style="opacity:0.976" fill="#2d1d06" d="M 90.5,5.5 C 93.4789,7.81225 96.1456,10.4789 98.5,13.5C 100.159,18.8266 102.826,23.4933 106.5,27.5C 111.936,40.9363 120.769,51.9363 133,60.5C 133.464,59.9056 133.631,59.2389 133.5,58.5C 135.389,59.604 137.055,60.9373 138.5,62.5C 141.874,64.8739 144.541,67.8739 146.5,71.5C 145.87,73.7496 144.87,75.7496 143.5,77.5C 145.377,70.7089 143.044,66.7089 136.5,65.5C 135.391,65.4431 134.391,65.1098 133.5,64.5C 126.59,60.0943 120.423,54.761 115,48.5C 109.338,39.8462 103.671,31.1795 98,22.5C 97.5172,21.552 97.3505,20.552 97.5,19.5C 95.6864,14.6064 93.353,9.93969 90.5,5.5 Z"/></g>
<g><path style="opacity:0.349" fill="#51230d" d="M 106.5,27.5 C 112.388,37.4076 119.388,46.5743 127.5,55C 129.388,56.3937 131.388,57.5604 133.5,58.5C 133.631,59.2389 133.464,59.9056 133,60.5C 120.769,51.9363 111.936,40.9363 106.5,27.5 Z"/></g>
<g><path style="opacity:1" fill="#322207" d="M 47.5,51.5 C 42.2474,55.1602 36.9141,58.8269 31.5,62.5C 35.1734,56.5046 40.5067,52.838 47.5,51.5 Z"/></g>
<g><path style="opacity:1" fill="#2d2505" d="M 60.5,53.5 C 54.196,57.5162 47.8627,61.8495 41.5,66.5C 40.3972,69.6394 40.3972,72.806 41.5,76C 41.0273,78.8247 39.694,79.158 37.5,77C 35.5748,73.2891 35.2415,69.4557 36.5,65.5C 40.3703,62.4598 44.3703,59.6265 48.5,57C 55.209,49.7795 62.0423,42.6129 69,35.5C 70.4803,37.3369 70.4803,39.3369 69,41.5C 66.3402,45.6538 63.5068,49.6538 60.5,53.5 Z"/></g>
<g><path style="opacity:0.114" fill="#582c12" d="M 138.5,62.5 C 148.653,66.833 151.32,73.833 146.5,83.5C 147.539,79.3421 147.539,75.3421 146.5,71.5C 144.541,67.8739 141.874,64.8739 138.5,62.5 Z"/></g>
<g><path style="opacity:0.227" fill="#623017" d="M 37.5,53.5 C 31.5848,57.6112 25.9181,61.9445 20.5,66.5C 18.5891,66.5743 17.4224,67.5743 17,69.5C 16.8171,72.3647 16.3171,75.0314 15.5,77.5C 14.1626,73.646 14.6626,69.9793 17,66.5C 23.4675,61.5212 30.3009,57.1878 37.5,53.5 Z"/></g>
<g><path style="opacity:1" fill="#342c0e" d="M 30.5,63.5 C 26.9386,65.5499 23.772,68.2166 21,71.5C 20.4127,75.3101 20.9127,78.9768 22.5,82.5C 21.0337,81.653 20.2004,80.3197 20,78.5C 19.3933,74.4631 19.56,70.4631 20.5,66.5C 23.7592,65.3356 27.0925,64.3356 30.5,63.5 Z"/></g>
<g><path style="opacity:1" fill="#351203" d="M 53.5,42.5 C 51.8012,44.8567 50.1345,47.1901 48.5,49.5C 48.1667,50.1667 47.8333,50.8333 47.5,51.5C 40.5067,52.838 35.1734,56.5046 31.5,62.5C 31.5,63.1667 31.1667,63.5 30.5,63.5C 27.0925,64.3356 23.7592,65.3356 20.5,66.5C 25.9181,61.9445 31.5848,57.6112 37.5,53.5C 43.1521,50.3371 48.4854,46.6705 53.5,42.5 Z"/></g>
<g><path style="opacity:1" fill="#475f2b" d="M 136.5,65.5 C 143.044,66.7089 145.377,70.7089 143.5,77.5C 143.5,77.8333 143.5,78.1667 143.5,78.5C 140.302,82.3549 136.969,86.1883 133.5,90C 129.833,91.8333 126.167,93.6667 122.5,95.5C 122.167,96.1667 121.833,96.8333 121.5,97.5C 122.912,98.8064 124.579,99.6397 126.5,100C 127.823,100.816 128.489,101.983 128.5,103.5C 125.023,102.228 122.023,100.228 119.5,97.5C 120.624,96.086 121.624,94.586 122.5,93C 126.586,91.1215 130.586,88.9549 134.5,86.5C 137.092,83.1741 139.592,79.8407 142,76.5C 142.667,74.8333 142.667,73.1667 142,71.5C 139.96,69.6298 138.127,67.6298 136.5,65.5 Z"/></g>
<g><path style="opacity:1" fill="#332309" d="M 143.5,78.5 C 142.256,81.7273 141.09,85.0606 140,88.5C 131.239,93.467 128.906,100.467 133,109.5C 133.708,110.381 134.542,111.047 135.5,111.5C 136.203,113.716 137.536,115.549 139.5,117C 145.247,120.395 149.747,124.895 153,130.5C 153.839,135.29 153.005,139.79 150.5,144C 150.57,144.765 150.903,145.265 151.5,145.5C 149.547,149.12 146.881,152.12 143.5,154.5C 144.028,153.153 144.195,151.819 144,150.5C 141.965,153.277 139.465,154.444 136.5,154C 135.426,154.739 134.759,155.739 134.5,157C 139.324,160.657 143.657,164.824 147.5,169.5C 152.364,177.952 153.864,186.952 152,196.5C 150.221,199.785 147.721,202.118 144.5,203.5C 150.851,195.207 152.018,186.207 148,176.5C 144.35,171.351 140.517,166.351 136.5,161.5C 133.06,159.777 129.394,159.11 125.5,159.5C 124.833,159.5 124.167,159.5 123.5,159.5C 122.77,158.288 121.77,157.288 120.5,156.5C 134.135,155.72 143.969,149.387 150,137.5C 152.169,130.533 150.002,125.533 143.5,122.5C 141.999,121.248 140.332,120.248 138.5,119.5C 135.547,114.55 132.214,109.883 128.5,105.5C 128.5,104.833 128.5,104.167 128.5,103.5C 128.489,101.983 127.823,100.816 126.5,100C 124.579,99.6397 122.912,98.8064 121.5,97.5C 121.833,96.8333 122.167,96.1667 122.5,95.5C 126.167,93.6667 129.833,91.8333 133.5,90C 136.969,86.1883 140.302,82.3549 143.5,78.5 Z"/></g>
<g><path style="opacity:0.808" fill="#381106" d="M 146.5,71.5 C 147.539,75.3421 147.539,79.3421 146.5,83.5C 144.245,88.7565 140.578,92.7565 135.5,95.5C 133.069,96.6068 132.069,98.6068 132.5,101.5C 132.927,105.016 133.927,108.349 135.5,111.5C 134.542,111.047 133.708,110.381 133,109.5C 128.906,100.467 131.239,93.467 140,88.5C 141.09,85.0606 142.256,81.7273 143.5,78.5C 143.5,78.1667 143.5,77.8333 143.5,77.5C 144.87,75.7496 145.87,73.7496 146.5,71.5 Z"/></g>
<g><path style="opacity:0.192" fill="#4f230b" d="M 135.5,95.5 C 132.525,101.325 133.359,106.658 138,111.5C 141.003,114.067 143.836,116.734 146.5,119.5C 142.332,117.577 138.665,114.91 135.5,111.5C 133.927,108.349 132.927,105.016 132.5,101.5C 132.069,98.6068 133.069,96.6068 135.5,95.5 Z"/></g>
<g><path style="opacity:1" fill="#47632e" d="M 128.5,105.5 C 132.214,109.883 135.547,114.55 138.5,119.5C 135.23,117.899 132.563,115.566 130.5,112.5C 129.365,110.293 128.699,107.96 128.5,105.5 Z"/></g>
<g><path style="opacity:1" fill="#331e09" d="M 22.5,82.5 C 27.9605,85.064 33.2939,87.8973 38.5,91C 53.331,93.3561 53.6644,95.0227 39.5,96C 38.6721,96.9147 37.6721,97.5814 36.5,98C 31.5301,110.016 23.3634,119.516 12,126.5C 9.6825,129.468 8.1825,132.801 7.5,136.5C 8.37057,139.704 9.70391,142.704 11.5,145.5C 9.2152,144.043 7.38187,142.043 6,139.5C 5.48234,135.449 5.81567,131.449 7,127.5C 10.6667,124.833 14.3333,122.167 18,119.5C 25.2735,111.24 32.1068,102.74 38.5,94C 32.1455,91.4628 26.8122,87.6295 22.5,82.5 Z"/></g>
<g><path style="opacity:0.898" fill="#320f02" d="M 135.5,111.5 C 138.665,114.91 142.332,117.577 146.5,119.5C 154.479,123.807 157.312,130.474 155,139.5C 154.059,141.727 152.892,143.727 151.5,145.5C 150.903,145.265 150.57,144.765 150.5,144C 153.005,139.79 153.839,135.29 153,130.5C 149.747,124.895 145.247,120.395 139.5,117C 137.536,115.549 136.203,113.716 135.5,111.5 Z"/></g>
<g><path style="opacity:1" fill="#2f2505" d="M 18.5,137.5 C 18.5,135.167 18.5,132.833 18.5,130.5C 23.0864,124.9 27.7531,119.233 32.5,113.5C 34.6416,112.399 36.8083,111.399 39,110.5C 39.4175,112.788 38.7509,114.788 37,116.5C 33,120.5 29,124.5 25,128.5C 24.3988,130.137 23.8988,131.803 23.5,133.5C 26.9633,142.076 25.2966,143.409 18.5,137.5 Z"/></g>
<g><path style="opacity:1" fill="#476530" d="M 143.5,122.5 C 150.002,125.533 152.169,130.533 150,137.5C 143.969,149.387 134.135,155.72 120.5,156.5C 121.77,157.288 122.77,158.288 123.5,159.5C 120.679,159.684 119.012,158.351 118.5,155.5C 119.908,154.757 121.241,153.923 122.5,153C 128.245,152.961 133.578,151.461 138.5,148.5C 141.427,145.509 144.26,142.509 147,139.5C 148.483,136.298 148.817,132.964 148,129.5C 147.333,127.5 146,126.167 144,125.5C 143.517,124.552 143.351,123.552 143.5,122.5 Z"/></g>
<g><path style="opacity:0.827" fill="#441b0c" d="M 20.5,66.5 C 19.56,70.4631 19.3933,74.4631 20,78.5C 20.2004,80.3197 21.0337,81.653 22.5,82.5C 26.8122,87.6295 32.1455,91.4628 38.5,94C 32.1068,102.74 25.2735,111.24 18,119.5C 14.3333,122.167 10.6667,124.833 7,127.5C 5.81567,131.449 5.48234,135.449 6,139.5C 7.38187,142.043 9.2152,144.043 11.5,145.5C 11.8417,146.338 12.5084,146.672 13.5,146.5C 14.343,148.173 15.6763,149.34 17.5,150C 20.5,150.833 23.5,151.667 26.5,152.5C 23.4508,155.932 21.4508,159.932 20.5,164.5C 19.8902,165.391 19.5569,166.391 19.5,167.5C 18.391,167.557 17.391,167.89 16.5,168.5C 17.3657,166.856 17.8657,165.189 18,163.5C 12.9271,169.064 8.09379,174.731 3.5,180.5C 5.76465,174.999 9.26465,170.333 14,166.5C 16.549,163.235 18.7157,159.735 20.5,156C 14.7293,151.902 9.22933,147.402 4,142.5C 1.66962,136.811 2.33629,131.477 6,126.5C 13.6363,119.865 20.9696,112.865 28,105.5C 29.9596,102.415 31.7929,99.2485 33.5,96C 28.6137,91.9616 23.7804,87.7949 19,83.5C 17.6063,81.6125 16.4396,79.6125 15.5,77.5C 16.3171,75.0314 16.8171,72.3647 17,69.5C 17.4224,67.5743 18.5891,66.5743 20.5,66.5 Z"/></g>
<g><path style="opacity:0.898" fill="#3b1403" d="M 143.5,154.5 C 142.064,155.429 140.731,156.595 139.5,158C 142.802,161.456 145.469,165.289 147.5,169.5C 143.657,164.824 139.324,160.657 134.5,157C 134.759,155.739 135.426,154.739 136.5,154C 139.465,154.444 141.965,153.277 144,150.5C 144.195,151.819 144.028,153.153 143.5,154.5 Z"/></g>
<g><path style="opacity:1" fill="#302409" d="M 13.5,146.5 C 15.8421,146.504 17.8421,147.337 19.5,149C 24.1548,149.499 28.8215,149.666 33.5,149.5C 32.8398,153.512 30.5065,155.512 26.5,155.5C 26.3713,157.216 26.038,158.883 25.5,160.5C 23.8333,161.833 22.1667,163.167 20.5,164.5C 21.4508,159.932 23.4508,155.932 26.5,152.5C 23.5,151.667 20.5,150.833 17.5,150C 15.6763,149.34 14.343,148.173 13.5,146.5 Z"/></g>
<g><path style="opacity:1" fill="#2d2707" d="M 21.5,201.5 C 16.4498,199.915 13.7832,196.415 13.5,191C 13.6667,189.833 13.8333,188.667 14,187.5C 16.7649,182.97 19.2649,178.303 21.5,173.5C 21.9321,172.29 22.5987,171.29 23.5,170.5C 25.3587,168.427 27.692,167.094 30.5,166.5C 31.372,168.466 31.2053,170.466 30,172.5C 24.7564,177.332 20.7564,182.999 18,189.5C 16.6771,195.682 19.1771,198.515 25.5,198C 26.8333,199 26.8333,200 25.5,201C 24.2068,201.49 22.8734,201.657 21.5,201.5 Z"/></g>
<g><path style="opacity:1" fill="#45622d" d="M 26.5,195.5 C 27.3657,197.144 27.8657,198.811 28,200.5C 25.9836,202.608 23.8169,202.942 21.5,201.5C 22.8734,201.657 24.2068,201.49 25.5,201C 26.8333,200 26.8333,199 25.5,198C 19.1771,198.515 16.6771,195.682 18,189.5C 20.7564,182.999 24.7564,177.332 30,172.5C 31.2053,170.466 31.372,168.466 30.5,166.5C 27.692,167.094 25.3587,168.427 23.5,170.5C 23.5,169.167 23.5,167.833 23.5,166.5C 26.4359,165.594 29.4359,164.928 32.5,164.5C 32.6641,167.187 32.4974,169.854 32,172.5C 28.089,177.322 24.4224,182.322 21,187.5C 20.8253,190.157 20.9919,192.824 21.5,195.5C 23.1667,195.5 24.8333,195.5 26.5,195.5 Z"/></g>
<g><path style="opacity:1" fill="#3f441b" d="M 6.5,185.5 C 6.14989,190.031 6.81656,194.364 8.5,198.5C 7.21009,197.942 6.37675,196.942 6,195.5C 5.1925,191.973 5.35916,188.64 6.5,185.5 Z"/></g>
<g><path style="opacity:0.669" fill="#371105" d="M 16.5,168.5 C 11.5671,172.433 8.23378,177.433 6.5,183.5C 4.87623,183.36 3.70956,184.027 3,185.5C 2.88897,191.671 4.7223,197.337 8.5,202.5C 9.57688,203.705 10.9102,204.372 12.5,204.5C 12.9371,206.074 13.9371,207.241 15.5,208C 17.6228,208.815 19.6228,209.815 21.5,211C 30.7011,211.353 39.8678,210.853 49,209.5C 52.5691,209.286 55.9024,209.953 59,211.5C 60.313,210.713 61.4797,211.046 62.5,212.5C 60.8212,212.285 59.8212,212.952 59.5,214.5C 58.8333,214.5 58.5,214.167 58.5,213.5C 53.9282,211.442 49.2615,211.109 44.5,212.5C 36.5789,213.633 28.5789,213.8 20.5,213C 6.90975,208.312 0.409746,198.812 1,184.5C 1.6082,182.934 2.44153,181.6 3.5,180.5C 8.09379,174.731 12.9271,169.064 18,163.5C 17.8657,165.189 17.3657,166.856 16.5,168.5 Z"/></g>
<g><path style="opacity:1" fill="#302409" d="M 19.5,167.5 C 15.1667,173.5 10.8333,179.5 6.5,185.5C 5.35916,188.64 5.1925,191.973 6,195.5C 6.37675,196.942 7.21009,197.942 8.5,198.5C 9.44112,200.772 10.7745,202.772 12.5,204.5C 10.9102,204.372 9.57688,203.705 8.5,202.5C 4.7223,197.337 2.88897,191.671 3,185.5C 3.70956,184.027 4.87623,183.36 6.5,183.5C 8.23378,177.433 11.5671,172.433 16.5,168.5C 17.391,167.89 18.391,167.557 19.5,167.5 Z"/></g>
<g><path style="opacity:1" fill="#426b2f" d="M 25.5,160.5 C 23.6643,165.13 20.9976,169.297 17.5,173C 18.8779,174.334 20.2113,174.501 21.5,173.5C 19.2649,178.303 16.7649,182.97 14,187.5C 13.8333,188.667 13.6667,189.833 13.5,191C 13.7832,196.415 16.4498,199.915 21.5,201.5C 23.8169,202.942 25.9836,202.608 28,200.5C 27.8657,198.811 27.3657,197.144 26.5,195.5C 27.8333,195.5 29.1667,195.5 30.5,195.5C 31.0414,198.652 30.0414,201.152 27.5,203C 18.5837,203.591 18.2503,205.091 26.5,207.5C 24.5,207.5 22.5,207.5 20.5,207.5C 17.8284,206.499 15.1618,205.499 12.5,204.5C 10.7745,202.772 9.44112,200.772 8.5,198.5C 6.81656,194.364 6.14989,190.031 6.5,185.5C 10.8333,179.5 15.1667,173.5 19.5,167.5C 19.5569,166.391 19.8902,165.391 20.5,164.5C 22.1667,163.167 23.8333,161.833 25.5,160.5 Z"/></g>
<g><path style="opacity:1" fill="#42692d" d="M 125.5,159.5 C 129.394,159.11 133.06,159.777 136.5,161.5C 140.517,166.351 144.35,171.351 148,176.5C 152.018,186.207 150.851,195.207 144.5,203.5C 143.833,203.833 143.167,204.167 142.5,204.5C 139.081,205.374 135.748,206.54 132.5,208C 121.833,208 111.167,208 100.5,208C 95.9549,209.546 91.6215,211.546 87.5,214C 82.1667,214.667 76.8333,214.667 71.5,214C 67.0773,212.115 62.744,210.281 58.5,208.5C 65.8057,209.82 73.139,211.153 80.5,212.5C 87.3095,211.848 92.8095,208.848 97,203.5C 98.904,204.102 100.737,203.602 102.5,202C 110.676,202.88 119.009,203.547 127.5,204C 127.167,204.333 126.833,204.667 126.5,205C 131.856,206.104 136.523,204.77 140.5,201C 147.329,196.083 149.162,189.583 146,181.5C 143.081,178.189 141.581,174.522 141.5,170.5C 139.578,169.289 137.745,167.956 136,166.5C 133.993,161.757 130.493,159.423 125.5,159.5 Z"/></g>
<g><path style="opacity:1" fill="#302307" d="M 12.5,204.5 C 15.1618,205.499 17.8284,206.499 20.5,207.5C 20.9175,208.222 21.5842,208.722 22.5,209C 31.244,209.745 39.9107,209.245 48.5,207.5C 51.8547,207.724 55.188,208.057 58.5,208.5C 62.744,210.281 67.0773,212.115 71.5,214C 76.8333,214.667 82.1667,214.667 87.5,214C 91.6215,211.546 95.9549,209.546 100.5,208C 111.167,208 121.833,208 132.5,208C 135.748,206.54 139.081,205.374 142.5,204.5C 139.94,207.537 136.607,209.371 132.5,210C 123.167,210 113.833,210 104.5,210C 101.833,210.667 99.1667,211.333 96.5,212C 95.944,212.383 95.6107,212.883 95.5,213.5C 93.4205,214.044 91.4205,214.878 89.5,216C 82.5,216.667 75.5,216.667 68.5,216C 66.2726,215.059 64.2726,213.892 62.5,212.5C 61.4797,211.046 60.313,210.713 59,211.5C 55.9024,209.953 52.5691,209.286 49,209.5C 39.8678,210.853 30.7011,211.353 21.5,211C 19.6228,209.815 17.6228,208.815 15.5,208C 13.9371,207.241 12.9371,206.074 12.5,204.5 Z"/></g>
<g><path style="opacity:1" fill="#475d2c" d="M 58.5,208.5 C 55.188,208.057 51.8547,207.724 48.5,207.5C 39.9107,209.245 31.244,209.745 22.5,209C 21.5842,208.722 20.9175,208.222 20.5,207.5C 22.5,207.5 24.5,207.5 26.5,207.5C 36.8294,206.815 47.1628,206.648 57.5,207C 58.056,207.383 58.3893,207.883 58.5,208.5 Z"/></g>
<g><path style="opacity:0.916" fill="#381006" d="M 147.5,169.5 C 159.382,181.828 159.382,194.328 147.5,207C 143.951,209.878 139.951,211.878 135.5,213C 127.108,213.639 118.775,213.139 110.5,211.5C 106.793,212.011 103.126,212.678 99.5,213.5C 97.629,213.859 96.129,214.859 95,216.5C 94.1955,219.696 94.3622,222.696 95.5,225.5C 95.6655,229.514 95.4988,233.514 95,237.5C 94.4906,232.099 93.6573,226.766 92.5,221.5C 92.933,218.524 93.933,215.857 95.5,213.5C 95.6107,212.883 95.944,212.383 96.5,212C 99.1667,211.333 101.833,210.667 104.5,210C 113.833,210 123.167,210 132.5,210C 136.607,209.371 139.94,207.537 142.5,204.5C 143.167,204.167 143.833,203.833 144.5,203.5C 147.721,202.118 150.221,199.785 152,196.5C 153.864,186.952 152.364,177.952 147.5,169.5 Z"/></g>
<g><path style="opacity:0.249" fill="#581f0a" d="M 44.5,212.5 C 49.2615,211.109 53.9282,211.442 58.5,213.5C 53.8592,212.873 49.1925,212.54 44.5,212.5 Z"/></g>
<g><path style="opacity:0.137" fill="#582b16" d="M 99.5,213.5 C 95.9222,216.633 94.5889,220.633 95.5,225.5C 94.3622,222.696 94.1955,219.696 95,216.5C 96.129,214.859 97.629,213.859 99.5,213.5 Z"/></g>
<g><path style="opacity:1" fill="#441506" d="M 62.5,212.5 C 64.2726,213.892 66.2726,215.059 68.5,216C 75.5,216.667 82.5,216.667 89.5,216C 91.4205,214.878 93.4205,214.044 95.5,213.5C 93.933,215.857 92.933,218.524 92.5,221.5C 93.6573,226.766 94.4906,232.099 95,237.5C 95.4988,233.514 95.6655,229.514 95.5,225.5C 98.5007,245.643 89.8341,253.143 69.5,248C 61.6525,246.145 58.8192,241.311 61,233.5C 63.6942,228.099 64.6942,222.432 64,216.5C 62.6703,215.418 61.1703,214.751 59.5,214.5C 59.8212,212.952 60.8212,212.285 62.5,212.5 Z"/></g>
<g><path style="opacity:1" fill="#73310c" d="M 88.5,239.5 C 89.1167,233.532 88.2833,227.866 86,222.5C 85.2496,221.874 84.4162,221.374 83.5,221C 79.8484,220.501 76.1817,220.335 72.5,220.5C 72.528,222.582 71.8613,224.416 70.5,226C 71.8486,227.635 71.6819,229.135 70,230.5C 69.3333,234.5 69.3333,238.5 70,242.5C 70.7504,243.126 71.5838,243.626 72.5,244C 76.1516,244.499 79.8183,244.665 83.5,244.5C 79.6888,245.645 75.6888,245.812 71.5,245C 69.3222,243.198 67.4888,241.031 66,238.5C 66.0168,231.414 67.6835,224.748 71,218.5C 76.4162,217.361 81.9162,217.194 87.5,218C 88.3333,218.833 89.1667,219.667 90,220.5C 91.3841,226.109 91.7175,231.775 91,237.5C 90.5831,238.756 89.7498,239.423 88.5,239.5 Z"/></g>
<g><path style="opacity:1" fill="#7f3102" d="M 88.5,239.5 C 88.631,240.239 88.4643,240.906 88,241.5C 86.3484,242.399 84.8484,243.399 83.5,244.5C 79.8183,244.665 76.1516,244.499 72.5,244C 71.5838,243.626 70.7504,243.126 70,242.5C 69.3333,238.5 69.3333,234.5 70,230.5C 71.6819,229.135 71.8486,227.635 70.5,226C 71.8613,224.416 72.528,222.582 72.5,220.5C 76.1817,220.335 79.8484,220.501 83.5,221C 84.4162,221.374 85.2496,221.874 86,222.5C 88.2833,227.866 89.1167,233.532 88.5,239.5 Z"/></g>
</svg>
