<?xml version="1.0" encoding="UTF-8"?>
<!DOCTYPE svg PUBLIC "-//W3C//DTD SVG 1.1//EN" "http://www.w3.org/Graphics/SVG/1.1/DTD/svg11.dtd">
<svg xmlns="http://www.w3.org/2000/svg" version="1.1" width="264px" height="341px" style="shape-rendering:geometricPrecision; text-rendering:geometricPrecision; image-rendering:optimizeQuality; fill-rule:evenodd; clip-rule:evenodd" xmlns:xlink="http://www.w3.org/1999/xlink">
<g><path style="opacity:0.333" fill="#b98d68" d="M 95.5,5.5 C 89.0496,0.753704 83.7163,1.7537 79.5,8.5C 81.0488,2.21999 85.0488,-0.280014 91.5,1C 93.1918,2.30734 94.5251,3.80734 95.5,5.5 Z"/></g>
<g><path style="opacity:0.231" fill="#ad7d5a" d="M 79.5,8.5 C 79.3011,11.941 79.8011,15.2744 81,18.5C 83.3578,21.2223 85.1911,24.2223 86.5,27.5C 79.9723,22.5739 77.639,16.2406 79.5,8.5 Z"/></g>
<g><path style="opacity:0.337" fill="#a27253" d="M 95.5,5.5 C 98.8488,10.5675 100.182,16.2341 99.5,22.5C 105.69,22.6174 111.857,22.2841 118,21.5C 125.003,21.9845 131.836,22.6511 138.5,23.5C 124.833,23.5 111.167,23.5 97.5,23.5C 97.8217,17.3457 97.155,11.3457 95.5,5.5 Z"/></g>
<g><path style="opacity:0.341" fill="#9d7151" d="M 139.5,23.5 C 146.503,23.7743 153.17,25.1076 159.5,27.5C 152.517,27.136 145.851,25.8026 139.5,23.5 Z"/></g>
<g><path style="opacity:1" fill="#421a0a" d="M 95.5,5.5 C 97.155,11.3457 97.8217,17.3457 97.5,23.5C 111.167,23.5 124.833,23.5 138.5,23.5C 138.833,23.5 139.167,23.5 139.5,23.5C 145.851,25.8026 152.517,27.136 159.5,27.5C 163.162,27.7234 166.495,28.7234 169.5,30.5C 176.14,34.1226 182.807,37.7893 189.5,41.5C 188.883,41.6107 188.383,41.944 188,42.5C 183.313,40.6603 178.48,39.327 173.5,38.5C 172.833,38.1667 172.167,37.8333 171.5,37.5C 170.025,35.5905 168.025,34.4238 165.5,34C 157.136,32.5191 148.803,30.8524 140.5,29C 143.063,28.237 143.063,27.737 140.5,27.5C 130.167,28.1667 119.833,28.8333 109.5,29.5C 107.62,29.0748 106.12,28.0748 105,26.5C 103.775,26.8623 102.609,27.3623 101.5,28C 100.167,28.6667 100.167,29.3333 101.5,30C 93.0214,33.5741 84.3547,36.5741 75.5,39C 73.4279,41.7069 70.7612,42.7069 67.5,42C 68.2524,41.3292 68.5858,40.4959 68.5,39.5C 72.3494,39.0819 75.3494,37.4152 77.5,34.5C 81.2347,33.6988 84.9014,32.6988 88.5,31.5C 88.8432,29.5168 88.1765,28.1834 86.5,27.5C 85.1911,24.2223 83.3578,21.2223 81,18.5C 79.8011,15.2744 79.3011,11.941 79.5,8.5C 83.7163,1.7537 89.0496,0.753704 95.5,5.5 Z"/></g>
<g><path style="opacity:1" fill="#4f1503" d="M 171.5,37.5 C 162.334,35.2213 153.001,33.888 143.5,33.5C 142.791,32.596 141.791,32.2627 140.5,32.5C 131.009,31.342 121.342,31.1754 111.5,32C 108.543,32.2794 105.877,33.1127 103.5,34.5C 98.6171,34.5545 93.9504,35.5545 89.5,37.5C 82.0512,38.983 75.0512,41.6497 68.5,45.5C 59.8677,50.3102 52.201,56.3102 45.5,63.5C 38.5036,68.1653 32.8369,74.1653 28.5,81.5C 27.6618,81.1583 27.3284,80.4916 27.5,79.5C 31.1921,74.1487 34.8588,68.8154 38.5,63.5C 45.839,57.1601 53.1723,50.8268 60.5,44.5C 62.6291,42.0499 65.2957,40.3833 68.5,39.5C 68.5858,40.4959 68.2524,41.3292 67.5,42C 70.7612,42.7069 73.4279,41.7069 75.5,39C 84.3547,36.5741 93.0214,33.5741 101.5,30C 100.167,29.3333 100.167,28.6667 101.5,28C 102.609,27.3623 103.775,26.8623 105,26.5C 106.12,28.0748 107.62,29.0748 109.5,29.5C 119.833,28.8333 130.167,28.1667 140.5,27.5C 143.063,27.737 143.063,28.237 140.5,29C 148.803,30.8524 157.136,32.5191 165.5,34C 168.025,34.4238 170.025,35.5905 171.5,37.5 Z"/></g>
<g><path style="opacity:0.208" fill="#aa7a5c" d="M 86.5,27.5 C 88.1765,28.1834 88.8432,29.5168 88.5,31.5C 84.9014,32.6988 81.2347,33.6988 77.5,34.5C 80.3522,32.9235 83.3522,31.4235 86.5,30C 87.5981,29.2303 87.5981,28.397 86.5,27.5 Z"/></g>
<g><path style="opacity:1" fill="#ab4b15" d="M 140.5,32.5 C 128.094,32.1179 115.76,32.7846 103.5,34.5C 105.877,33.1127 108.543,32.2794 111.5,32C 121.342,31.1754 131.009,31.342 140.5,32.5 Z"/></g>
<g><path style="opacity:1" fill="#fc6601" d="M 143.5,33.5 C 143.881,34.9311 144.881,35.7645 146.5,36C 160.454,38.152 173.787,42.152 186.5,48C 188.134,48.4935 189.801,48.6602 191.5,48.5C 191.5,49.5 191.5,50.5 191.5,51.5C 194.114,51.2771 195.781,52.4438 196.5,55C 204.093,57.8576 208.927,63.0242 211,70.5C 211.414,70.0426 211.914,69.7093 212.5,69.5C 214.25,71.4609 216.417,72.7942 219,73.5C 222.933,80.2762 227.1,86.9428 231.5,93.5C 229.55,95.026 227.217,96.026 224.5,96.5C 225.76,97.3816 226.926,98.3816 228,99.5C 228.333,99.1667 228.667,98.8333 229,98.5C 230.236,102.803 229.402,103.803 226.5,101.5C 225.833,102.167 225.167,102.833 224.5,103.5C 221.298,102.873 218.131,102.206 215,101.5C 213.513,102.253 213.346,103.086 214.5,104C 210.916,105.073 207.25,105.74 203.5,106C 202.167,107.333 200.833,108.667 199.5,110C 198.551,110.617 197.718,110.451 197,109.5C 196.667,110.167 196.333,110.833 196,111.5C 192.934,109.707 191.1,107.04 190.5,103.5C 190.523,100.982 190.856,98.3158 191.5,95.5C 190.178,95.67 189.011,95.3366 188,94.5C 185.416,85.8476 180.583,78.8476 173.5,73.5C 169.073,62.7393 161.407,55.406 150.5,51.5C 149.5,50.1667 148.5,48.8333 147.5,47.5C 146.833,47.8333 146.167,48.1667 145.5,48.5C 143.779,46.6073 141.945,44.9406 140,43.5C 135.991,43.5385 131.824,43.7052 127.5,44C 122.62,46.7615 122.287,50.0948 126.5,54C 131.931,56.7124 137.597,58.8791 143.5,60.5C 147.597,63.7557 151.597,67.2557 155.5,71C 156.793,71.49 158.127,71.6567 159.5,71.5C 160.729,74.5703 162.229,77.5703 164,80.5C 165,81.5 166,82.5 167,83.5C 167.317,81.6992 167.984,81.3659 169,82.5C 169.831,86.1718 171.665,89.1718 174.5,91.5C 175.816,94.3837 176.816,97.3837 177.5,100.5C 179.62,101.595 181.12,103.261 182,105.5C 182.241,108.289 182.908,110.956 184,113.5C 187.095,114.395 190.262,114.395 193.5,113.5C 193.5,114.833 193.5,116.167 193.5,117.5C 192.448,117.351 191.448,117.517 190.5,118C 188.624,120.046 186.624,121.879 184.5,123.5C 169.764,118.005 155.097,118.171 140.5,124C 138.658,126.543 136.491,128.71 134,130.5C 132.961,129.29 131.794,128.29 130.5,127.5C 131.008,125.135 131.675,122.801 132.5,120.5C 128.847,114.765 127.014,108.431 127,101.5C 126.667,102.5 126.333,103.5 126,104.5C 125.463,101.813 125.963,99.3128 127.5,97C 126.421,96.044 125.255,95.2106 124,94.5C 121.854,82.7384 118.521,71.4051 114,60.5C 111.544,56.7956 108.211,55.4623 104,56.5C 102.962,65.5755 104.796,73.9089 109.5,81.5C 110.197,85.3771 110.864,89.2104 111.5,93C 111.043,93.414 110.709,93.914 110.5,94.5C 114.681,101.553 116.848,109.219 117,117.5C 119.332,120.791 120.165,124.291 119.5,128C 121.789,132.048 124.789,132.881 128.5,130.5C 129.232,131.808 130.066,133.142 131,134.5C 131.333,134.167 131.667,133.833 132,133.5C 132.49,134.793 132.657,136.127 132.5,137.5C 131.127,137.657 129.793,137.49 128.5,137C 127.845,135.513 126.845,134.347 125.5,133.5C 124.15,135.02 122.817,135.687 121.5,135.5C 123.167,136.167 124.833,136.833 126.5,137.5C 127.711,138.72 127.711,139.887 126.5,141C 111.948,139.51 97.6149,140.677 83.5,144.5C 84.1126,148.512 82.4459,150.512 78.5,150.5C 78.5,151.5 78.5,152.5 78.5,153.5C 75.4266,155.545 72.0933,157.212 68.5,158.5C 68.5,160.5 68.5,162.5 68.5,164.5C 56.8871,162.289 45.2204,162.289 33.5,164.5C 33.2907,165.086 32.9574,165.586 32.5,166C 30.5,166.333 28.5,166.667 26.5,167C 25.1772,167.816 24.5106,168.983 24.5,170.5C 22.4864,172.845 20.153,174.845 17.5,176.5C 15.8762,176.64 14.7096,175.973 14,174.5C 12.7186,160.852 12.3853,147.186 13,133.5C 14.1278,127.374 15.4611,121.374 17,115.5C 17.2602,113.382 18.2602,111.716 20,110.5C 20.3333,107.833 20.6667,105.167 21,102.5C 26.5557,98.6012 28.889,93.2678 28,86.5C 31.5172,85.5972 34.6838,84.0972 37.5,82C 36.4238,80.2739 36.2571,78.4406 37,76.5C 41.4997,72.8481 44.9997,68.5148 47.5,63.5C 49.8863,62.6267 51.8863,61.1267 53.5,59C 57.4633,57.7636 60.2966,58.9302 62,62.5C 63.1827,61.269 64.3493,61.269 65.5,62.5C 64.2927,66.9985 62.1261,71.3318 59,75.5C 57.3775,79.9866 56.5442,84.6532 56.5,89.5C 54.8828,91.1209 53.7162,93.1209 53,95.5C 50.4896,111.381 49.8229,127.381 51,143.5C 52.6792,146.513 55.0125,148.846 58,150.5C 60.2607,150.113 61.594,148.779 62,146.5C 62.7382,144.047 63.2382,141.547 63.5,139C 62.1501,134.611 61.4834,130.111 61.5,125.5C 62.1335,115.825 63.3002,106.159 65,96.5C 66.2092,88.7052 68.7092,81.3719 72.5,74.5C 74.3683,73.0871 76.3683,71.9204 78.5,71C 78.1667,70.6667 77.8333,70.3333 77.5,70C 83.568,59.0654 80.7347,55.8988 69,60.5C 67.124,59.381 66.2907,57.7144 66.5,55.5C 64.0582,55.8808 63.3915,55.2141 64.5,53.5C 67.5454,50.7823 70.5454,48.1156 73.5,45.5C 79.5411,46.4072 84.8744,44.9072 89.5,41C 97.0494,39.5774 104.383,37.5774 111.5,35C 122.127,33.7239 132.793,33.2239 143.5,33.5 Z"/></g>
<g><path style="opacity:0.651" fill="#8c6142" d="M 77.5,34.5 C 75.3494,37.4152 72.3494,39.0819 68.5,39.5C 71.0078,37.0764 74.0078,35.4097 77.5,34.5 Z"/></g>
<g><path style="opacity:1" fill="#da641a" d="M 143.5,33.5 C 153.001,33.888 162.334,35.2213 171.5,37.5C 172.167,37.8333 172.833,38.1667 173.5,38.5C 179.909,40.9968 185.909,44.3301 191.5,48.5C 189.801,48.6602 188.134,48.4935 186.5,48C 173.787,42.152 160.454,38.152 146.5,36C 144.881,35.7645 143.881,34.9311 143.5,33.5 Z"/></g>
<g><path style="opacity:0.239" fill="#ae7a58" d="M 169.5,30.5 C 180.04,33.4338 189.373,38.4338 197.5,45.5C 194.588,44.5711 191.921,43.2378 189.5,41.5C 182.807,37.7893 176.14,34.1226 169.5,30.5 Z"/></g>
<g><path style="opacity:1" fill="#e86a19" d="M 140.5,32.5 C 141.791,32.2627 142.791,32.596 143.5,33.5C 132.793,33.2239 122.127,33.7239 111.5,35C 104.383,37.5774 97.0494,39.5774 89.5,41C 84.8744,44.9072 79.5411,46.4072 73.5,45.5C 78.5493,42.3087 83.8826,39.642 89.5,37.5C 93.9504,35.5545 98.6171,34.5545 103.5,34.5C 115.76,32.7846 128.094,32.1179 140.5,32.5 Z"/></g>
<g><path style="opacity:1" fill="#5a210e" d="M 173.5,38.5 C 178.48,39.327 183.313,40.6603 188,42.5C 188.383,41.944 188.883,41.6107 189.5,41.5C 191.921,43.2378 194.588,44.5711 197.5,45.5C 202.381,47.7094 206.381,51.0427 209.5,55.5C 210.929,57.6778 211.763,60.0111 212,62.5C 210.549,60.5359 208.716,59.2026 206.5,58.5C 201.357,55.425 196.357,52.0916 191.5,48.5C 185.909,44.3301 179.909,40.9968 173.5,38.5 Z"/></g>
<g><path style="opacity:1" fill="#f56d05" d="M 231.5,93.5 C 232.833,94.1667 234.167,94.8333 235.5,95.5C 235.577,99.1461 236.577,102.479 238.5,105.5C 229.888,105.586 221.221,105.753 212.5,106C 210.038,107.216 207.371,107.882 204.5,108C 203.091,110.879 200.757,112.545 197.5,113C 196.117,114.271 195.117,115.771 194.5,117.5C 194.167,117.5 193.833,117.5 193.5,117.5C 193.5,116.167 193.5,114.833 193.5,113.5C 190.262,114.395 187.095,114.395 184,113.5C 182.908,110.956 182.241,108.289 182,105.5C 181.12,103.261 179.62,101.595 177.5,100.5C 176.816,97.3837 175.816,94.3837 174.5,91.5C 171.665,89.1718 169.831,86.1718 169,82.5C 167.984,81.3659 167.317,81.6992 167,83.5C 166,82.5 165,81.5 164,80.5C 162.229,77.5703 160.729,74.5703 159.5,71.5C 158.127,71.6567 156.793,71.49 155.5,71C 151.597,67.2557 147.597,63.7557 143.5,60.5C 137.597,58.8791 131.931,56.7124 126.5,54C 122.287,50.0948 122.62,46.7615 127.5,44C 131.824,43.7052 135.991,43.5385 140,43.5C 141.945,44.9406 143.779,46.6073 145.5,48.5C 146.167,48.1667 146.833,47.8333 147.5,47.5C 148.5,48.8333 149.5,50.1667 150.5,51.5C 161.407,55.406 169.073,62.7393 173.5,73.5C 180.583,78.8476 185.416,85.8476 188,94.5C 189.011,95.3366 190.178,95.67 191.5,95.5C 190.856,98.3158 190.523,100.982 190.5,103.5C 191.1,107.04 192.934,109.707 196,111.5C 196.333,110.833 196.667,110.167 197,109.5C 197.718,110.451 198.551,110.617 199.5,110C 200.833,108.667 202.167,107.333 203.5,106C 207.25,105.74 210.916,105.073 214.5,104C 213.346,103.086 213.513,102.253 215,101.5C 218.131,102.206 221.298,102.873 224.5,103.5C 225.167,102.833 225.833,102.167 226.5,101.5C 229.402,103.803 230.236,102.803 229,98.5C 228.667,98.8333 228.333,99.1667 228,99.5C 226.926,98.3816 225.76,97.3816 224.5,96.5C 227.217,96.026 229.55,95.026 231.5,93.5 Z"/></g>
<g><path style="opacity:1" fill="#ac4a17" d="M 89.5,37.5 C 83.8826,39.642 78.5493,42.3087 73.5,45.5C 67.9762,48.8421 62.3095,52.0087 56.5,55C 53,57.3342 50,60.1675 47.5,63.5C 46.8333,63.5 46.1667,63.5 45.5,63.5C 52.201,56.3102 59.8677,50.3102 68.5,45.5C 75.0512,41.6497 82.0512,38.983 89.5,37.5 Z"/></g>
<g><path style="opacity:0.6" fill="#8b5d3f" d="M 60.5,44.5 C 53.1723,50.8268 45.839,57.1601 38.5,63.5C 44.6478,55.6778 51.9812,49.3444 60.5,44.5 Z"/></g>
<g><path style="opacity:0.965" fill="#844223" d="M 209.5,55.5 C 215.503,60.5045 220.837,66.1711 225.5,72.5C 221.843,69.343 218.343,66.0096 215,62.5C 214.333,63.5 214.333,64.5 215,65.5C 218.112,68.1009 220.612,71.1009 222.5,74.5C 216.806,69.4729 211.473,64.1396 206.5,58.5C 208.716,59.2026 210.549,60.5359 212,62.5C 211.763,60.0111 210.929,57.6778 209.5,55.5 Z"/></g>
<g><path style="opacity:0.337" fill="#a06a4e" d="M 38.5,63.5 C 34.8588,68.8154 31.1921,74.1487 27.5,79.5C 27.1667,79.5 26.8333,79.5 26.5,79.5C 29.3529,73.3128 33.3529,67.9795 38.5,63.5 Z"/></g>
<g><path style="opacity:1" fill="#bd571a" d="M 45.5,63.5 C 45.6495,64.552 45.4828,65.552 45,66.5C 38.8002,72.9931 32.6335,79.3264 26.5,85.5C 26.7329,83.9382 27.3995,82.6049 28.5,81.5C 32.8369,74.1653 38.5036,68.1653 45.5,63.5 Z"/></g>
<g><path style="opacity:0.839" fill="#501102" d="M 225.5,72.5 C 226.048,74.3936 227.048,76.0603 228.5,77.5C 228.167,77.8333 227.833,78.1667 227.5,78.5C 225.683,77.233 224.016,75.8997 222.5,74.5C 220.612,71.1009 218.112,68.1009 215,65.5C 214.333,64.5 214.333,63.5 215,62.5C 218.343,66.0096 221.843,69.343 225.5,72.5 Z"/></g>
<g><path style="opacity:1" fill="#fd9c27" d="M 159.5,71.5 C 157.768,68.9181 155.768,66.4181 153.5,64C 145.244,59.5355 136.91,55.0355 128.5,50.5C 127.614,49.675 127.281,48.675 127.5,47.5C 139.064,47.7385 149.397,51.4052 158.5,58.5C 164.026,66.3714 170.359,73.7047 177.5,80.5C 179.086,83.9191 181.252,86.9191 184,89.5C 185.087,93.7661 186.754,97.7661 189,101.5C 189.667,104.5 189.667,107.5 189,110.5C 188.282,111.451 187.449,111.617 186.5,111C 182.024,101.212 177.19,91.7124 172,82.5C 168.258,78.2525 164.092,74.5859 159.5,71.5 Z"/></g>
<g><path style="opacity:1" fill="#e46a1a" d="M 191.5,48.5 C 196.357,52.0916 201.357,55.425 206.5,58.5C 211.473,64.1396 216.806,69.4729 222.5,74.5C 225.037,79.2173 228.204,83.5506 232,87.5C 233.454,90.0711 234.62,92.7378 235.5,95.5C 234.167,94.8333 232.833,94.1667 231.5,93.5C 227.1,86.9428 222.933,80.2762 219,73.5C 216.417,72.7942 214.25,71.4609 212.5,69.5C 211.914,69.7093 211.414,70.0426 211,70.5C 208.927,63.0242 204.093,57.8576 196.5,55C 195.781,52.4438 194.114,51.2771 191.5,51.5C 191.5,50.5 191.5,49.5 191.5,48.5 Z"/></g>
<g><path style="opacity:0.991" fill="#6c2e15" d="M 225.5,72.5 C 233.553,80.265 239.886,89.265 244.5,99.5C 242.376,98.9688 240.876,97.6355 240,95.5C 239.836,98.5225 240.836,101.189 243,103.5C 243.497,106.146 243.664,108.813 243.5,111.5C 239.511,111.884 235.845,111.217 232.5,109.5C 235.881,109.46 239.214,109.793 242.5,110.5C 242.373,105.768 240.707,101.768 237.5,98.5C 237.068,97.2905 236.401,96.2905 235.5,95.5C 234.62,92.7378 233.454,90.0711 232,87.5C 228.204,83.5506 225.037,79.2173 222.5,74.5C 224.016,75.8997 225.683,77.233 227.5,78.5C 227.833,78.1667 228.167,77.8333 228.5,77.5C 227.048,76.0603 226.048,74.3936 225.5,72.5 Z"/></g>
<g><path style="opacity:1" fill="#f06a12" d="M 45.5,63.5 C 46.1667,63.5 46.8333,63.5 47.5,63.5C 44.9997,68.5148 41.4997,72.8481 37,76.5C 36.2571,78.4406 36.4238,80.2739 37.5,82C 34.6838,84.0972 31.5172,85.5972 28,86.5C 28.889,93.2678 26.5557,98.6012 21,102.5C 20.6667,105.167 20.3333,107.833 20,110.5C 18.2602,111.716 17.2602,113.382 17,115.5C 15.4611,121.374 14.1278,127.374 13,133.5C 12.3853,147.186 12.7186,160.852 14,174.5C 14.7096,175.973 15.8762,176.64 17.5,176.5C 15.7684,179.112 14.2684,178.779 13,175.5C 11.699,159.529 11.199,143.529 11.5,127.5C 14.807,119.512 17.307,111.179 19,102.5C 22.1994,98.7688 24.366,94.4355 25.5,89.5C 25.8333,88.1667 26.1667,86.8333 26.5,85.5C 32.6335,79.3264 38.8002,72.9931 45,66.5C 45.4828,65.552 45.6495,64.552 45.5,63.5 Z"/></g>
<g><path style="opacity:1" fill="#b5531e" d="M 237.5,98.5 C 240.707,101.768 242.373,105.768 242.5,110.5C 239.214,109.793 235.881,109.46 232.5,109.5C 226.211,108.628 219.878,108.295 213.5,108.5C 222.348,107.304 231.348,107.304 240.5,108.5C 239.664,105.093 238.664,101.759 237.5,98.5 Z"/></g>
<g><path style="opacity:1" fill="#e2691b" d="M 235.5,95.5 C 236.401,96.2905 237.068,97.2905 237.5,98.5C 238.664,101.759 239.664,105.093 240.5,108.5C 231.348,107.304 222.348,107.304 213.5,108.5C 210.025,109.437 206.691,110.77 203.5,112.5C 200.245,113.766 197.245,115.432 194.5,117.5C 195.117,115.771 196.117,114.271 197.5,113C 200.757,112.545 203.091,110.879 204.5,108C 207.371,107.882 210.038,107.216 212.5,106C 221.221,105.753 229.888,105.586 238.5,105.5C 236.577,102.479 235.577,99.1461 235.5,95.5 Z"/></g>
<g><path style="opacity:0.725" fill="#895a40" d="M 245.5,101.5 C 248.579,104.65 250.913,108.317 252.5,112.5C 249.114,110.433 246.781,107.433 245.5,103.5C 245.5,102.833 245.5,102.167 245.5,101.5 Z"/></g>
<g><path style="opacity:1" fill="#cd5f1e" d="M 25.5,89.5 C 24.366,94.4355 22.1994,98.7688 19,102.5C 17.307,111.179 14.807,119.512 11.5,127.5C 11.275,120.279 13.1084,113.612 17,107.5C 17.4521,100.267 20.2854,94.2668 25.5,89.5 Z"/></g>
<g><path style="opacity:1" fill="#f57409" d="M 130.5,127.5 C 130.218,128.778 129.551,129.778 128.5,130.5C 124.789,132.881 121.789,132.048 119.5,128C 120.165,124.291 119.332,120.791 117,117.5C 116.848,109.219 114.681,101.553 110.5,94.5C 110.709,93.914 111.043,93.414 111.5,93C 110.864,89.2104 110.197,85.3771 109.5,81.5C 104.796,73.9089 102.962,65.5755 104,56.5C 108.211,55.4623 111.544,56.7956 114,60.5C 118.521,71.4051 121.854,82.7384 124,94.5C 125.255,95.2106 126.421,96.044 127.5,97C 125.963,99.3128 125.463,101.813 126,104.5C 126.333,103.5 126.667,102.5 127,101.5C 127.014,108.431 128.847,114.765 132.5,120.5C 131.675,122.801 131.008,125.135 130.5,127.5 Z"/></g>
<g><path style="opacity:1" fill="#401806" d="M 245.5,103.5 C 246.781,107.433 249.114,110.433 252.5,112.5C 253.113,115.635 254.113,118.635 255.5,121.5C 254.79,127.189 251.79,128.689 246.5,126C 246.746,124.94 246.746,123.773 246.5,122.5C 245.349,121.269 244.183,121.269 243,122.5C 241.718,119.214 239.552,116.88 236.5,115.5C 236.389,114.883 236.056,114.383 235.5,114C 229.844,113.112 224.177,112.279 218.5,111.5C 220.667,111.167 222.833,110.833 225,110.5C 231.412,111.858 237.912,112.525 244.5,112.5C 244.351,111.448 244.517,110.448 245,109.5C 245.889,110.888 246.389,110.722 246.5,109C 245.833,107.667 245.167,106.333 244.5,105C 244.57,104.235 244.903,103.735 245.5,103.5 Z"/></g>
<g><path style="opacity:1" fill="#fea02a" d="M 106.5,59.5 C 108.479,60.8121 110.145,62.4788 111.5,64.5C 113.483,68.6124 114.983,72.9457 116,77.5C 116.667,78.1667 117.333,78.8333 118,79.5C 119.403,92.9433 122.403,105.943 127,118.5C 127.497,121.146 127.664,123.813 127.5,126.5C 126.167,126.5 124.833,126.5 123.5,126.5C 121.633,117.699 119.467,109.033 117,100.5C 115.48,96.0681 113.814,91.7348 112,87.5C 110.687,78.0623 108.854,68.729 106.5,59.5 Z"/></g>
<g><path style="opacity:1" fill="#532211" d="M 244.5,99.5 C 245.338,99.8417 245.672,100.508 245.5,101.5C 245.5,102.167 245.5,102.833 245.5,103.5C 244.903,103.735 244.57,104.235 244.5,105C 245.167,106.333 245.833,107.667 246.5,109C 246.389,110.722 245.889,110.888 245,109.5C 244.517,110.448 244.351,111.448 244.5,112.5C 237.912,112.525 231.412,111.858 225,110.5C 222.833,110.833 220.667,111.167 218.5,111.5C 224.177,112.279 229.844,113.112 235.5,114C 236.056,114.383 236.389,114.883 236.5,115.5C 219.686,111.437 206.019,116.104 195.5,129.5C 194.833,129.833 194.167,130.167 193.5,130.5C 193.083,129.876 192.416,129.543 191.5,129.5C 189.761,130.4 187.928,131.067 186,131.5C 183.673,131.178 182.506,129.844 182.5,127.5C 184.527,127.662 186.527,127.495 188.5,127C 193.148,121.7 198.148,116.866 203.5,112.5C 206.691,110.77 210.025,109.437 213.5,108.5C 219.878,108.295 226.211,108.628 232.5,109.5C 235.845,111.217 239.511,111.884 243.5,111.5C 243.664,108.813 243.497,106.146 243,103.5C 240.836,101.189 239.836,98.5225 240,95.5C 240.876,97.6355 242.376,98.9688 244.5,99.5 Z"/></g>
<g><path style="opacity:0.998" fill="#7c4d33" d="M 252.5,112.5 C 257.404,116.175 258.57,120.842 256,126.5C 251.447,129.188 246.947,129.021 242.5,126C 240.771,122.276 238.771,118.776 236.5,115.5C 239.552,116.88 241.718,119.214 243,122.5C 244.183,121.269 245.349,121.269 246.5,122.5C 246.746,123.773 246.746,124.94 246.5,126C 251.79,128.689 254.79,127.189 255.5,121.5C 254.113,118.635 253.113,115.635 252.5,112.5 Z"/></g>
<g><path style="opacity:1" fill="#a14210" d="M 203.5,112.5 C 198.148,116.866 193.148,121.7 188.5,127C 186.527,127.495 184.527,127.662 182.5,127.5C 181.292,126.766 179.959,126.433 178.5,126.5C 177.5,125.833 176.5,125.167 175.5,124.5C 179.62,124.876 183.62,125.376 187.5,126C 190.314,123.679 192.314,120.846 193.5,117.5C 193.833,117.5 194.167,117.5 194.5,117.5C 197.245,115.432 200.245,113.766 203.5,112.5 Z"/></g>
<g><path style="opacity:0.129" fill="#996b4d" d="M 175.5,129.5 C 166.823,127.683 158.49,128.683 150.5,132.5C 151.306,131.272 152.306,130.272 153.5,129.5C 160.04,127.628 166.706,127.128 173.5,128C 174.416,128.278 175.082,128.778 175.5,129.5 Z"/></g>
<g><path style="opacity:0.961" fill="#6c2c16" d="M 26.5,79.5 C 26.8333,79.5 27.1667,79.5 27.5,79.5C 27.3284,80.4916 27.6618,81.1583 28.5,81.5C 27.3995,82.6049 26.7329,83.9382 26.5,85.5C 26.1667,86.8333 25.8333,88.1667 25.5,89.5C 20.2854,94.2668 17.4521,100.267 17,107.5C 13.1084,113.612 11.275,120.279 11.5,127.5C 10.71,128.609 10.21,129.942 10,131.5C 9.50017,141.828 9.33351,152.161 9.5,162.5C 8.66985,152.675 8.16985,142.675 8,132.5C 7.60966,135.104 6.77633,137.438 5.5,139.5C 7.75353,117.735 14.7535,97.7348 26.5,79.5 Z"/></g>
<g><path style="opacity:1" fill="#f36f06" d="M 73.5,45.5 C 70.5454,48.1156 67.5454,50.7823 64.5,53.5C 63.3915,55.2141 64.0582,55.8808 66.5,55.5C 66.2907,57.7144 67.124,59.381 69,60.5C 80.7347,55.8988 83.568,59.0654 77.5,70C 77.8333,70.3333 78.1667,70.6667 78.5,71C 76.3683,71.9204 74.3683,73.0871 72.5,74.5C 68.7092,81.3719 66.2092,88.7052 65,96.5C 63.3002,106.159 62.1335,115.825 61.5,125.5C 61.4834,130.111 62.1501,134.611 63.5,139C 63.2382,141.547 62.7382,144.047 62,146.5C 61.594,148.779 60.2607,150.113 58,150.5C 55.0125,148.846 52.6792,146.513 51,143.5C 49.8229,127.381 50.4896,111.381 53,95.5C 53.7162,93.1209 54.8828,91.1209 56.5,89.5C 56.5442,84.6532 57.3775,79.9866 59,75.5C 62.1261,71.3318 64.2927,66.9985 65.5,62.5C 64.3493,61.269 63.1827,61.269 62,62.5C 60.2966,58.9302 57.4633,57.7636 53.5,59C 51.8863,61.1267 49.8863,62.6267 47.5,63.5C 50,60.1675 53,57.3342 56.5,55C 62.3095,52.0087 67.9762,48.8421 73.5,45.5 Z"/></g>
<g><path style="opacity:1" fill="#fda02a" d="M 56.5,89.5 C 59.6945,81.7744 63.1945,74.1077 67,66.5C 69.6697,62.365 73.503,60.365 78.5,60.5C 78.5086,62.3084 78.0086,63.9751 77,65.5C 67.3951,77.4585 61.7284,91.1251 60,106.5C 59.5001,119.496 59.3334,132.496 59.5,145.5C 58.1667,145.5 56.8333,145.5 55.5,145.5C 51.4604,126.8 51.7937,108.133 56.5,89.5 Z"/></g>
<g><path style="opacity:1" fill="#421908" d="M 178.5,126.5 C 179.959,126.433 181.292,126.766 182.5,127.5C 182.506,129.844 183.673,131.178 186,131.5C 187.928,131.067 189.761,130.4 191.5,129.5C 192.416,129.543 193.083,129.876 193.5,130.5C 193.837,134.308 193.337,137.974 192,141.5C 188.867,144.867 185.534,145.201 182,142.5C 180.844,138.877 179.844,135.211 179,131.5C 178.583,130.244 177.75,129.577 176.5,129.5C 176.167,129.5 175.833,129.5 175.5,129.5C 175.082,128.778 174.416,128.278 173.5,128C 166.706,127.128 160.04,127.628 153.5,129.5C 151.451,129.294 151.117,128.461 152.5,127C 161.101,123.839 169.767,123.673 178.5,126.5 Z"/></g>
<g><path style="opacity:1" fill="#62210b" d="M 175.5,124.5 C 176.5,125.167 177.5,125.833 178.5,126.5C 169.767,123.673 161.101,123.839 152.5,127C 151.117,128.461 151.451,129.294 153.5,129.5C 152.306,130.272 151.306,131.272 150.5,132.5C 148.381,134.4 146.047,136.066 143.5,137.5C 143.678,136.305 144.011,135.138 144.5,134C 144.15,132.743 143.483,132.409 142.5,133C 138.22,137.724 134.554,142.891 131.5,148.5C 129.308,149.439 127.308,149.105 125.5,147.5C 128.856,148.138 130.856,146.804 131.5,143.5C 132.557,141.059 133.89,138.725 135.5,136.5C 138.167,134.5 140.5,132.167 142.5,129.5C 152.554,122.227 163.554,120.561 175.5,124.5 Z"/></g>
<g><path style="opacity:1" fill="#f06911" d="M 193.5,117.5 C 192.314,120.846 190.314,123.679 187.5,126C 183.62,125.376 179.62,124.876 175.5,124.5C 163.554,120.561 152.554,122.227 142.5,129.5C 140.5,132.167 138.167,134.5 135.5,136.5C 133.89,138.725 132.557,141.059 131.5,143.5C 119.511,141.4 107.511,141.233 95.5,143C 92.6484,144.591 89.6484,145.924 86.5,147C 83.0212,150.166 79.5212,153.333 76,156.5C 75.5172,157.448 75.3505,158.448 75.5,159.5C 72.2251,160.152 70.2251,162.152 69.5,165.5C 66.4648,166.665 63.4648,166.498 60.5,165C 53.1667,164.333 45.8333,164.333 38.5,165C 35.5519,166.237 32.8852,167.737 30.5,169.5C 28.5,169.833 26.5,170.167 24.5,170.5C 24.5106,168.983 25.1772,167.816 26.5,167C 28.5,166.667 30.5,166.333 32.5,166C 32.9574,165.586 33.2907,165.086 33.5,164.5C 45.2204,162.289 56.8871,162.289 68.5,164.5C 68.5,162.5 68.5,160.5 68.5,158.5C 72.0933,157.212 75.4266,155.545 78.5,153.5C 78.5,152.5 78.5,151.5 78.5,150.5C 82.4459,150.512 84.1126,148.512 83.5,144.5C 97.6149,140.677 111.948,139.51 126.5,141C 127.711,139.887 127.711,138.72 126.5,137.5C 124.833,136.833 123.167,136.167 121.5,135.5C 122.817,135.687 124.15,135.02 125.5,133.5C 126.845,134.347 127.845,135.513 128.5,137C 129.793,137.49 131.127,137.657 132.5,137.5C 132.657,136.127 132.49,134.793 132,133.5C 131.667,133.833 131.333,134.167 131,134.5C 130.066,133.142 129.232,131.808 128.5,130.5C 129.551,129.778 130.218,128.778 130.5,127.5C 131.794,128.29 132.961,129.29 134,130.5C 136.491,128.71 138.658,126.543 140.5,124C 155.097,118.171 169.764,118.005 184.5,123.5C 186.624,121.879 188.624,120.046 190.5,118C 191.448,117.517 192.448,117.351 193.5,117.5 Z"/></g>
<g><path style="opacity:0.137" fill="#a37657" d="M 143.5,137.5 C 141.512,139.465 140.012,141.798 139,144.5C 138.412,149.528 138.578,154.528 139.5,159.5C 135.441,152.827 135.608,146.161 140,139.5C 140.816,138.177 141.983,137.511 143.5,137.5 Z"/></g>
<g><path style="opacity:0.098" fill="#ac7e5b" d="M 176.5,129.5 C 177.75,129.577 178.583,130.244 179,131.5C 179.844,135.211 180.844,138.877 182,142.5C 185.534,145.201 188.867,144.867 192,141.5C 193.337,137.974 193.837,134.308 193.5,130.5C 194.167,130.167 194.833,129.833 195.5,129.5C 195.073,133.926 194.239,138.26 193,142.5C 188.594,146.423 184.261,146.423 180,142.5C 179.396,137.964 178.229,133.63 176.5,129.5 Z"/></g>
<g><path style="opacity:0.114" fill="#a67a58" d="M 139.5,159.5 C 140.617,163.295 141.283,167.295 141.5,171.5C 139.864,167.79 139.198,163.79 139.5,159.5 Z"/></g>
<g><path style="opacity:0.955" fill="#481d0d" d="M 9.5,162.5 C 9.57746,166.877 10.0775,171.21 11,175.5C 12.0024,177.666 13.5024,179.333 15.5,180.5C 20.7978,177.197 25.7978,173.53 30.5,169.5C 38.5845,166.826 46.9178,165.826 55.5,166.5C 59.7876,168.981 64.4543,170.148 69.5,170C 71.0549,167.445 73.2215,165.612 76,164.5C 75.9124,160.754 77.7458,158.754 81.5,158.5C 88.735,149.549 98.0684,144.882 109.5,144.5C 113.525,144.668 117.525,145.001 121.5,145.5C 122.833,146.167 124.167,146.833 125.5,147.5C 127.308,149.105 129.308,149.439 131.5,148.5C 134.554,142.891 138.22,137.724 142.5,133C 143.483,132.409 144.15,132.743 144.5,134C 144.011,135.138 143.678,136.305 143.5,137.5C 141.983,137.511 140.816,138.177 140,139.5C 135.608,146.161 135.441,152.827 139.5,159.5C 139.198,163.79 139.864,167.79 141.5,171.5C 142.499,176.828 143.499,182.161 144.5,187.5C 144.41,190.152 145.076,192.485 146.5,194.5C 146.5,194.833 146.5,195.167 146.5,195.5C 146.41,198.152 147.076,200.485 148.5,202.5C 148.565,205.428 149.232,208.095 150.5,210.5C 151.095,217.219 152.762,223.552 155.5,229.5C 155.335,232.85 155.502,236.183 156,239.5C 156.608,241.066 157.442,242.4 158.5,243.5C 158.43,247.425 159.097,251.091 160.5,254.5C 161.5,269.487 161.666,284.487 161,299.5C 160.461,302.529 159.794,305.529 159,308.5C 158.586,308.957 158.086,309.291 157.5,309.5C 157.167,307.5 156.833,305.5 156.5,303.5C 157.528,291.845 157.695,280.179 157,268.5C 156.617,267.944 156.117,267.611 155.5,267.5C 155.5,266.5 155.5,265.5 155.5,264.5C 154.354,251.754 152.021,239.421 148.5,227.5C 147.215,224.411 146.549,221.078 146.5,217.5C 146.469,212.375 145.636,207.375 144,202.5C 141.633,194.667 139.133,187 136.5,179.5C 135.182,175.075 133.349,170.741 131,166.5C 128.165,165.084 125.498,163.417 123,161.5C 123.912,154.985 121.412,150.985 115.5,149.5C 106.083,148.262 97.083,150.095 88.5,155C 86.9371,155.759 85.9371,156.926 85.5,158.5C 82.5,159.5 80.5,161.5 79.5,164.5C 79.5,165.167 79.1667,165.5 78.5,165.5C 77.8826,165.611 77.3826,165.944 77,166.5C 76.8333,168.333 76.6667,170.167 76.5,172C 77.0603,175.842 77.2269,179.676 77,183.5C 75.3732,184.532 74.2066,185.866 73.5,187.5C 69.406,188.295 66.2393,186.962 64,183.5C 63.0858,179.858 62.2525,176.192 61.5,172.5C 59.2534,171.626 56.9201,171.292 54.5,171.5C 54.1667,171.5 53.8333,171.5 53.5,171.5C 46.0589,169.76 38.7256,170.426 31.5,173.5C 30.7025,173.957 30.3691,174.624 30.5,175.5C 27.1667,178.167 24.1667,181.167 21.5,184.5C 20.6851,185.429 19.8518,186.429 19,187.5C 18.5017,190.817 18.335,194.15 18.5,197.5C 17.3514,201.003 14.8514,202.669 11,202.5C 6.68129,202.592 3.84796,200.592 2.5,196.5C 3.88798,193.115 4.88798,189.615 5.5,186C 2.92601,170.368 2.92601,154.868 5.5,139.5C 6.77633,137.438 7.60966,135.104 8,132.5C 8.16985,142.675 8.66985,152.675 9.5,162.5 Z M 4.5,154.5 C 5.23891,154.369 5.90558,154.536 6.5,155C 5.11774,159.705 4.45107,159.539 4.5,154.5 Z"/></g>
<g><path style="opacity:0.22" fill="#8e5f40" d="M 53.5,171.5 C 45.3905,170.621 37.7238,171.955 30.5,175.5C 30.3691,174.624 30.7025,173.957 31.5,173.5C 38.7256,170.426 46.0589,169.76 53.5,171.5 Z"/></g>
<g><path style="opacity:1" fill="#d7641d" d="M 75.5,159.5 C 73.3631,162.153 71.3631,164.987 69.5,168C 64.7853,168.158 60.1186,167.658 55.5,166.5C 46.9178,165.826 38.5845,166.826 30.5,169.5C 32.8852,167.737 35.5519,166.237 38.5,165C 45.8333,164.333 53.1667,164.333 60.5,165C 63.4648,166.498 66.4648,166.665 69.5,165.5C 70.2251,162.152 72.2251,160.152 75.5,159.5 Z"/></g>
<g><path style="opacity:0.086" fill="#c1906e" d="M 85.5,158.5 C 83.8333,160.833 81.8333,162.833 79.5,164.5C 80.5,161.5 82.5,159.5 85.5,158.5 Z"/></g>
<g><path style="opacity:1" fill="#73280a" d="M 121.5,145.5 C 117.525,145.001 113.525,144.668 109.5,144.5C 98.0684,144.882 88.735,149.549 81.5,158.5C 77.7458,158.754 75.9124,160.754 76,164.5C 73.2215,165.612 71.0549,167.445 69.5,170C 64.4543,170.148 59.7876,168.981 55.5,166.5C 60.1186,167.658 64.7853,168.158 69.5,168C 71.3631,164.987 73.3631,162.153 75.5,159.5C 87.4382,146.687 102.105,141.52 119.5,144C 120.416,144.278 121.082,144.778 121.5,145.5 Z"/></g>
<g><path style="opacity:0.075" fill="#a67558" d="M 115.5,149.5 C 104.486,149.416 94.4864,152.416 85.5,158.5C 85.9371,156.926 86.9371,155.759 88.5,155C 97.083,150.095 106.083,148.262 115.5,149.5 Z"/></g>
<g><path style="opacity:1" fill="#db6621" d="M 131.5,143.5 C 130.856,146.804 128.856,148.138 125.5,147.5C 124.167,146.833 122.833,146.167 121.5,145.5C 121.082,144.778 120.416,144.278 119.5,144C 102.105,141.52 87.4382,146.687 75.5,159.5C 75.3505,158.448 75.5172,157.448 76,156.5C 79.5212,153.333 83.0212,150.166 86.5,147C 89.6484,145.924 92.6484,144.591 95.5,143C 107.511,141.233 119.511,141.4 131.5,143.5 Z"/></g>
<g><path style="opacity:1" fill="#c65d21" d="M 11.5,127.5 C 11.199,143.529 11.699,159.529 13,175.5C 14.2684,178.779 15.7684,179.112 17.5,176.5C 20.153,174.845 22.4864,172.845 24.5,170.5C 26.5,170.167 28.5,169.833 30.5,169.5C 25.7978,173.53 20.7978,177.197 15.5,180.5C 13.5024,179.333 12.0024,177.666 11,175.5C 10.0775,171.21 9.57746,166.877 9.5,162.5C 9.33351,152.161 9.50017,141.828 10,131.5C 10.21,129.942 10.71,128.609 11.5,127.5 Z"/></g>
<g><path style="opacity:0.227" fill="#aa7b59" d="M 78.5,165.5 C 77.7449,171.806 77.5783,178.14 78,184.5C 76.871,186.141 75.371,187.141 73.5,187.5C 74.2066,185.866 75.3732,184.532 77,183.5C 77.2269,179.676 77.0603,175.842 76.5,172C 76.6667,170.167 76.8333,168.333 77,166.5C 77.3826,165.944 77.8826,165.611 78.5,165.5 Z"/></g>
<g><path style="opacity:0.412" fill="#976746" d="M 54.5,171.5 C 56.9201,171.292 59.2534,171.626 61.5,172.5C 62.2525,176.192 63.0858,179.858 64,183.5C 66.2393,186.962 69.406,188.295 73.5,187.5C 68.1396,189.821 64.3063,188.154 62,182.5C 61.8184,179.774 61.3184,177.107 60.5,174.5C 58.396,173.481 56.396,172.481 54.5,171.5 Z"/></g>
<g><path style="opacity:0.506" fill="#875e3e" d="M 21.5,184.5 C 21.0231,189.071 20.0231,193.404 18.5,197.5C 18.335,194.15 18.5017,190.817 19,187.5C 19.8518,186.429 20.6851,185.429 21.5,184.5 Z"/></g>
<g><path style="opacity:0.188" fill="#c5977a" d="M 144.5,187.5 C 145.924,189.515 146.59,191.848 146.5,194.5C 145.076,192.485 144.41,190.152 144.5,187.5 Z"/></g>
<g><path style="opacity:0.094" fill="#b28362" d="M 136.5,179.5 C 139.133,187 141.633,194.667 144,202.5C 145.636,207.375 146.469,212.375 146.5,217.5C 142.595,205.096 139.262,192.429 136.5,179.5 Z"/></g>
<g><path style="opacity:0.2" fill="#cb9a79" d="M 146.5,195.5 C 147.924,197.515 148.59,199.848 148.5,202.5C 147.076,200.485 146.41,198.152 146.5,195.5 Z"/></g>
<g><path style="opacity:0.051" fill="#d29f89" d="M 148.5,202.5 C 150.04,204.838 150.706,207.505 150.5,210.5C 149.232,208.095 148.565,205.428 148.5,202.5 Z"/></g>
<g><path style="opacity:0.192" fill="#b8896b" d="M 150.5,210.5 C 152.613,216.612 154.279,222.946 155.5,229.5C 152.762,223.552 151.095,217.219 150.5,210.5 Z"/></g>
<g><path style="opacity:0.659" fill="#996a4c" d="M 155.5,229.5 C 157.246,233.889 158.246,238.556 158.5,243.5C 157.442,242.4 156.608,241.066 156,239.5C 155.502,236.183 155.335,232.85 155.5,229.5 Z"/></g>
<g><path style="opacity:0.039" fill="#b08262" d="M 148.5,227.5 C 152.021,239.421 154.354,251.754 155.5,264.5C 152.805,252.35 150.471,240.017 148.5,227.5 Z"/></g>
<g><path style="opacity:0.161" fill="#c28f72" d="M 158.5,243.5 C 159.903,246.909 160.57,250.575 160.5,254.5C 159.097,251.091 158.43,247.425 158.5,243.5 Z"/></g>
<g><path style="opacity:0.965" fill="#8d6044" d="M 160.5,254.5 C 165.324,276.695 164.157,298.695 157,320.5C 156.303,322.584 155.136,324.251 153.5,325.5C 154.779,322.605 155.779,319.605 156.5,316.5C 156.167,315.5 155.833,314.5 155.5,313.5C 154.943,315.332 153.943,316.665 152.5,317.5C 153.038,315.883 153.371,314.216 153.5,312.5C 156.369,297.599 157.035,282.599 155.5,267.5C 156.117,267.611 156.617,267.944 157,268.5C 157.695,280.179 157.528,291.845 156.5,303.5C 156.833,305.5 157.167,307.5 157.5,309.5C 158.086,309.291 158.586,308.957 159,308.5C 159.794,305.529 160.461,302.529 161,299.5C 161.666,284.487 161.5,269.487 160.5,254.5 Z"/></g>
<g><path style="opacity:0.502" fill="#c59570" d="M 125.5,295.5 C 106.996,293.837 98.8289,302.17 101,320.5C 104.437,328.938 110.604,334.105 119.5,336C 125.491,336.499 131.491,336.666 137.5,336.5C 123.692,340.696 111.858,337.363 102,326.5C 96.4584,316.104 97.625,306.604 105.5,298C 111.842,293.269 118.509,292.435 125.5,295.5 Z"/></g>
<g><path style="opacity:0.027" fill="#cc9978" d="M 153.5,312.5 C 153.371,314.216 153.038,315.883 152.5,317.5C 149.832,324.341 145.166,329.508 138.5,333C 134.5,333.667 130.5,333.667 126.5,333C 125.263,332.768 124.263,332.268 123.5,331.5C 132.779,333.89 140.612,331.557 147,324.5C 148.941,320.278 151.108,316.278 153.5,312.5 Z"/></g>
<g><path style="opacity:0.145" fill="#cc9c79" d="M 125.5,295.5 C 134.808,299.449 138.308,306.449 136,316.5C 131.979,323.067 126.146,325.567 118.5,324C 113.933,317.934 115.1,313.101 122,309.5C 124.133,311.091 125.799,313.091 127,315.5C 129.222,308.191 126.389,304.191 118.5,303.5C 106.313,304.467 103.147,310.134 109,320.5C 113.45,324.798 118.283,328.465 123.5,331.5C 119.226,331.197 115.559,329.53 112.5,326.5C 108.469,322.423 105.469,317.757 103.5,312.5C 103.679,309.809 104.679,307.475 106.5,305.5C 114.262,299.925 121.595,300.259 128.5,306.5C 129.833,309.833 129.833,313.167 128.5,316.5C 124.51,317.638 122.843,315.971 123.5,311.5C 119.432,311.931 117.432,314.264 117.5,318.5C 117.57,319.772 117.903,320.938 118.5,322C 134.178,322.472 138.678,315.638 132,301.5C 129.937,299.266 127.771,297.266 125.5,295.5 Z"/></g>
<g><path style="opacity:1" fill="#4b200f" d="M 125.5,295.5 C 127.771,297.266 129.937,299.266 132,301.5C 138.678,315.638 134.178,322.472 118.5,322C 117.903,320.938 117.57,319.772 117.5,318.5C 117.432,314.264 119.432,311.931 123.5,311.5C 122.843,315.971 124.51,317.638 128.5,316.5C 129.833,313.167 129.833,309.833 128.5,306.5C 121.595,300.259 114.262,299.925 106.5,305.5C 104.679,307.475 103.679,309.809 103.5,312.5C 105.469,317.757 108.469,322.423 112.5,326.5C 115.559,329.53 119.226,331.197 123.5,331.5C 124.263,332.268 125.263,332.768 126.5,333C 130.5,333.667 134.5,333.667 138.5,333C 145.166,329.508 149.832,324.341 152.5,317.5C 153.943,316.665 154.943,315.332 155.5,313.5C 155.833,314.5 156.167,315.5 156.5,316.5C 155.779,319.605 154.779,322.605 153.5,325.5C 148.828,330.166 143.495,333.833 137.5,336.5C 131.491,336.666 125.491,336.499 119.5,336C 110.604,334.105 104.437,328.938 101,320.5C 98.8289,302.17 106.996,293.837 125.5,295.5 Z"/></g>
<g><path style="opacity:0.075" fill="#bc8b69" d="M 153.5,325.5 C 150.95,330.543 146.95,334.043 141.5,336C 140.207,336.49 138.873,336.657 137.5,336.5C 143.495,333.833 148.828,330.166 153.5,325.5 Z"/></g>
</svg>
